<?xml version="1.0" encoding="UTF-8"?>
<svg id="_레이어_3" data-name="레이어 3" xmlns="http://www.w3.org/2000/svg" viewBox="0 0 503.25 383.1">
  <defs>
    <style>
      .cls-1 {
        fill: #1d2a70;
      }
    </style>
  </defs>
  <path class="cls-1" d="M277.99,95.13c-2.73-.59-12.98-1.08-17.2-2.72-.02,0-.05,0-.07,0-.49.07-.99.13-1.49.18-.16.01-.3,0-.45.01l.19.14-15.49.2c-.32.26-.66.48-1.06.61-.53.28-1.1.4-1.71.38-.61.02-1.18-.1-1.71-.38-.18-.06-.34-.15-.5-.24-.06-.02-.12-.06-.18-.08-.17.06-.36.12-.56.17-6.47,1.77-16.47,2.02-24.04,3.93-135.65,34.32-149.36,221.42-20.33,274.97,5.09,2.11,12.2,4.71,17.49,6.12,31.91,8.5,46,3.42,76.5.44,6.79-2.06,13.57-4.22,20.11-6.99,132.45-56.17,113.06-246.13-29.51-276.72ZM238.65,381.47c-95.23-7.17-157.92-104.41-124.37-194.53,33.83-90.87,149.26-120.4,225.57-61.2,10.96,8.51,15.52,13.78,24.04,24.48,78.88,99.13-1.2,240.59-125.24,231.25Z"/>
  <path class="cls-1" d="M141.16,158.96l24.04-25.79c-8.52,8.05-16.78,16.56-24.04,25.79Z"/>
  <path class="cls-1" d="M357.56,154.59c.07.06,1.79,1.29,1.53.22-4.2-3.68-7.69-8.3-11.8-12.02-3.32-3.01-7.05-6.16-10.71-8.74-1.07-.75-4.61-3.67-5.46-2.84,7.7,4.78,14.05,11.07,20.55,17.27,1.73,1.65,4.45,4.95,5.9,6.12Z"/>
  <path class="cls-1" d="M141.82,152.4c4.71-5.07,9.12-10.65,13.99-15.52,3.1-3.11,7.03-5.57,9.84-8.96l-6.12,4.37c-6.62,6.11-12.36,12.88-17.7,20.11Z"/>
  <path class="cls-1" d="M361.93,153.71c.12-.77-.72-2.08-1.09-2.62-1.74-2.5-6.79-7.29-9.18-9.62-1.1-1.06-17.88-15.82-18.36-14.21,4.54,3.4,8.85,6.92,13.11,10.71,5.56,4.94,10.9,9.87,15.52,15.74Z"/>
  <path class="cls-1" d="M115.59,197.86c3.42-10.48,6.84-21.47,12.68-30.82.09-1.15-1.02,0-1.31.22-2.97,8.12-7.53,15.6-10.05,24.48-.51,1.79-.7,4.23-1.31,6.12Z"/>
  <path class="cls-1" d="M119.31,194.37l6.56-14.86c.68-.32.62-.96.61-1.39l.37-.84c.46-.62,1.06-1.33.93-2.11l.64-1.45s.04.08.07.11c.84-.47.8-1.6,1.09-2.19-.07.1-.24.24-.42.4l3.26-7.4c-3.56.91-14.72,29.37-13.11,29.73Z"/>
  <path class="cls-1" d="M142.69,154.15c7.34-7.51,14.42-15.34,21.86-22.73-7.54,5.58-15.91,15.39-21.86,22.73Z"/>
  <path class="cls-1" d="M338.76,129.23c4.28,3.88,8.99,7.5,13.33,11.37,1.43,1.27,2.86,2.52,4.15,3.93-3.49-5.28-9.93-10.29-15.08-14.43-1.41-1.13-2.8-2.31-4.15-3.5-1.2.3,1.61,2.5,1.75,2.62Z"/>
  <path class="cls-1" d="M121.49,194.8l10.93-25.35c-2.14,1.3-12.69,24.88-10.93,25.35Z"/>
  <path class="cls-1" d="M159.74,128.79c-7.34,4.5-12.9,11.67-18.36,18.14,6.26-5.93,11.79-12.51,18.36-18.14Z"/>
  <path class="cls-1" d="M127.18,165.51c-3.47,5.56-9.78,15.54-11.15,21.86-.09.41-.17,1.32.44,1.31,1.69-4.42,7.13-18.96,10.49-21.42.15-.41,1.17-1.91.22-1.75Z"/>
  <path class="cls-1" d="M348.59,147.15c-3.72-3.95-11.17-11.21-15.74-13.77-.34-.19-1.44-1.05-1.31,0,2.95,2.04,5.56,4.5,8.31,6.78,2.82,2.35,6.02,4.53,8.74,6.99Z"/>
  <path class="cls-1" d="M151,139.29c3.37-3.39,6.94-6.85,10.49-10.05-4.28,3.1-7.02,6.06-10.49,10.05Z"/>
  <path class="cls-1" d="M124.55,191.74l4.81-11.37c-2.36,3.14-4.43,7.42-4.81,11.37Z"/>
  <path class="cls-1" d="M169.58,132.29l-7.65,7.21c2.54-1.57,6.74-4.44,7.65-7.21Z"/>
  <path class="cls-1" d="M144.66,146.72c2.58-2.06,4.22-5,6.34-7.43-2.18,2.2-5.26,4.32-6.34,7.43Z"/>
  <path class="cls-1" d="M138.54,159.39c1.91-1.32,2.77-3.54,4.15-5.25-1.37,1.4-3.75,3.17-4.15,5.25Z"/>
  <path class="cls-1" d="M129.58,171.63c1.12-1.59,2.35-3.23,3.5-4.81-2.11,2.16-2.11,2.06-3.5,4.81Z"/>
  <path class="cls-1" d="M138.98,156.33c1.25-1.03,1.93-2.7,2.84-3.93-.9.97-3.06,2.09-2.84,3.93Z"/>
  <path class="cls-1" d="M165.43,126.39c-1.65-.13-2.97,1.97-3.93,2.84,1.26-.91,2.98-1.43,3.93-2.84Z"/>
  <path class="cls-1" d="M267.28,102.35l-6.78-1.97c-4.51-.25-9.02-.66-13.55-.44-3.66.18-9.64.89-12.68,2.62,10.83-2.36,22.17-2.48,33.01-.22Z"/>
  <path class="cls-1" d="M250.02,96.01c-3.92.06-9.76.17-13.11,1.31l27.32-.22c-4.3-1.63-9.56-1.17-14.21-1.09Z"/>
  <path class="cls-1" d="M266.85,100.16l-5.03-1.53c-4.64-.06-9.35-1.02-13.99-.87-3.73.12-8.3.8-11.8,2.19,10.24-2.04,20.58-1.4,30.82.22Z"/>
  <path class="cls-1" d="M243.9,102.13l-5.68,1.31,26.88-.22c-6.97-1.49-14.11-1.02-21.2-1.09Z"/>
  <path class="cls-1" d="M262.04,104.97c0-.89-16.27-.76-17.7-.66-2.5.18-5.99.7-8.31,1.75l26.01-1.09Z"/>
  <path class="cls-1" d="M323.02,124.86c.63.11,2.03-3.03.44-3.06-.54-.01-1.78,2.82-.44,3.06Z"/>
  <path class="cls-1" d="M325.42,127.26l-.22-1.53-1.53,1.53c-.86,1.76.97.51,1.75,0Z"/>
  <path class="cls-1" d="M135.48,163.77c-1.24.75-1.71,2.11-2.4,3.06.33-.34,3.03-1.42,2.4-3.06Z"/>
  <path class="cls-1" d="M143.79,147.15c-1.37.85-2.02,2.44-2.84,3.5.84-.86,3.08-1.97,2.84-3.5Z"/>
  <path class="cls-1" d="M140.95,150.65c-.59.6-2.87,1.72-2.4,3.06,1.22-.67,1.76-2.24,2.4-3.06Z"/>
  <path class="cls-1" d="M167.18,129.45c-1.19-.51-2.03,1.38-2.62,1.97.52-.38,2.45-.93,2.62-1.97Z"/>
  <path class="cls-1" d="M161.49,127.7c-.91-.73-1.39.79-1.75,1.09.36-.22,1.37-.22,1.75-1.09Z"/>
  <path class="cls-1" d="M393.62,226.72c-.71-9.65-4.02-27.11-7.87-36.07-.8-1.86-1.33-3.7-3.06-4.59-1.21-.62-1.02-.17-2.19,0-2.08-5.75-6.59-15.77-10.49-20.33-.15-.18-1.32-1.73-1.31-.44,7.4,9.8,11.36,21.09,15.3,32.57.63,2.75,1.83,6.23,1.31,9.18-3.18-15.31-10.19-29.62-19.02-42.4-.23.54.42,2.16.66,2.62-.76.83.68,2.16.87,2.62,1.38,3.32,2.88,6.37,4.37,9.62l-1.31.44c-.99-2.2-2.22-4.34-2.62-6.78l-1.75,1.09c4.35,6.74,6.19,11.9,8.74,19.67,3.47,10.57,6.12,21.17,6.99,32.35,2.62,33.31-7.4,67.3-28.41,93.11-13.38,16.44-29.89,29.24-49.4,37.6-5.55,2.38-12.55,4.99-18.36,6.56-4.29,1.15-8.72,1.98-13.11,2.62-6.2.91-12.53,1.49-18.8,1.75-5.4.22-10.81-.75-15.74-.44-3.96-1.29-9.01-.71-12.9-1.31-32.15-5-61.82-24.19-81.53-50.27-15.89-21.03-24.74-46.53-25.79-73-.29-7.24-.16-15.07.44-22.29.11-1.29-.14-2.65,0-3.93.85-7.93,3.82-15.13,5.9-22.73-4.16,7-4.7,15.01-6.34,22.73-.31,1.46-.76,5.63-2.62,4.37.64-6.33,1.94-12.84,3.28-18.8l-1.97,4.59c-2.18,16.64-4.29,34.56-2.62,51.37h-1.31c-.18-3.99-.1-7.4,0-11.37.09-3.58.12-7.14.44-10.71l-1.14,3.14-.13,7.96-.03,1.6c.01.22.02.44-.01.64-.39,2.89-.32,5.02,0,7.87h-1.31c.36-10.37-.99-20.83.44-31.26.03-.24.43-3.45,1.31-2.62l-.21,12.5,1.96-14.69-.87.87.22-5.03-1.09,5.46c-.37-7.73,3.3-15.9,4.81-23.61-3.72,8.77-6,19.55-6.99,29.07h-1.31c1.17-9.31,3.44-18.38,5.25-27.54-2.97,9.4-4.85,18.9-6.12,28.63l-.87-.44c-.62,11.88-1.37,24.25,1.75,36.07,2.4,16.28,7.18,27.43,15.3,41.53,48.47,84.14,157.48,99.54,227.32,31.91,1.22-1.18,2.76-2.27,3.93-3.5,28.41-29.66,41.04-66.8,38.03-107.98Z"/>
  <path class="cls-1" d="M357.99,151.53c.91.18.39-.77.22-1.09-.61-1.15-10.59-10.63-12.24-12.02-4.11-3.46-9.06-6.44-13.55-9.4,5.22,4.37,10.6,8.42,15.74,12.9,1.6,1.4,9.16,9.48,9.84,9.62Z"/>
  <path class="cls-1" d="M352.75,152.4c.07.06,1.79,1.29,1.53.22-1.17-.91-2.01-2.28-3.06-3.28-.79-.76-1.84-1.48-2.62-2.19,1.33,1.41,2.64,4.01,4.15,5.25Z"/>
  <path class="cls-1" d="M371.98,166.39c.96,3.33,3.73,6.39,5.46,9.4,1.93,3.33,3.69,6.75,5.25,10.27-.1-3.42-2.7-7.38-4.37-10.27-1.89-3.27-3.92-6.49-6.34-9.4Z"/>
  <path class="cls-1" d="M374.17,165.95c.91,3.38,3.08,6.89,5.25,9.62-1.14-3.31-3.26-6.75-5.25-9.62Z"/>
  <path class="cls-1" d="M354.93,153.71c-.61.08.15,1.35.44,1.31.61-.08-.15-1.35-.44-1.31Z"/>
  <path class="cls-1" d="M255.7,367.04c100.66-3.27,159.85-114.87,105.14-200.22-5.17-8.07-15.05-19.36-22.29-25.79-74.21-65.83-198.84-28.41-216.83,70.38-15.53,85.3,47.42,158.44,133.99,155.63ZM302.04,119.61c79.81,33.62,104.7,135.05,47.87,201.31-50.31,58.65-146.21,61.47-196.72,1.97.79.8,2.87,2.07,3.93,3.06,1.4,1.3,8.2,9.19,9.4,9.18.09,0,.66-1.23,1.09-1.31.21-.04.8-.04.87,0-2.77,3.28-.12,2.02,0,2.19.02.02.33.33.44.44.05.05.03.97.44,1.31,2.53,2.12,5.69-3.03,7.43-5.03-4.52-2.61-10.27-10.8-14.43-12.9l2.84-3.5c4.95,4.99,10.24,9.91,15.96,13.99-1.47,2.65-3.94,4.56-6.12,6.56-.62.57-5.03,2.76-1.75,2.84l1.75-2.4c.69-.42,1.02-.66.87.44,1.73-2.13,4.16-5.21,6.56-6.56,6.2,4.29,13.07,7.73,19.67,11.37l-5.25,9.62-.66,2.19c.8.4.97-1.58,1.09-1.75,2.15-2.99,4.11-6.08,5.25-9.62,6.45,2.65,12.86,4.94,19.67,6.56,4.98,1.18,10.46,2.34,15.52,3.06,1.67.24,10.06.13,10.49.44.31.22.44,3.62.66,4.37.1.34.29.55.44.87.14.3-.24,1.02.22,1.31,1.94.95,1.15-6.87,2.84-6.56,5.62.17,11.12-.82,16.61-1.75,1.61-.27,4.57.05,4.81,0,.58,3.37,1.22,6.67,1.75,10.05.02.12-.98,1.5.22,1.75,2.56.54.68-1.6.66-1.75-.32-2.47-.76-4.2-1.31-6.56-.32-1.36-.67-2.5-.44-3.93,7.05-1.5,16.11-4.91,22.73-7.87,1.57.57,1.59,2.44,2.19,3.5.37.67,2.99,4.8,3.28,4.81l.22-.87-4.37-8.31c6.51-3.04,13.34-6.84,19.23-10.93,2.16,1.18,4.51,3.18,6.12,5.03.27.31,3.6,3.93,1.97,3.72-1.55-1.21-2.72-3.14-4.15-4.37-.16-.14-.81-1.32-1.09-1.31l-18.14,10.49c-1.62,1.58-.21,3.67.44,5.68.43,1.36.45,2.44,1.09,3.5l.87-2.62c.66.09,1.69,4.01,1.09-.44,1.71-.07.59,2.48,2.62.87,1.08-.86.95-.77.44-2.19.27.04.76-.07.87,0,.63.39.46,1.34,1.31.66-.39-.64-.59-2.45-.87-2.84-.08-.5.42-.41.44-.44.75,3.51,3.69,3.29,1.75.44h1.31c.34.59.01,1.79,1.31.87.54.08.82-.85.87-.87.43-.19,1.17-.36,1.31-.44,1.28-.68,1.51-1.28,2.19-1.75.49-.34,3.43-1.26,3.5-1.97.02-.21-2.16-2.33-2.62-3.28-.18-.38-.91-1.42-.66-1.75l2.84.44c.4.79,2.03,2.03,1.97,3.5.27.12,4.18-2.57,4.15-2.84-.06-.66-8.88-7.38-10.05-8.52,2.6-1.84,15.13-13.75,16.17-13.99.37,1.16,2.47,1.76,2.19,3.28-.12.65-8.36,7.72-9.62,8.96-.85.84-4.13,2.96-3.93,4.15,1.07.6,5.39,5.43,5.9,5.46,1.19.08,1.86-1.68,1.97-1.75l-3.93-3.28c.04-1.22,2.02.51,2.19.66.3.27,1.89,2.47,1.75,2.62,2.58-1.61,3.19-2.52,5.25-4.37,2.24-2.01,5.28-3.56,6.56-6.56.04-.03.3,0,.87-.44.72-.54,1.58-2.02,1.75-2.19,2.57-2.44,4.12-4.14,5.68-6.99-.55.55-6.33-5.26-5.03-5.68l5.03,5.68c.05-.09,1.78.01,1.31-1.53-2.09-1.3-4.33-3.8-6.34-5.03-.56-.34-.62.46-.66.44-.7,1.24-7.07,8.74-7.65,8.74-.35,0-1.4-2.08-2.84-2.19,1.85-3.35,5.11-5.82,7.43-8.74,5-6.28,9.74-13.29,12.68-20.76.9-.71,3.29,1.52,3.93,1.97-.4,3.26-12.24,18.3-12.24,19.45,0,.64,6.19,5.63,6.78,5.46,1-1.87,8.98-12.24,8.96-13.33-.02-1.05-3.39-1.67-3.93-2.62,1.08-.86,3.93,1.56,4.15,1.53.31-.05,3.28-5.15,3.28-5.46-.02-1.06-4.25-2.23-5.03-2.84-.81-.64.26-.85.22-.87l4.59,2.62c1.19.03,1.06-1.39,1.53-2.19,2.29-3.84,3.38-8.06,4.81-12.24.31-.91.59-1.69.87-2.62.13-.41.3-.85.44-1.31.12-.39.31-.84.44-1.31.77-2.76,1.6-5.49,2.19-8.31.83-3.97,1.22-7.39,1.75-11.37.99-7.42,1.46-13.89,1.35-20.31.14-.41.14-.86-.03-1.34-.2-6.73-1.05-13.46-2.64-21.19-.48-2.33-1.13-4.7-1.75-6.99-.28-1.05-.57-2.02-.87-3.06-.5-1.68-1.18-3.19-1.75-4.81-6-17.23-12.33-27.54-24.04-41.09-6.19-7.16-12.15-14.2-20.33-19.23l-5.03,6.78c5.23,3.46,9.65,8,13.99,12.46-3.83,5.07-5.87-.7-9.4-3.5-2.73-2.17-5.66-4.14-8.52-6.12l8.31-10.27-1.97.66c.53-2.73-5.54-5.66-8.09-6.99-2.88-1.51-3.09-.37-3.28-.44-.47-.16.82-.6-1.09-1.75-.55-.33-2.26-1.75-2.4-1.75-.45,0-1.34,1.34-1.97,1.75,1.4-2.99.26-2.32-2.19-3.5-.83-.4-1.05-.28-1.75-.44l-3.06,6.78c1.83.59,2.02,1.6,3.5-.22l.44.44c-.05.65-.14,1.64.22,2.19.48.75,14.84,8.48,15.08,9.4l-3.06,3.28c-6.08-4.08-12.48-7.81-19.23-10.71-.59-1.11,4.55-10.13,6.12-11.15-.09-.02-.35-1.26-1.53-.87-.93.3-4.95,9.97-5.25,11.8-2.42-1.66-5.15-2.49-7.87-3.5-.6-.22-.75-1.59-1.31-1.75-.09-.03-1.26,1.04-1.75.87-3.86-1.31-7.65-2.86-11.58-3.93.09-3.02,2.45-8.51,3.93-10.71l-.44,2.84c-.41.83-2.31,3.97-1.53,4.81,3.85-.09,19.95,6.94,22.08,5.03.77-.7,1.82-5.03,3.06-6.12-3.2-1.81-6.68-2.51-10.05-3.72-1.49-.53-2.8-1.27-4.37-1.75-1.28-.39-2.66-.53-3.93-.87-1.01-.27-2.03-.62-3.06-.87-.14-.03-.3.03-.44,0-1.08-.26-2.16-.68-3.06-.87-5.07-1.08-10.14-2.06-15.3-2.62-.57-.06-1.18.05-1.75,0-26.17-2.38-47.33,2.69-70.38,14.43-.12.06-.32-.06-.44,0-1.34.69-2.62,1.46-3.93,2.19-1.06.59-2.02,1.14-3.06,1.75-1.16.68-.82.84-.87.87-.12.07-.5-.06-1.31.44-2.08,1.28-4.1,2.56-6.12,3.93-1.03.7-2.05,1.45-3.06,2.19-.84.61-1.75,1.08-2.62,1.75-5,3.83-20.7,17.73-22.73,22.95-.74,1.9,4,3.95,4.81,6.78l-5.9-5.25c-1.11,1.69-2.06,3.64-3.28,5.25-.85,1.12-.9,2.32-2.19,1.31,33.53-54.05,104.07-73.97,162.4-49.4ZM124.12,262.13c.97-1.66,4.43-1.3,6.34-1.75.04,0,.07.75.66.44l.66-1.09c-3.29-5.57-.48-21.61-2.19-25.79-.4-.98-3.09-.45-2.19-1.97.65.11,4.12.78,4.37.87.64.24,1.95.59,2.19,1.09-.41,9.63.8,18.42,2.62,27.76l-12.46.44ZM126.08,204.64c.82-1.15,1.59-.46,2.62-.22.7.17,1.55.05,2.19.66.28.59-1.66.66-1.75.66-.27-.02-3.05-.93-3.06-1.09ZM128.71,208.36c.91.85.63,1.4.87,2.19l-4.37-2.4,3.5.22ZM129.58,210.98c.82.1,2.35,1.57,3.06.22-.68-4.26,8.13-21.09,7.87-23.17-.19-1.55-1.36-.87-1.75-1.09-1.58-.9-3.87-1.48-5.25-2.84.27-.77,11.18,3.1,11.37,4.81l-2.88,8.28c7.11-17.63,18.75-34.63,32.61-46.1,19.42-16.07,44.48-25.24,69.51-26.23,2.22-.09,4.33-.44,6.56-.44,8.2.02,16.89.55,24.92,2.19,1.6.33,11.49,2.84,12.02,3.5.5.62-.82,2.5-1.31,2.62-.9.22-15.05-4.44-17.92-4.81-6.6-.86-18.43-1.14-25.14-.87-19.53.78-38.93,8.5-55.3,18.8-27.88,17.54-46.02,48.07-49.62,80.65-.32.59-2.89.53-3.5.66.4-4.16.84-8.58,1.75-12.68.48-2.16,1.04-4.34,1.68-6.52l-2.12,6.08c-1.42.2-7.58-1.94-9.84-2.62-.53-.16-1.95-.46-1.09-1.31,1.48.5,2.84.68,4.37.87ZM136.57,179.72l.87-.87c.43.43,1.3.48,1.75.66.68.27,3.57,2.82,4.15,2.62.76-.26,7.78-12.88,8.09-13.99.01-.04.88.13.87-.22-.03-1.02-5.08-5.21-5.25-6.99l6.34,5.46c.62-.14,6.16-7.85,7.21-8.96,1.19-1.26,2.52-1.42,2.62-1.53.11-.11-.13-.96,0-1.09,1.69-1.71,13.9-13.01,15.08-12.9.69.07,1.33,2.29,1.97,2.62-.46.31-4.79,5-6.12,6.12-2.8,2.37-5.59,4.73-8.09,7.43l-2.84-2.19c-.6.62,2.19,2.56,2.19,2.84,0,.73-8.39,9.2-9.62,10.93-3.89,5.47-6.9,12.13-10.71,17.7l-9.4-3.72c.5-.8,2.54.58,2.62,0,.08-.61-4.26-1.52-2.84-2.84.58.76,7.99,4.75,7.65,2.84l-6.56-3.93ZM140.73,179.94c-.42-.41-1.01-.64-1.53-.87-.28-.12-1.2-.74-1.31-.87.59-1.04,4,1.3,2.84,1.75ZM199.09,129.23l-2.4-6.56c1.21,1.64,5.55,9.16,5.03,10.71-6.63,3.45-13.16,7.12-19.45,11.15-.56.36-1.38-.54-1.53-.44l-1.75-2.84c.87-1.39,1.25.52,1.97.22.09-.04.77-1.51,1.09-1.75,5.42-4.03,11.27-7.09,17.05-10.49ZM197.78,128.79c-.66-.54-2.7-2.64-1.75-3.5.55.69,2.66,3.18,1.75,3.5ZM202.37,128.79c5.15-3.79,12.6-4.21,18.58-6.56.35-.14,1.96-.11,2.19-.66l-1.53-7.65,3.72,11.15-22.08,7.65c-.76-.23-4.84-10.74-4.37-11.37.38-.51.62.46.66.44l2.84,6.99ZM228.16,120.49c4.42-2.02,17.16-.68,20.55-2.19,1.62-.72-.33-5.63.22-6.99.05.02-.18-1.47.87-.66l.66,12.46-24.04,2.19-3.28-11.58c2.17,1.04,1.71,5.23,2.84,7.21l.22-7.65c1.04-.58,1.18,2.64,1.31,3.28.19.94-.48,3.53.66,3.93ZM181.16,139.72c-1.63.46-1.27-.35,0-.44v.44ZM252.2,110.43l-.66,5.68.66,2.62c2.86-.59,20.57,2.97,21.2,1.53.08-.17.2-2.65.44-3.72.13-.61-.41-2.11.87-1.97l-.22,6.34c1.22-2.08.72-4.67,2.4-6.56.09,1.64-1.76,10.53-2.84,10.93l-22.95-1.75c.62-4.4-1.36-8.99,1.09-13.11ZM359.96,187.59c2.78,2.48,7.34,22.4,8.31,23.17,1.23.98,3.54-1.19,4.81.22-1.31.35-7.99,1.6-8.74,1.09-1.06-.72-5.94-21.54-8.74-24.04l.87-.66,10.49-4.15c-1.48,1.85-7.02,1.89-6.99,4.37ZM376.35,261.25c-1.95-.11-3.96.16-5.9,0-.27-1.3,1.54-.89,2.62-.87,1.11.01,2.46-.14,3.28.87ZM361.49,286.61c.87-.16,6.61,2.12,6.34,2.84-2.09-.39-4.75-1.43-6.34-2.84ZM367.83,264.53c.97,3.64-7.63,21.14-7.43,22.29.17,1.01,5.55,3.33,6.56,4.15-1.83.49-8.03-3.7-10.49-4.59l7.87-24.04,11.37,2.84c-2.83.83-5.1-1.27-7.87-.66ZM246.08,328.57l2.4.22c.17,1.16-1.7.36-1.75.87-.03.29,1.37.03,1.75.87.54,1.21-.39,6.46-.66,8.09l-1.75-10.05ZM244.77,313.71c.44-.26,3.62-.18,3.28,1.09-.48,1.79-5.16.01-3.28-1.09ZM243.9,311.09c.6.66,4.58-.04,4.15,1.53-.37,1.35-4.97.79-4.15-1.53ZM245.21,315.9c.15-.03,2.85.48,2.84,1.09-.02,1.62-5.57-.47-2.84-1.09ZM245.21,318.08c.41-.24,2.81.02,2.84,1.09-.15,1.28-4.52-.11-2.84-1.09ZM245.64,320.27c.73-.24,2.38-.14,2.4,1.09.03,1.22-4.61-.37-2.4-1.09ZM245.64,322.45c.68-.47,1.99.44,2.4,1.09.09,1.04-4.04.02-2.4-1.09ZM246.08,324.64c.54-.33,2.54.69,1.97,1.53-.77,1.13-3.2-.77-1.97-1.53ZM248.49,327.48c.47.49-2.39.66-2.4-.22l2.4.22ZM243.68,309.99l4.37-.87-4.15-.66,1.53-1.53-2.19-1.75,3.06-.44c-8.08-2.26-.53-1.51,2.62-1.75-2.38-1.7-5.83.82-6.99-2.84.74-.73,4.72.33,5.9.44-.4-1.99-5.18-.05-4.81-2.62l3.28-.22c-1.3-.79-3.76-.13-3.5-2.19h6.12l-6.56-1.31c-.61-.05-.57,2.52-1.31-.44-1.95-7.79-4.39-20.9-5.25-28.85-.28-2.63.14-5.73-.87-8.31.64-.94.85-.29,1.75-.22,3.83,2.35,8.34,2.37,12.68,2.84l.87,74.75-1.31-23.61c-.57.89-5.25.31-5.25-.44ZM223.57,299.94c0-.08,1.02-1.13,1.09-1.09,1.22.56-1.1,2.65-1.09,1.09ZM222.48,298.41c.62-5.94,1.26-12.76,2.4-18.58,1.25-6.38,2.66-16.74,8.52-19.89,3.46,7.52-2.41,16.83-4.59,24.26l-2.62-1.31c0,1.23,2.07,1.75,2.19,2.62.09.7-4.63,11.64-5.9,12.9ZM222.69,299.06l-.22.66-.22-.22-.22-.66.66.22ZM179.42,255.57c-.07.02-.54,1.45-1.31.66.26-.69,1.23-.59,1.31-.66,2.03-1.62,17.47-12.87,18.58-13.11,2.11-.47,6.88.61,8.96,1.53-9.34,3.48-17.91,8.74-27.54,11.58ZM141.38,229.78c-1.34-.06-8.34.41-8.31-.66,2.47-.73,5.89-1.61,8.52-1.97.09-.01.55,1.4.87,1.31.15-.04-.02-1.3,1.75-1.75,1.41-.36,2.9.89,3.06.87.35-.04,4.33-4.21,4.37.87.27-2.26,1.67-4.06,4.15-3.06-.08.13-.77,3.18.22,3.06l.22-3.5c2.32-.51.8,2.48,1.53,3.93l1.75-4.37.44,3.93,1.75-3.5.44,4.37c-.21-5.19,4.12-8.61,4.37-1.75l1.75-3.93v4.37c1.25-6.32,4.98-4.37,9.84-5.25-.3.53-.38.66-.44,1.31-.04.48-.11,2.57.22,2.62.47-.73.45-1.9.66-2.62.13-.48.62-.69.44-1.31,14.59-2.5,29.07-6.01,43.93-6.56l-3.06,13.99c-7.07.05-14.14-.07-21.2,0-19.01.19-38.25.38-57.27-.44ZM181.16,237.86c-4.86-.56-9.78-.95-14.64-1.53-4.57-.55-10.3-.6-14.43-2.62,4.77.73,9.61,1.18,14.43,1.75,4.72.56,10.27.04,14.64,2.4ZM151.44,233.93c.09.34-2.2.65-2.4.66-.27,0-5.51-.26-5.25-1.31l7.65.66ZM248.92,132.07c.99,18.38,1.16,36.93.87,55.3-.02,1.02.02,2.05,0,3.06-.16,8.98-.12,17.94-.87,26.88-.63.81-1.25.54-2.19,1.09-2.16,1.26-4.45,1.36-6.56,3.72-4.4,4.93-.41,9.09-9.84,8.52-1.4-10.42,8.55-18.51,18.14-19.89-5.93-1.01-13.78,4.51-16.61,9.62-3.16,5.71-.49,11.84-8.31,10.27-2.91-.58-1.81-5.12-1.31-7.65,2.26-11.53,14.61-20.17,25.79-21.42-4.14-.83-8.34.55-12.02,2.4-.71-.49-.62-.78-.66-1.53-.14-2.75,5.03-31.71,6.12-34.1,1.38-3.02,4.1-1.33,6.56-2.62-8.22.46-6.19-1.77.44-2.19l-5.25-.44,5.03-1.97-5.03-.22,3.93-1.31c-5.54-.36-3.74-1.89.44-2.19l-2.84-.22c-2.3-.78,2.43-1.81,2.62-1.75,1.55.51-.44,4.34,1.53,4.15-.33-2.34.7-14.25-.66-15.08-.38-.23-2.04.33-2.4-.22-.12-.17,1.27-3.39,1.31-3.93.23-3.25-.53-4.94,1.75-8.31ZM360.83,253.6c-.31,2.67-1.1,5.89-1.75,8.52-.52,2.11-.71,4.24-1.97,6.12-1.3-.71.05-1.32-1.97-2.19-.19-.08-.66.08-.87,0l-.44.87c.91.32,2.08.03,2.19.22.23.43.12,3.63-.87,3.93h.87c-.99,5.14-3.34,10.75-5.68,15.52-10.52,21.41-28.92,37.8-49.84,48.52-1.22.62-2.24,1.16-3.5,1.75-14.19,6.66-26.69,10.22-42.62,10.93l-.66-3.5,8.31-62.29c4.15,6,9.14,12.45,12.68,18.8.99,1.77,1.83,10.48,5.68,6.99l-9.18-42.84,2.62.22c.13.12.26.28.44.44l.09.06,1.22.81s.17.21.44.44c4.87,4.05,10.36,7.11,15.3,10.93.5.51.7,1.52,1.75,1.31.02.02.11.18.44.44.59.46.84.41.87.44,9.86,7.71,19.43,15.81,28.85,24.04.75-.7.35-1.22.44-1.31-15.65-15.41-26.74-34.59-40.22-51.8l28.41,5.25-29.07-7.21-3.28-3.28c.09-.63,11.32-2.29,12.46-2.4.08,0,1.23.88,1.31.87.78-.07,4.3-2.12,6.56-1.75.86.14,13.96,8.89,14.43,9.62.24.37-.29.94-.44,1.31-.48.18-4.92-1.4-5.68-1.75-1.09-.49-2.45-2.55-2.62-2.62-.16-.07-2.85-.12-3.5-.44-.24-.12-.46-.54-2.19-1.31-.31-.14-7.71-4.34-5.68-2.19,2.25,2.38,22.35,10.28,22.51,11.58.12.94-2.13-.12-2.19.44,1.92,2.45,5.1.18,5.46.22.16.02-.66,1.25.87,2.19,2.42,1.47,6.81.33,4.37-2.62-.47-.57-11.11-5.73-13.11-6.99-3.51-2.22-7.51-4.98-10.49-7.87,16.04-3.38,32.38-5.34,48.74-6.56,1.29-.1,2.64.09,3.93,0l-1.53,1.75c3.27-1.31,8.78,3.14,6.99-1.31-.59,1.06-3.68,1.73-3.28-.44,1.14-.08,4.93-1.82,5.25-.66-1.17,5.83-.14,12.53-.87,18.8ZM230.13,232.4c-.07,0,0-.51-1.31-.44.17.56.78,1.78.87,2.19,1.73,7.58,4.24,12.73,12.02,15.74,1.32.51,7.43,1.21,7.65,1.53.29.41-.25,5.96.22,7.21-4.06-.57-8.22-.94-12.02-2.62-3.75-1.66-10.23-7.51-12.24-11.15-1.39-2.52-3.73-9.78-3.06-12.46.22-.88.39-1.05,1.31-1.31.7-.2,12.74-.31,13.33,0,.46.24.08,1,.22,1.31,1.56,3.59,1.67,6.64,5.46,9.18,4.86,3.26,8.29-.15,6.56,8.74-9.38-.01-17.46-6.91-19.02-16.17-.09-.55.06-1.19,0-1.75ZM246.08,242.45c-11.4-3.63-10.87-20.03.66-23.61.92.73.25,2.48.44,3.5-1.13.64-2.07,1.33-3.06,2.19-3.98,3.43-4.35,8.63-.44,12.68,4.79,4.95,12.9,2.87,14.43-3.93,1.01-4.51.15-7.7-3.93-10.05-.42-.24-.77-.54-1.31-.44.12-.68-1.27-3.04,0-3.93,16.66,4.9,9.02,28.64-6.78,23.61ZM255.7,154.59c.45-.09,1.15,2.54.87,3.06-1,.66-1.17-3-.87-3.06ZM256.57,158.52c2.59,14.58,6.89,29.41,7.21,44.37l-.87-.22c-.59-8.24-2.18-16.35-3.5-24.48-.06-.37-.32-.6-.44-1.31-.33-2.03-.56-4.09-.87-6.12-.16-1.06-.43-.83-.44-.87-.13-.83.13-1.8,0-2.62-.11-.73-.38-.95-.44-1.31-.15-1.02-.3-2.03-.44-3.06-.1-.74-.4-.98-.44-1.31-.02-.14,0-.29,0-.44-.08-1.13-.55-2.16.22-2.62ZM275.81,156.77c-.34-.27-.37-.96,0-1.31,1.08-.1.24.7,0,1.31ZM276.68,160.27c.54.8.17,1.81-.44.87-.31-.47.17-.53.44-.87ZM275.59,163.11l1.31-.44c-.55,1.64-.51,3.66-.87,5.25-.29,1.24-1.72,1.12-1.75,1.31-.04.3.9.13.87.44-.44,5.06-1.07,8.76-2.19,13.77-.09.4.09.92,0,1.31-.53,2.23.31,4.19-2.19,3.72,1.92.19.55,6.58,0,7.87-1,2.32-3.34,2.56-4.37,4.15-4.23-.92.82-12.92,1.31-15.52.97-1.5,2.47,1.22,3.93.87-6.68-4.23-1.4-4.42-1.31-4.81.03-.11-1.17-.68-.87-1.75.16-.57,1.24-.65,1.31-.87.04-.12-.72-1.49,0-2.62.32-.51,1.44.07,1.75-.44.19-.3-1.3-.48-1.31-1.31-.02-1.62,2.14-2.46,2.19-2.62.03-.09-.9-.79-.87-.87.8-2.49,2.5-4.8,3.06-7.43ZM318.65,203.98c-3.66,1.01-7.07,2.79-10.49,4.37-2.4,1.11-13.58,7.4-16.17,7.87-1.35.24-11.6-.97-12.02-1.53-2.61-3.4,11.05-5.19,12.02-5.46,8.58-2.41,14.51-3.73,23.17-4.81.71-.09,2.06-1.3,2.19-1.31.08,0,1.64.59,1.31.87ZM312.75,207.7c-.44,3.32-1.84,1.83-1.97,1.97-1.19,1.29-9.12,8.08-10.49,8.31-.51.08-5.89-1.63-5.9-1.97l14.21-7.21c1.24,1,2.86-1.32,3.06-1.31.38.02.87-.16,1.09.22ZM280.62,211.85c-.81.27-8.67-.29-8.52-2.4,0-.68,4.46-5.01,5.25-5.9,5.44-6.18,11.7-11.64,17.49-17.49,5.14-5.19,9.48-11.46,15.74-15.52-5.67,7.95-11.26,15.96-17.05,23.82-1.63,2.21-11.87,17.14-12.9,17.49ZM264.44,192.18c.42-3.43-2.66-9.49-1.97-12.46.58-2.48,11.15-15.16,12.46-19.02l-10.49,31.47ZM250.89,201.8c7.95,1.71,15.99,3.93,21.2,10.71,2.7,3.5,6.67,13.22,5.68,17.49-.08.35-.86.8-1.31.66-8.64,1.03-5.48-2.84-7.87-8.52-2.7-6.44-10.1-11.69-17.27-11.58,1.6,1.02,3.5,1.33,5.46,2.19,7.49,3.27,12.02,8.89,12.68,17.27-8.81,2.04-5.42-2.79-9.18-7.43-2.5-3.09-4.66-2.79-7.43-4.15-.67-.33-1.8-.3-2.19-1.09-.14-.29.11-1.09,0-1.53-.44-1.79-.89-13.55.22-13.99ZM309.69,239.39c-.41.08-.9-.07-1.31,0-.88-.92,1.19-1.25,1.31,0ZM324.33,235.9c.75-.1,4.97-.46,5.03.87-3.51.58-8.65,1.03-12.24.87,2.06-.43,5.32-1.5,7.21-1.75ZM360.83,233.05c-3.12.92-6.42.68-9.62,1.09l.87-1.31c1.95,1.59,1.17-1.17,1.97-.87-1.51,2.42,8.59-.8,6.78,1.09ZM349.03,233.71c.11,0,1.17-1.17,1.31.87-.81.04-1.48.24-1.31-.87ZM344.66,234.15l1.3-.43s.51.18-1.3.43ZM342.91,234.15c.42-.07.89.06,1.31,0-.38,1.08-1.46,1.34-1.31,0ZM340.72,234.15c.42-.07.9.07,1.31,0,.15,1.39-1.59,1.18-1.31,0ZM282.15,250.54l-8.74.87c0,.57,8.6-.05,9.4.22.45.15,5.37,6.58,5.46,7.87-.33-.09-7.17-.58-6.56.87,4.04,2.99,6.86,9.27,11.8,10.27-.35.5-1.35-.18-1.09.66.75,2.48,14.54,14.27,17.27,17.05,1.08,1.1,1.85,2.14,2.62,3.5-3.03-2.86-6.29-5.78-9.62-8.31-.23-.88-1.23-1.19-1.75-1.75-6.58-7.11-13.15-14.25-19.67-21.42-1.2-1.32-9.08-8.5-9.18-9.4-.23-2.14,7.8-8.8,8.74-1.75l-7.21,1.09,8.52.22ZM294.82,269.34c0,.19-3.22.64-3.28-.22,1.06.1,2.29-.25,3.28.22ZM273.84,293.38c-.06-.24,1.16-.08.87-.87-.16-.45-1.15,0-1.31-.44-.03-.08.9-.8.87-.87-.09-.26-1.2.04-1.75-1.31-.24-.6.9-1.24.87-1.31-.18-.45-1.13.01-1.31-.44-.66-1.62-.37-3.33-.44-3.5-.08-.22-2.5-2.42-2.62-3.93-.13-1.71,2.55-1.36,3.5-2.62-5.36,1.71-4.29-1.31-5.68-5.25-.09-.25.96-.18.87-.44-.08-.22-2.38-2.72-2.62-3.93-.52-2.59-.19-5.98.66-8.52l5.03,5.03,5.46,32.13c-.19.19-2.08-2.51-2.4-3.72ZM258.98,293.16c-1.77-.58-.03-1.21,0-1.31-.06.41.1.97,0,1.31ZM257.67,298.85c-.06-.3-.03-1.91.44-.87-.1.28.24.9-.44.87ZM256.35,312.4c-.32.05-.5-.12-.44-.44.54-2.72-1.65-1.22,0-2.62,1.89,1.35.43,1.71.44,3.06ZM257.23,302.34c.01-1.13-.59-1.99.44-3.06.03.65,1.13,2.15-.44,3.06ZM258.1,294.47c1.34-.24.59,1.04.44,2.19-1.12.34-.65-1.38-.44-2.19ZM263.35,257.32s-.16-.71.22-.87l.66.66c-.67,11.18-2.41,22.47-4.81,33.44l3.93-33.22ZM264.44,269.12c1.58,3.41,3.25,5.57-.66,7.21l3.06-.44c.1,1.42.81,2.65,1.31,3.93.03.07-.9.8-.87.87.4,1.01,2.62,4.01,3.5,6.34.4,1.05,4.79,12.46,4.15,12.68-2.52-3.72-4.87-7.53-7.21-11.37-4.83-7.91-7.04-8.54-3.28-19.23ZM259.41,247.7c-2.83,1.53-5.08,2.62-8.52,2.62-2.98-8.23,1.94-5.59,6.56-8.74,1.1-.75,3.99-4.07,4.59-5.25,2.17-4.24-1.69-6.06,6.78-5.25,1.2,6.77-3.67,13.53-9.4,16.61ZM253.29,231.96c-1.12,4.6-8.22,3.15-6.99-2.4.69-3.1,5.9-3.52,6.99-.66.08.22.08,2.72,0,3.06ZM250.23,256.44c7.34.19,12.55-2.82,17.49-7.87-1.16-1.06-2.96-1.82-3.06-3.5.47-.49,2.83-3.5,3.06-3.93,1.2-2.32,1.86-8.01,2.62-9.18.71-1.1,4.47-1.31,6.12-.87.52.14.91-.03,1.31.66.21.58-.62,6.69-.87,7.65-.34,1.27-1.54,3.58-2.19,4.81-3.23,6.17-11.37,12.42-18.36,13.55-.96.15-5.45.7-5.9.44-.45-.44-.12-1.2-.22-1.75ZM290.52,242.34l15.67-2.07c-5.2.88-10.44,1.47-15.67,2.07ZM315.59,254.26c1.13-.6,1.26.78.44.87-.05,0-.88-.64-.44-.87ZM317.34,257.32v-.87l.44.44v.44h-.44ZM322.15,258.19l2.84.66c-.77.8-3.24.97-2.84-.66ZM350.78,230.21c-20.86.87-42.15-1.4-62.95.44l-9.18-1.09-1.97-13.33c13.05.23,25.69,3.54,38.47,5.68,2.43.41,15.33,1.06,15.96,2.4l.22,5.03c.55-2.18-.02-9.59,2.19-3.06l1.09-1.97.87.44.22,4.59.87-4.81,1.31,3.5c.61-5.31,2.08-3.3,2.19.87l.87-3.93,1.09.66.66,2.84c.18-3.32,1.28-4.4,1.75-.44l.22-1.97h1.31l.66,2.84.44-3.06,1.31,2.19c1.61-4.05.81.83,3.06.87,2.12.32.18-1.39.87-1.75.55-.28,7.34.25,8.52.44l-10.05,2.62ZM350.56,226.72c1.45-.64,1.18,1.29.44,1.31-.22,0-1.06-1.04-.44-1.31ZM302.91,218.41c-1.04-.85-.48-.62,0-1.31,3.13-4.52,18.77-10.65,22.29-13.99.89-.84,1-1.38,0-2.19-2.26-.93-9.65,2.4-10.49,2.19-.55-.14-.91-2.15-1.75-1.75-.73.35.5,1.24.22,1.53-1.47,1.5-10.8,2.2-13.33,2.84-5.25,1.33-10.96,4.28-16.39,3.72,11.89-14.43,21.63-32.2,33.66-46.34,1.27-1.49,3.25-3.69,5.25-4.15v-.44c-.41-.32.35-.72-1.31-1.31-14.16,15.58-32.35,26.55-49.18,38.91l8.09-42.62c-5.5-2.75-4.74,4.15-6.12,6.99-3.01,6.23-7.6,12.47-11.58,18.14-2.28-.68-8.01-41.88-8.09-46.78,3.22-2.07,2.09,1.28,3.06,3.06l.87-3.72-3.93-.66c.03-.53-1.02-1.5.22-2.19,4.94-.18,9.8.6,14.64,1.31,5.97.88,10.13,2.13,15.74,3.93,33.33,10.71,59.32,36.13,70.82,69.07.94,2.7,2.03,5.41,3.06,8.09l1.97,15.96-57.7-8.31ZM277.99,153.71c1.93,0,.7,3.58-.44,3.93,1.34-2.43-2-2.65.44-3.93ZM252.2,130.11c-.37-.18-.34-1.79,0-2.19,1.09.76.48,1.22,0,2.19ZM198.87,213.16c.46.25-.02,1.05.44,1.31.25.14,4.3.33,5.03,1.97-.03.26-4.77,1.56-5.03,1.53-.93-.1-13.93-8.79-15.74-10.05-.5-.35-2.94-3.18-4.37-3.93,6.58,2.81,13.42,5.75,19.67,9.18ZM199.74,213.16c-.5-.25.07-1.41-.44-1.75-.05-.03-.82.9-.87.87-5.29-2.63-10.49-5.64-15.74-8.31-.44-.22.34-.86.44-.87,1.62-.32,27.08,6.76,30.6,7.87,2.56.8,4.59-.42,5.9,3.72-.2.62-11.65,2.26-12.9,1.97-.38-.09-5.99-3-6.99-3.5ZM218.76,211.85c-3.11-3.12-5.02-7.49-7.43-10.93l6.56-.44c-.3-.3-.56-.57-.87-.87-2.74-2.65-4.55-6.05-7.87-8.31-3.29-4.97-8.46-8.16-11.8-13.11-2.26-2.13-4.75-4.18-6.99-6.34.23-.75,2.51,1.44,1.09-1.09,3.07,1.28,11.78,9.18,3.72,4.59,1.18.72,1.55,1.9,2.19,2.84,7.96,7.5,15.68,15.23,22.73,23.61.93.95,6.89,6.63,6.99,7.21.2,1.15-.87,1.61-1.31,2.4-2.76,4.91-3.92,3.52-6.99.44ZM209.14,191.96l-3.5,1.09c-.3-.43-.58-.9-.87-1.31l4.37.22ZM207.39,196.12s-.15-.83.22-.87c5.93-.71,6.99.6.22,1.31-.02-.03-.51.07-.44-.44ZM212.86,197.86c-1.13.3-2.61-.46-3.72.44-.02-.02-.17-.09-.44-.44.52-2.15,8-1.01,4.15,0ZM233.4,186.06c-.28-.09-1.77-4.74-1.97-5.46-.29-1.07.91-1.65.87-1.75-.05-.17-1.8-.3-2.19-1.31-.03-.07.9-.81.87-.87-.21-.45-1.11.01-1.31-.44-.67-1.5-.69-3.75-.87-4.81-.08-.44-2.52-2.31.22-2.4.88-.03,8.31,10.71,8.52,12.02.29,1.73-.95,3.51-2.24,4.43.21.02.45.07.71.16,1.09.35-.19,6.75-.87,7.87-.26-1.27-2-5.76-1.13-7.42-.23.04-.44.04-.62-.01ZM225.97,164.64c5.42,1.48,2.05,7.36.22,2.4-.57-1.53,1.56-.27-.22-2.4ZM224.66,161.14c.97-.1,1.86,2.33,2.19,3.06-1.32.74-3.8-2.9-2.19-3.06ZM223.35,157.21l1.31,3.5c-.52.2-2.6-2.78-1.31-3.5ZM246.08,147.59c2.39-.6,2.39,1.92,0,1.31-.69-.17-.69-1.14,0-1.31ZM246.52,145.41c.72-.22,1.56.24,1.53,1.09-1.55,1.04-3.15-.6-1.53-1.09ZM245.64,149.34c.47-.16,2.4,0,2.4.66,0,1.58-4.73.12-2.4-.66ZM245.21,151.53c.12-.08,2.84.15,2.84.66l-2.4.66c-.89.16-.86-1.03-.44-1.31ZM245.21,153.27c3.4-1.2,4.08,2.8-.87,1.75-.31-.17.5-1.62.87-1.75ZM237.78,179.5c-2.98-4.83-6.5-9.32-9.4-14.21-1.32-2.23-5.4-12.71-7.21-12.46-.09.01-1.45.87-1.53,1.09l6.64,33.18c-1.28-7.31-2.07-16.54-1.83-20.72-.12-.17-2.51.08-.66-3.06.89,1.12.72,1.97.66,3.06,1.47,2.03,3.29,5.71,4.37,8.52,1.17,3.04,5.92,17.64,6.12,20.11.07.87-.48,5.25-1.09,5.46-2.13-1.27-4.47-2.67-5.46-5.03-.47-1.11-.91-2.64-1.33-4.44l.89,4.44-3.06-.66c-5.17-2.85-37.51-29.83-40-29.73-.08,0-1.5.58-1.53.66-.19.47,6.1,6.29,6.99,7.43,5.53,7.02,11.49,15.49,16.57,22.89.01.02.03.04.04.06,3.16,4.59,6.62,9.35,8.96,14.43l-43.28-11.37c-.82.94-2.32,1.57-.87,2.62,2.56-.02-.27-2.44,3.5-1.75l-1.53,2.4c1.81.89,24.27,14.61,22.95,15.96l-57.27,8.31c4.81-54.78,53.09-96.44,107.1-98.8-.55,17.17-4.56,34.86-8.74,51.58ZM221.16,155.9c-1.26-.44-.49-2.2.44-2.19,1.36.02,1.1,2.72-.44,2.19ZM177.23,202.24l-.44-.87c1.49-.62,1.11.58.44.87ZM198.43,240.7c8.1,1.06,16.66,2.04,24.7,2.19-.03.4.17,1.12-.22,1.31h-2.62l-32.13-4.81c3.68-.55,6.01.76,10.27,1.31ZM187.5,253.38c4.21,1.14,1.08.21,2.62-.87,2.23-1.58,18.23-8.64,20.55-8.74,2.16-.1,6.43,1.86,8.96,1.53.38.48-2.3,3.43-2.84,3.72-1.27.67-26.54,6.55-27.98,6.56-.81,0-1.19-.79-1.53-.87.12-.13-.23-1.04.22-1.31ZM217.88,248.79c.64-.69,2.51-2.68,3.28-2.84,3.32-.69,5.11,2.74,5.9,5.46l-41.75,42.19,32.57-44.81ZM234.93,275.68c-.19-.14-1.04.24-1.31-.22l2.19-.44c-3.38-.9-2.43-4.52-.44-6.56-.15,3.37,1.35,5.99,1.31,9.4-.62-1.76-.48-1.27-1.75-2.19ZM252.42,348.9c.5-.74,15.04-1.12,17.7-1.53,32.62-5,66.17-31.1,80.65-60.33,4.22-8.53,7.15-16.04,9.18-25.35.69-3.16,1.82-6.63,2.19-9.84.31-2.7-.07-16.77.44-17.49.25-.36,2.37-.36,2.62,0,.48.68.17,14.79,0,16.61-1.76,18.99-11.98,42.62-24.04,57.27-21.52,26.12-54.85,43.24-88.96,43.5-.13-.06.14-2.72.22-2.84ZM374.39,257.32s-1.09.25-.87-.66l.87-.22,2.62.22-2.62.66ZM368.7,260.81c-.4,1.22,6.2,1.89,6.12,2.4-1.37.77-9.7-1.54-10.05-2.19l3.5-28.2c.72,0,1.47.05,2.19,0,1.62-.06.53,3.3.44,4.81-.5,7.75-.8,15.51-2.19,23.17ZM377.45,230.21c-1.3-1.06-3.26-.92-4.81-1.31.68-1.17,5.98.38,6.12.66.14,1.09-.98.48-1.31.66ZM368.7,213.82l1.75,14.21c-1.04-.33-3.99-.22-4.37-1.09.66-1.95-1.56-12.89-1.31-13.55.33-.87,8.33-1.21,9.62-1.09-.98.32-5.5,1.04-5.68,1.53ZM356.03,186.94l-12.68-18.58,3.5-1.97c4.36,5.95,8.25,12.03,12.02,18.36.57-.73,5.4-3.82,5.9-2.84l-8.74,5.03ZM356.03,171.85l2.84-1.97c1.28.82-2.4,2.82-2.84,1.97ZM353.4,170.54l4.15-2.84c1.03,1.14-3.4,2.82-4.15,2.84ZM352.09,167.04l2.84-1.97c1.47.64-2.48,2.5-2.84,1.97ZM349.47,165.3l4.59-2.84c.46,1.34-4.05,3.77-4.59,2.84ZM347.28,165.3l5.46-4.59c-.17,1.93-3.74,4.05-5.46,4.59ZM347.72,161.8l3.28-2.84c1.18.89-2.78,2.59-3.28,2.84ZM346.41,165.51c-.78.02-3.08,2.2-3.28,2.19-.63-.04-6.94-8.61-8.52-9.4l3.5-2.84c2.99,3.15,5.71,6.58,8.31,10.05ZM359.09,198.52c1.31,3.56,7.95,27.08,5.9,28.63-3.81,2.9-2.7-5.56-2.84-6.34-3.01-17.04-13.01-38.39-23.61-52.02-12.98-16.7-31.7-27.54-50.93-35.63-.68-.6,1.19-2.16,1.31-2.19,3.06-.68,28.51,14.28,32.35,17.05,16.57,11.96,30.78,31.33,37.81,50.49ZM126.08,217.97c-.89.49-.84.35-1.75.44l1.75-.44ZM127.39,214.48c-.59-.05-3.5.56-2.84-.87,1.89-.12,9.96-.2,10.71,1.53.88,2.02-1.54,9.43-1.31,12.02-1.44.28-2.93.61-4.37.87l1.75-12.9c-.38-1.06-2.98-.57-3.93-.66ZM127.39,256.01c2.17,1.15.54.93.87,1.31l-5.25-.22,4.37-1.09ZM128.71,258.19c.14.22.59-.67,1.31,1.75l-6.56-.66,5.25-1.09ZM135.26,251.42c-.22-2.06-.94-16.77-.44-17.49.29-.41,3.09-.49,3.5.44.52,1.17.13,14.69.44,17.49,2.03,18.25,7.48,28.88,14.71,40.64-10.26-17.41-15.67-37.72-13.62-57.91,5.24-.43-2.1,6.52,5.9,3.72-1.49-.57-3.89-.88-2.84-2.84,14.5.36,29.23,1.69,43.5,4.37,1.1.21,10.51,1.84,10.49,2.4-8.01,5.59-16.1,11.58-24.48,16.17l1.09,1.09,43.06-9.4c-13.46,17.7-25.51,36.53-40.66,52.9.12.38.88.6.87.66,15.69-14.87,33.53-27.02,50.93-39.78l-8.52,43.5,2.62.44c-4.01-2.14-.19-.87.44-1.31l15.08-26.45c1.13-.03,3.86,18.67,4.15,20.55,1.75,11.12,3.17,22.47,4.37,33.66.46,4.34.42,8.83.87,13.11-28.13.16-54.7-12.39-74.75-31.47-.14-.13-.29-.29-.44-.44-5.7-5.51-10.83-11.72-15.24-18.42,2.46,3.92,5.08,8.06,7.81,12.74,2.3,2.08,4.29,4.43,6.56,6.56,20.55,19.23,47.95,32.07,76.5,32.35.03.66,1.6,2.4.22,3.06-2.04.82-21.34-1.88-24.7-2.62-10.91-2.42-26.17-9.7-35.63-15.74-2.54-1.62-15.57-11.3-16.61-13.11-.81-1.41,1.73-.37.87-1.75-3.27.14-3.6-1.11-5.9-3.06-.07-.06-.37-1.69-.44-1.75-.15-.14-2.26-.92-2.62-1.31-13.76-14.54-24.98-41.17-27.1-60.98ZM344.44,316.77l3.72,3.28c-1.16.01-4.05-1.9-3.72-3.28ZM334.82,333.82c-.9-1.17-3.18-1.64-3.06-3.5,1.02.5,3.29,2.14,3.06,3.5ZM364.77,295.57c-.12.28-5.78-1.34-5.46-2.4l5.46,2.4ZM139.63,171.42c-1.05,2.24-7.8,12.12-6.78,13.77.14.23,4.27,2.23,5.03,2.19-1.91,1.39-1.57.49-3.93.44,1.18-1.15-1.2-2.25-1.53-2.19-2.68.52-7.34,20.61-8.09,24.04-.93,4.25-2.12,8.32-2.62,12.68-.29,2.5-.28,4.93-.44,7.43-.04.58.03,1.17,0,1.75-.09,2.03-.45,4.01-.44,6.12.03,3.64.26,6.44.87,10.05.27,1.59-.98,4.11,1.75,3.5v.44c-3.51.35.47,9.98.44,12.9.28.24,3.27-.51,3.93-.66,2.86-.63,5.48-2.6,8.74-1.75,3.84,19,12.61,36.19,25.35,50.71.87.99,1.59,2.23,2.62,3.06-1.84,1.77-2.26,1.56-3.5,2.19l-7.43-7.87c-2.14,1.9-4.07,3.2-6.56,4.59.98,1.02,1.7,2.23,2.62,3.28.61.69,1.26,1.87,2.19,2.19l-.44.87c-38.31-40.52-40.6-104.53-12.24-151.25,1.23.55.85.64.44,1.53Z"/>
  <path class="cls-1" d="M299.2,346.93c-3.66,1.68-17.62,7.07-20.98,7.43-.14.02-.29,0-.44,0-2.48.93.82,11.46,2.62,7.21.19-.45-1.12-3.74-1.31-4.59,1-.7.77-.22,1.31.44.04,3.83.55,4.25,4.15,3.5,1.44-1.06.06-1.27-.22-2.19.72-.15.12-1.07,1.31-.87l.66,2.19c1.43.36,1.03-.84,1.09-.87.03-.02.03-.15.44-.44.47,1.52,1.24.44,1.31.44.49-.02.13.31,1.31,0,.35-.09.53-.3.87-.44.78-.32,1.48-.24,2.19-.87.4-.36,1.53-.3,0-1.75.12-.54-.36-1.62.44-1.75.62,4.52,3.51,2.7,6.56.87.2-.12.56.28,1.31-.44,1.46-1.39.31-1.72-.44-3.5-.64-1.53-1.83-2.74-2.19-4.37ZM296.57,353.05c.22-.85-.46-1.96.66-2.62,1.02.95,1.19,2.41,1.97,3.5-.68,3.38-1.2.46-2.62-.87Z"/>
  <path class="cls-1" d="M273.18,355.24c-.2-.07-3.4.79-4.15.87-5.38.62-10.74,1.55-16.17,1.75.13.99.81,2.69.87,3.5.04.55-1.15,2.38,0,3.5.91-.85.04-2.13.87-3.06.02.02.14-.03.44.44.27.42,1.04,4.35.87,0,.28.01.7-.07.87,0,0,.29.02.59,0,.87-.05.96.29,1.19-.87,1.53.32,1.12,10.11-.29,11.8-.66.5-.11-.23,1.14.87-.44.28-.4.12-.6.87-.44.35,1.38,3.42.3,4.59,0,.8-1.11-.17-2.72-.22-3.5-.06-.92.4-3.99-.66-4.37Z"/>
  <path class="cls-1" d="M206.3,357.42l.22-3.28-1.97,2.4.66-3.72c-.49-.35-1.71,1.41-1.75,1.53-1.05,2.87.79,3.13,3.5,3.93l1.31-3.72-1.97,2.84Z"/>
  <path class="cls-1" d="M177.67,337.75c-.89,1.07-1.55,2.34-2.62,3.28,1.16,2.79,1.83,0,2.19-.22l.44-3.06Z"/>
  <path class="cls-1" d="M218.76,357.21c-.23-.54-.61.4-.87.22l-.87,3.28,1.09.66c.36-.02.17-.84.22-.87.14-.92.82-2.37.44-3.28Z"/>
  <path class="cls-1" d="M223.57,359.83c-.05.37-.87.17-.87.22l-.22-.87c-1.44,1.49-.28,5.18,1.09,2.62.81-1.5.27-4.53.87-6.34-1.77.83-.78,3.65-.87,4.37Z"/>
  <path class="cls-1" d="M217.01,357.42s.11-.96-.22-.87c-.86.21-1.29,3.21-1.97,3.93,3.06.3.98-.98,2.19-3.06Z"/>
  <path class="cls-1" d="M212.64,358.3c-.08.42.13.76-.44,1.09.43.92,1.44.49,1.75.66l.44-4.59c-.42.21-1.72,2.68-1.75,2.84Z"/>
  <path class="cls-1" d="M210.02,355.02l-1.75,3.72c2.39.33,1.38-.91,2.19-3.06-.03-.02.16-1.22-.44-.66Z"/>
  <path class="cls-1" d="M219.63,360.48c-.94,3.99,1.76.1,2.19-3.06-.72.12-2.1,2.72-2.19,3.06Z"/>
  <path class="cls-1" d="M201.27,353.93c-1.24,2.72,1.03,3.29,1.31.44.21-2.1-.54-2.13-1.31-.44Z"/>
  <path class="cls-1" d="M225.32,359.17c-.39,5.52,1.04,5.53.44.44-.04-.33-.06-.48-.44-.44Z"/>
  <path class="cls-1" d="M188.81,345.18c-.51.6-1.69,1.52-1.97,2.19-.24.56-.82,1.09-.22,1.75.67.37,1.22-1.24,1.53-1.75.21-.34,1.22-2,.66-2.19Z"/>
  <path class="cls-1" d="M187.07,344.31l-2.4,3.5s-.12.56.66.44c.33-.05.86-1.05,1.09-1.31.09-.1,1.75-2.61.66-2.62Z"/>
  <path class="cls-1" d="M190.56,351.3c.14-.78.42-1.46.66-2.19.34-1.07.5-.45,0-1.75-.4,1.1-2.5,3.03-.66,3.93Z"/>
  <path class="cls-1" d="M190.78,346.93c-.62-.55-.02-1.48-1.75.87-.24.33.02,1.38-1.31,1.53,1.66,2.33,1.63-1.96,3.06-2.4Z"/>
  <path class="cls-1" d="M198.87,355.24c.79-.53.62-.96.66-1.75.02-.43-.01-.88,0-1.31-.27.62-3.27,2-.66,3.06Z"/>
  <path class="cls-1" d="M321.71,339.06c-.17,1.13,1.3,2.94,2.19,3.5.8-.31-1.55-3.4-2.19-3.5Z"/>
  <path class="cls-1" d="M211.33,356.55l-.87,2.84,1.31-.44c.03-.36-.04-.74,0-1.09.13-1.12-.4-1.21-.44-1.31Z"/>
  <path class="cls-1" d="M183.13,342.56l-2.19,2.19.87-2.62-1.97,1.53,1.09-2.84-2.84,2.62c2.05,2.13,4.2,3.93,5.25,0,.15-.55.89-.86-.22-.87Z"/>
  <path class="cls-1" d="M184.22,343.44l-1.75,2.84c-.2.92.83.59.87.66.82-1.28,2.92-3.96.87-3.5Z"/>
  <path class="cls-1" d="M192.09,350.87c.14.29-.24,1.02.22,1.31.25.05,1.4-2.19,1.53-2.62.15-.5.56-1.34.22-1.75l-1.97,3.06Z"/>
  <path class="cls-1" d="M177.67,343c.07-.95.6-1.13.87-2.19-2.51,1.64-1.23,1.62-.87,2.19Z"/>
  <path class="cls-1" d="M173.73,340.16l.66.66c.35-.08.56-1.62.66-1.75-.04.07-1.15.69-1.31,1.09Z"/>
  <path class="cls-1" d="M175.92,337.75c-.55.68-.63.97-.87,1.31.08-.14.71-.04.87-1.31Z"/>
  <path class="cls-1" d="M126.08,272.18c.07.24-.07.66,0,.87.21.61.42.83.44.87.42,1.09.84,1.24.87,1.31.05.12-.06.32,0,.44.04.08-.62,1.24.22,1.75.36-.34.59-.72,1.09-.87-.07.37.11,1.12,0,1.31-.03.05-.87-.14-.87.22-.03,1.64.87,1.02.87,1.09.05.42-.09.93,0,1.31.06.26-.07.67,0,.87.12.33.39,1.21.44,1.31.24.46.4,1.2.87,1.31.41.1,2.46-.65,3.06-.87.75.63-.45.67-.44,1.31-1.98-.19-1.97.29-1.75,1.75.16,1.05.42.83.44.87.11.4.3.91.44,1.31,1.28-.08,2.35-.92,3.5-1.31.83-.29,4.18-.92,4.37-1.53l-7.43-21.86c-.43-.38-3.19.47-3.93.66-.14.04-.31-.04-.44,0-5.29,1.81-3.23,2.34-2.19,6.56.15.62.35,1,.44,1.31ZM131.33,267.59c-.68.47-1.17.94-1.75,1.53l-3.93.22,4.37-1.97c.44.05.58-.89,1.31.22Z"/>
  <path class="cls-1" d="M136.57,292.29c.9-.71,2.36-2.12,3.06-3.06-.98.14-5.71,2.66-6.12,1.97-.9-1.75,7.31-2.99,5.9-3.72l-6.78,2.62c.57,1.21.92,3.15,1.97,4.37-.05-2.37,1.25-1.62,1.97-2.19Z"/>
  <path class="cls-1" d="M139.42,295.35l-2.84.87c-.99,2.26-.05,1.29.87,3.5l3.06-2.4-3.5.44,2.4-2.4Z"/>
  <path class="cls-1" d="M138.76,302.34c.59,1.07,1.65,2.19,2.19,3.06l1.75-1.97c-6.44,1.18,2.85-5.03-3.93-1.09Z"/>
  <path class="cls-1" d="M139.2,292.94c-.51-.59-.8.06-1.31.22-1.04.32-2.32,1.13-3.06,1.97.79,1.11.94.17,1.75-.22.44-.21,2.67-1.73,2.62-1.97Z"/>
  <path class="cls-1" d="M142.26,307.15l2.4-2.62-3.28,1.75c.36.55.84.82.87.87Z"/>
  <path class="cls-1" d="M144.01,309.77l.87-2.4-2.19.22c.09.13.39.93,1.31,2.19Z"/>
  <path class="cls-1" d="M137.89,301.03l3.93-2.4-3.93,1.53c.08.18-.09.7,0,.87Z"/>
  <path class="cls-1" d="M230.56,360.05c-.06-.03.17-.69-.22-.87l-1.75,3.5-.66-3.5c-2.83,4.9,3.18,6.56,2.62.87Z"/>
  <path class="cls-1" d="M248.92,364.42s-.14.61.87.44c3.06-4.24-2.79-4.88-.87-.44Z"/>
  <path class="cls-1" d="M230.56,363.76c.81.8,1.24-.67,1.31-.66.1-1.08.07-1.62-.44-2.62l-.87,3.28Z"/>
  <path class="cls-1" d="M251.55,363.54c-.02.35-.07,1.17,0,1.31,1.22-.35,1.04-2.02.66-3.06-1.02-.09-.62,1.1-.66,1.75Z"/>
  <path class="cls-1" d="M243.46,362.23l.22,2.62c.49.07.36-.28.44-.44.09-.18.31-2.39-.66-2.19Z"/>
  <path class="cls-1" d="M244.77,361.36c-.62.32.03,1.75.44,1.75.82,0,1.05-2.5-.44-1.75Z"/>
  <path class="cls-1" d="M149.47,274.8c-.94-1.85,1.6-1.78,2.4-2.84-.12-.35-.71-.21-1.09-.22-3.33-.05-3.15,1.27-2.19,3.93l6.34-2.4-5.46,1.53Z"/>
  <path class="cls-1" d="M168.71,296.66c-2.88,1.87-4.84,4.25-8.09,2.4l2.4,2.84c1.15-2.01,3.64-2.57,5.25-3.93.18-.15,1.73-1.32.44-1.31Z"/>
  <path class="cls-1" d="M170.02,310.65c.33.08,4.72-4.33,4.37-5.25-.59.93-7.01,4.62-4.37,5.25Z"/>
  <path class="cls-1" d="M149.91,277.86c.73,4.15.94,3.86,4.15,1.53-2.42-.12-2.43.5-4.15-1.53Z"/>
  <path class="cls-1" d="M170.67,261.03c-1.08-1.52-1.66-1.28-3.28-1.53-.73,3.58,1.19,1.59,3.28,1.53Z"/>
  <path class="cls-1" d="M145.32,260.38c-.05-.07-.7-.03-.44-.87-.82,1-.64,1.36-.22,3.5l3.28-1.97c-1.72-.72-1.56.79-2.62-.66Z"/>
  <path class="cls-1" d="M150.13,266.72c-.5-.15-3.61-.37-3.72-.22-1.39,1.92,2.82,1.63,3.72.22Z"/>
  <path class="cls-1" d="M145.32,248.79c-.52.09-2.29-.69-2.4-.66-.74.23-1.05,5.12,2.4.66Z"/>
  <path class="cls-1" d="M159.31,297.32c.9.74.72-.88,1.75-1.53l-.44-.44c-.33.25-3.04.54-1.31,1.97Z"/>
  <path class="cls-1" d="M157.12,286.17c-.44.17-1.68.36-2.19,0,.15.75-.1,1.15-.44,1.75.56.32,1.83-.94,2.62-1.31v-.44Z"/>
  <path class="cls-1" d="M149.25,255.79c-.05-.28-2.07-.33-2.4-.22-2.02.65,1.27,1.55,2.4.22Z"/>
  <path class="cls-1" d="M144.01,244.2v-.87c-1.01.06-1.56-.72-2.19.22-.03,1.09,1.49.59,2.19.66Z"/>
  <path class="cls-1" d="M158,291.41v-.44c-.15.1-1.71.32-1.75.66.46,1.83,1.64-.17,1.75-.22Z"/>
  <path class="cls-1" d="M143.13,246.61c-.02-.06-1.04-.68-1.09-.66-1.57.79,1.72,2.63,1.09.66Z"/>
  <path class="cls-1" d="M173.3,313.71l1.31-.44c-.02-.14,0-.3,0-.44v-.87s-.85.4-.87.44c-.36.52-.32,1.06-.44,1.31Z"/>
  <path class="cls-1" d="M180.51,261.69c.72-.33-.21-1.88-.44-1.75-.47.27-.38,2.12.44,1.75Z"/>
  <path class="cls-1" d="M192.31,258.63c.72-.33-.21-1.88-.44-1.75-.47.27-.38,2.12.44,1.75Z"/>
  <path class="cls-1" d="M142.48,253.38c-.68.3.29,1.58.87,1.31.68-.31-.29-1.57-.87-1.31Z"/>
  <path class="cls-1" d="M167.61,307.15c-.23.53-.72.21.22.87.4-.18.14-.8.22-.87.42-.4,1.85-.35,1.09-1.31-.72,0-1.28.72-1.53,1.31Z"/>
  <path class="cls-1" d="M144.22,240.27c-.1-.04-1.32.7-1.97.66.03.71,3.48,0,1.97-.66Z"/>
  <path class="cls-1" d="M166.52,304.97s-.72.44-.44.87c.71,1.09,1.47-.75.44-.87Z"/>
  <path class="cls-1" d="M153.4,255.13c.66-.13-.27-1.39-.44-1.31-.42.2-.45,1.49.44,1.31Z"/>
  <path class="cls-1" d="M185.32,261.25c.52-.23.23-1.11-.44-.87-.53.19-.2,1.16.44.87Z"/>
  <path class="cls-1" d="M166.08,262.13c.61-.08-.15-1.35-.44-1.31-.61.08.15,1.35.44,1.31Z"/>
  <path class="cls-1" d="M163.9,302.78c-.53.19-.2,1.16.44.87.52-.23.23-1.11-.44-.87Z"/>
  <polygon class="cls-1" points="163.68 284.2 163.46 283.55 162.8 284.2 163.02 284.42 163.68 284.2"/>
  <polygon class="cls-1" points="143.13 256.66 143.35 256.88 144.01 256.66 143.79 256.01 143.13 256.66"/>
  <polygon class="cls-1" points="152.09 247.7 152.31 247.04 151.66 246.83 151.87 247.48 152.09 247.7"/>
  <polygon class="cls-1" points="152.97 252.95 153.19 252.29 152.53 252.07 152.75 252.73 152.97 252.95"/>
  <path class="cls-1" d="M181.6,319.83c1.06,2.04.81,3.65,3.06,1.31.3-.32,2-2.19,1.09-2.62-5.42,6.31-2.43-.03-.87-3.06l-3.28,4.37Z"/>
  <path class="cls-1" d="M199.09,330.76c.11-2.05,2.58-3.4,1.53-5.25-.96,1.57-1.69,4.43-3.72,4.81.14.05.02,1.82,2.19.44Z"/>
  <path class="cls-1" d="M180.73,318.96c.11-.09,1.59-2.39,1.09-2.62l-3.28,1.75v.44c1.08.86.47,1.9,2.19.44Z"/>
  <path class="cls-1" d="M217.01,339.94l1.31-4.15c-.28.88-2.08,2.19-2.19,2.4-.76,1.5-.84,2,.87,1.75Z"/>
  <path class="cls-1" d="M175.26,315.46c.27-.42.72-.6,1.09-.87.3-.23,2.41-2.38,1.97-3.06l-3.28,2.62c.11.31-.89.64.22,1.31Z"/>
  <path class="cls-1" d="M210.23,337.75c1.09.33,1.04-.45,1.09-.44l1.09-3.5-1.97,3.06c.24.08-.74.72-.22.87Z"/>
  <path class="cls-1" d="M218.98,341.25c1.12-2.59,1.47-6.03,2.84-8.74h-.44c.01,1.08-3.12,6.02-3.06,7.43.01.3.52.88.66,1.31Z"/>
  <path class="cls-1" d="M242.37,340.38c.04-.43-.02-.88,0-1.31l-1.75,5.46,1.31-.87c-.14-1.17.32-2.14.44-3.28Z"/>
  <path class="cls-1" d="M185.1,323.33c1.34,2.84,2.34.21,3.5-.87l-3.06.87h-.44Z"/>
  <path class="cls-1" d="M231,343.44c.33-1.11.23-2.41.44-3.5l-2.19,3.28c.08,1.55,1.66.22,1.75.22Z"/>
  <path class="cls-1" d="M243.68,338.63c-.06.34-.02.72,0,1.09v-1.09Z"/>
  <path class="cls-1" d="M227.94,342.78c.04-1.21.14-3.02.44-4.15h-.44c-.33,1.37-.34,2.8-1.31,3.93.07,0,.5.99,1.31.22Z"/>
  <path class="cls-1" d="M222.69,341.25l.44-3.06c-.79,2.29-2.83,1.57-.44,3.06Z"/>
  <path class="cls-1" d="M224.01,333.38l1.31-1.53c-.72-.62-1.02.15-1.31.66-.6,1.04,0,.83,0,.87Z"/>
  <path class="cls-1" d="M233.62,342.56h-.87v.44c.12-.03.36,2.43.87-.44Z"/>
  <path class="cls-1" d="M207.83,335.13c-.15.3-.38.55-.44.87.08.03-.01.1.87.44-.02-.28.05-.6,0-.87-.06-.31-.04-.49-.44-.44Z"/>
  <path class="cls-1" d="M244.55,336.44v-.87c-.6,1.2.02.83,0,.87Z"/>
  <path class="cls-1" d="M236.68,334.69h.44c-.07-.06.16-.8-.22-.87-.34-.06-.18.86-.22.87Z"/>
  <path class="cls-1" d="M192.53,327.26c0-.78.92-1.49,0-1.75-.22.28-1.34,1.03-1.75,1.31.11.09.45,2.74,1.75.44Z"/>
  <path class="cls-1" d="M189.47,325.51c.83-.87,1.1-2.12,1.75-3.06-1.2.16-2.96,3.1-2.4,3.93.38-.11.61-.91.66-.87Z"/>
  <path class="cls-1" d="M194.28,329.67c.29.46,1.03.08,1.31.22.07-.37.32-1.55.44-1.75h-.44l-.87.87c.17.12-.24.48-.44.66Z"/>
  <path class="cls-1" d="M213.29,339.06c.93.21.6-.87.66-.87.06-1.99-.08-2.34-.87-.44.07.02-.18,1.22.22,1.31Z"/>
  <path class="cls-1" d="M238.65,344.75c.48-.29.37-2.68-.44-2.19-.48.29-.37,2.68.44,2.19Z"/>
  <path class="cls-1" d="M236.25,343c.32-.9.85-1.64.22-2.62-.38.86-.56,1.69-.66,2.62-.05.48-.86.75-.22,1.31,1.07.12.49-.85.66-1.31Z"/>
  <path class="cls-1" d="M176.79,316.77c-.05.32.51.86.87.87-.16-.25.33-1.12-.87-.87Z"/>
  <path class="cls-1" d="M202.37,334.26c1.14.31,2.22.86,3.28,1.31l2.19-6.34c-1.5,1.44-3.4,7.74-5.25,3.28-.21.61-.43.41-.44.44-.13.71-.81.42.22,1.31Z"/>
  <path class="cls-1" d="M224.01,341.69s-.02.23.87.44c.23-.88.24-2.29.44-3.06h-.44c-.18.75-.31,2.17-.87,2.62Z"/>
  <path class="cls-1" d="M241.93,336.44c-.08-.84.78-1.12.22-1.75l-1.09,1.75c.4.2.83.72.87,0Z"/>
  <path class="cls-1" d="M231.87,335.13c-.05-.84.76-1.13.22-1.75l-.66,2.19c.31.07.49-.12.44-.44Z"/>
  <path class="cls-1" d="M239.31,335.57c.22-.2.7-1.02.22-1.31l-.66,1.75c.49.08.41-.42.44-.44Z"/>
  <path class="cls-1" d="M191,316.77c.37.02,1.06-1.33.44-1.75-.19.29-1.01,1.72-.44,1.75Z"/>
  <path class="cls-1" d="M226.41,333.82c.91,0,1.53-1.03.44-.87-.08.01-.88.65-.44.87Z"/>
  <path class="cls-1" d="M196.46,320.27c.25-.86-.41-.83-.44-.87-1.32.8.12.71.44.87Z"/>
  <path class="cls-1" d="M207.17,326.39c.91,0,1.53-1.03.44-.87-.08.01-.88.65-.44.87Z"/>
  <path class="cls-1" d="M204.77,325.08v.87c2.09-1.76.07-.8,0-.87Z"/>
  <path class="cls-1" d="M222.91,331.2c-.95-.17-.53.68-.66.87h.44c-.21-.24.73-.59.22-.87Z"/>
  <polygon class="cls-1" points="189.69 314.15 189.25 313.71 189.25 314.58 189.69 314.58 189.69 314.15"/>
  <path class="cls-1" d="M197.78,320.7l.87.44c-.4-1.67-.34-.2-.87-.44Z"/>
  <path class="cls-1" d="M194.28,318.08l-.87.44c.09-.09.93.25.87-.44Z"/>
  <path class="cls-1" d="M218.1,313.27c2.27.75,3.55-3,.87-2.62-.49.07-2.34,2.14-.87,2.62ZM218.98,311.52c1.64-.23-.14,1.81-.66.66-.02-.04.61-.65.66-.66Z"/>
  <path class="cls-1" d="M144.44,310.65c.47.6.78,2.73,2.4,3.06.36-.04,5.08-3.87,5.9-4.37l-6.78,2.62-.44-.87,1.97-1.31c-1,.23-2.06-.01-3.06.87Z"/>
  <path class="cls-1" d="M167.83,167.26c-1.52.8,4.41,5.55,5.25,5.68-.62-2.86-3.43-3.77-5.25-5.68Z"/>
  <path class="cls-1" d="M144.01,220.38c-.2-.96,3.07-1.73-1.31-2.19.83,1.06-1.26,5.38-.66,5.9.2-.15.34-.52.66-.44,0-.38.35-.44.44-.87.6-3.04,1.85-.5,2.19-1.53.1-.32-1.29-.75-1.31-.87Z"/>
  <path class="cls-1" d="M233.4,139.29c.62-2.41-2.06-5.36.22-7.21-.21-.3-2.06-.34-2.4-.22-.19.07-.42.5-.66.66,2.4.61,1.22,4.94,2.84,6.78Z"/>
  <path class="cls-1" d="M175.04,160.71c-.22.07-.59-.03-.87,0-.84,1.72,2.55,4.08,3.72,5.68l-2.84-5.68Z"/>
  <path class="cls-1" d="M238.21,130.98c-.95.93-.5,4.96.44,6.12.1-.36.99-7.52-.44-6.12Z"/>
  <path class="cls-1" d="M192.75,147.15l3.93,5.68c-1.28-1.8-1.22-5.39-3.93-5.68Z"/>
  <path class="cls-1" d="M202.8,141.47c-.61.32,2.12,5.2,2.62,5.68.2-.66-1.6-6.21-2.62-5.68Z"/>
  <path class="cls-1" d="M222.04,135.79l1.31,6.56c.84-1.61-.28-5.13-1.31-6.56Z"/>
  <path class="cls-1" d="M158,191.53l-3.72-3.28c-2.11-.15,3.06,4.68,3.72,3.28Z"/>
  <path class="cls-1" d="M197.56,147.59c.31-.84-.61-2.94-1.75-2.62-.23.06-.79.72-.66,1.09l2.4,1.53Z"/>
  <path class="cls-1" d="M167.83,196.55c-2.74,1.6,1.08,4.71,0,.87,3.34,1.22,1.34-1.18,0-.87Z"/>
  <path class="cls-1" d="M153.4,195.24l-1.75-2.62c-1.12,2.1.05,1.6,1.75,2.62Z"/>
  <path class="cls-1" d="M157.78,181.25c-.6,1.14-1.98,2.5-1.09,3.5-.09-.52.84-.82.87-.87.22-.38,1.11-2.25.22-2.62Z"/>
  <path class="cls-1" d="M159.09,178.63c-1,.68.41,2,1.53,1.09.13-.8-1.06-1.41-1.53-1.09Z"/>
  <path class="cls-1" d="M189.25,151.53c.48-.24-.1-1.76-.87-1.75-1.26.01.17,2.11.87,1.75Z"/>
  <path class="cls-1" d="M184.22,155.9c-.22-.32-.25-1.62-1.31-1.75-.01.04-.66-.03-.44.66.17.53,1.3.8,1.75,1.09Z"/>
  <path class="cls-1" d="M219.2,137.1c-.15-.26-.22-1.41-.66-1.75l-.66.22c-.04.08.85,1.45.87,1.53h.44Z"/>
  <path class="cls-1" d="M164.55,172.07l-.87-.44c-.1.25-.08,1.14.22,1.31.91.22.6-.86.66-.87Z"/>
  <path class="cls-1" d="M161.49,176.88l-.87-.44c-.84,2.46.39.85.87.44Z"/>
  <path class="cls-1" d="M144.22,216.22c.49-.22.32-1.65-.44-1.31-.49.22-.32,1.65.44,1.31Z"/>
  <path class="cls-1" d="M184.66,153.06c-.57-.83-.83.21-.87.22.16.54.49.9.87,1.31-.08-.42.13-1.34,0-1.53Z"/>
  <path class="cls-1" d="M235.59,130.98c-.07.01-.73,1.18-.44,1.31.77.36,1.75-1.58.44-1.31Z"/>
  <path class="cls-1" d="M216.14,136.66h.87c-.62-1.9-.91-1.87-.87,0Z"/>
  <path class="cls-1" d="M165.43,170.32c.12,1.78.79.41.87.44-.34-.9-.2-.78-.87-.44Z"/>
  <path class="cls-1" d="M210.89,140.16l.44-.44c-.13-.22.12-1.17,0-1.31.55-.15.92-.69,1.75-.44.79,1.8,1.53,3.82,2.62,5.46-.84-2.35-.54-6.19-2.62-6.34-.78-.06-1.75.13-2.19.87-.11-.06-.31.04-.44,0l-1.31.22,1.31.66c.4.43.33,1.1.44,1.31Z"/>
  <path class="cls-1" d="M155.59,186.5c.52-.23.23-1.11-.44-.87-.53.19-.2,1.16.44.87Z"/>
  <path class="cls-1" d="M205.64,141.03l.44-.44s-.05-.7-.66-.44c-.71.74.21.83.22.87Z"/>
  <path class="cls-1" d="M145.54,210.98c.52-.23.23-1.11-.44-.87-.53.19-.2,1.16.44.87Z"/>
  <path class="cls-1" d="M241.49,131.85c.14-1.31-1.07-1.18-.87,0h.87Z"/>
  <path class="cls-1" d="M191.44,148.9c.52-.23.23-1.11-.44-.87-.53.19-.2,1.16.44.87Z"/>
  <path class="cls-1" d="M180.95,157.21c.61-.08-.15-1.35-.44-1.31-.61.08.15,1.35.44,1.31Z"/>
  <polygon class="cls-1" points="218.76 146.06 218.98 146.28 219.2 145.62 218.54 145.41 218.76 146.06"/>
  <polygon class="cls-1" points="216.79 146.28 217.23 146.28 217.23 145.84 216.79 145.41 216.79 146.28"/>
  <polygon class="cls-1" points="215.04 146.72 215.48 146.72 215.48 146.28 215.04 145.84 215.04 146.72"/>
  <polygon class="cls-1" points="152.31 220.81 152.53 221.03 152.75 220.38 152.09 220.16 152.31 220.81"/>
  <path class="cls-1" d="M150.34,195.68c-.38.03-.14.78-.22.87,0-.09,1.62.27.22-.87Z"/>
  <polygon class="cls-1" points="198.43 143.22 197.99 142.78 197.99 143.66 198.43 143.66 198.43 143.22"/>
  <polygon class="cls-1" points="154.06 211.63 154.28 211.85 154.93 211.2 154.28 210.98 154.06 211.63"/>
  <path class="cls-1" d="M172.42,163.77s.13-.88-.22-.87l-.66.66c0,.35.85.17.87.22Z"/>
  <path class="cls-1" d="M147.28,203.11c-.21,1.21-2.04,4.54-1.97,5.46.08,1,1.25.19,1.31.22.32.05.5-.12.44-.44-.12-.59-1.13-1.32.22-2.19l2.84,1.09c-2.46-1.48-2.34-1.54-2.84-4.15Z"/>
  <path class="cls-1" d="M244.99,131.2c.11-.83-.47-.7-1.09-.66-1.26.08-.95,4.87,0,6.12.73-1.82-.62-4.23,1.09-5.46Z"/>
  <path class="cls-1" d="M148.81,214.69l-4.15-2.4c-1.73,1.89,3.86,3.04,4.15,2.4Z"/>
  <path class="cls-1" d="M220.73,149.34c1.36.44,1.95-2.55.44-2.62-1.09-.05-1.66,2.23-.44,2.62Z"/>
  <path class="cls-1" d="M170.45,164.64c-1.67.77-.93,1.64.66,1.75v-.44c-.23-.17-.48-1.29-.66-1.31Z"/>
  <path class="cls-1" d="M229.03,133.6c.81.31.88-1.17.44-1.31-.15-.05-1.1,1.05-.44,1.31Z"/>
  <path class="cls-1" d="M227.5,134.04c-.13-.26.29-1.03-.66-.87-.36.22-.23.91-.22,1.31l.87-.44Z"/>
  <path class="cls-1" d="M224.88,134.04c.9-.37,1.33-1.24,0-.44-.7.42-.8-.51-.87,1.31l.87-.44v-.44Z"/>
  <path class="cls-1" d="M163.24,174.69c-.07,0-1.06.34-1.31.44l1.31-.44Z"/>
  <path class="cls-1" d="M178.54,158.08l.44-.44s-.02-.69-.66-.44c-.72.71.2.83.22.87Z"/>
  <path class="cls-1" d="M186.63,152.4c.61-.08-.15-1.35-.44-1.31-.61.08.15,1.35.44,1.31Z"/>
  <polygon class="cls-1" points="220.51 145.62 220.73 145.84 220.94 145.19 220.29 144.97 220.51 145.62"/>
  <polygon class="cls-1" points="172.42 177.1 172.64 177.32 173.3 177.1 173.08 176.44 172.42 177.1"/>
  <polygon class="cls-1" points="220.29 134.91 219.85 134.48 219.85 135.35 220.29 135.35 220.29 134.91"/>
  <polygon class="cls-1" points="164.99 188.9 165.21 189.12 165.43 188.47 164.77 188.25 164.99 188.9"/>
  <path class="cls-1" d="M148.81,201.36v-.44c.03-.14-.04-.31,0-.44h-.44l-.44.66c.15.4.78.14.87.22Z"/>
  <path class="cls-1" d="M336.35,175.57l1.75-.44c-.93-1.36-1.27-.81-1.31-.87-.04.35-.3.52-.44.87l-4.81,3.72c1.65-.16,3.99-1.93,4.81-3.28Z"/>
  <path class="cls-1" d="M354.28,206.83c1.02-1.28-1.43-2.47-2.19-.22v.44c.53-.21,1.76.32,2.19-.22Z"/>
  <path class="cls-1" d="M356.46,214.04c-.28.03-.6-.05-.87,0-.43.08-2.09.48-2.19.66.52,1.74,2.93.53,3.06-.66Z"/>
  <path class="cls-1" d="M357.56,221.47l-1.31,1.75c1.11-.67,3.33.35,1.31-1.75Z"/>
  <path class="cls-1" d="M329.58,197.86l.87,2.19c1.17-.32-.17-2.54-.87-2.19Z"/>
  <path class="cls-1" d="M355.15,208.79c-.08-.09.16-.82-.22-.87-.6-.08-.87.7-1.97.87v.44c.65-.12,1.94.39,2.19-.44Z"/>
  <path class="cls-1" d="M322.8,168.57l-1.31,2.4c1.07.65.43-.56,1.75-.66-.09-.63.35-1.39-.44-1.75Z"/>
  <path class="cls-1" d="M355.15,217.54v.44c.62-.19,1.59-.04,2.19-.66-.81-.74-1.69.16-2.19.22Z"/>
  <path class="cls-1" d="M358.21,219.94c0-.34-2.21-.24-2.62-.22l.44.44c.66-.13,1.6.26,2.19-.22Z"/>
  <path class="cls-1" d="M354.71,211.85c.35-.19,1,.18,1.31-.87-.82-.23-1.18.26-1.75.44l.44.44Z"/>
  <path class="cls-1" d="M347.72,215.57c-.13-.29-.94-.32-1.09-.22-1.4.95,1.42.94,1.09.22Z"/>
  <path class="cls-1" d="M347.5,217.54c-.53.19-.2,1.16.44.87.52-.23.23-1.11-.44-.87Z"/>
  <path class="cls-1" d="M328.27,198.3c-.9-.11-.23,2.1.44,2.19.9.11.23-2.1-.44-2.19Z"/>
  <path class="cls-1" d="M357.56,224.53c-.94.68.75,1.33,1.09.66.32-.62-.77-.89-1.09-.66Z"/>
  <polygon class="cls-1" points="348.37 223.66 348.81 223.66 348.81 223.22 348.37 222.78 348.37 223.66"/>
  <path class="cls-1" d="M347.72,221.03l.87-.44s-.54-.85-.87.44Z"/>
  <path class="cls-1" d="M345.1,211.2c.08.37.86.18.87.22v-.44s-.27-.8-.87.22Z"/>
  <polygon class="cls-1" points="345.1 209.01 345.31 209.23 345.97 208.57 345.31 208.36 345.1 209.01"/>
  <polygon class="cls-1" points="344.22 206.39 344.44 206.61 344.66 205.95 344 205.73 344.22 206.39"/>
  <path class="cls-1" d="M338.54,188.25c1.35-.97,2.63-2.03,3.93-3.06.83-.65,4.22-1.56-.44-1.31,0,.02-.39-.32,0,.44-.66,1.75-5.47,3.07-3.5,3.93Z"/>
  <path class="cls-1" d="M338.54,181.25c1.15-.92,3.65-1.08,1.97-3.06-.36.66-1.47,2.26-1.97,2.62-.92.67-2.91,1.4-3.93,2.19.02.04-1.17.82.22.87.72-.94,1.89-1.18,2.84-1.75.63-.38.72-.75.87-.87Z"/>
  <path class="cls-1" d="M338.54,176.44v.44c.12-.06,2.9-.37,0-.44Z"/>
  <path class="cls-1" d="M351.22,200.49c0,.14-.02.3,0,.44l-5.68,2.4,6.12-1.53h.44c.04-.57.99-1.18-.87-1.31Z"/>
  <path class="cls-1" d="M342.69,202.67l.22-.87h-.44c.08.08-.18.69.22.87Z"/>
  <path class="cls-1" d="M318.87,167.26c.2.59.04.38.44.87.43-.78.71-.92-.44-.87Z"/>
  <path class="cls-1" d="M338.1,191.31c-.88.12.01.42,0,.87,1.17-.48.01-.83,0-.87Z"/>
  <path class="cls-1" d="M341.16,199.61c1.54.03.42-.36.44-.87-.67-.02-.34.58-.44.87Z"/>
  <path class="cls-1" d="M339.41,195.24s-.39.67-.44.87c.8.24,1.39-.57.44-.87Z"/>
  <path class="cls-1" d="M302.26,144.09c-.17,0-.3-1.39-.87.44-.03.09-.02.34,0,.44l-2.19,4.15c1.46-.37,1.87-2.88,2.62-3.72.02-.02.52.06.44-.44,2.84,1.45-.32,2.14-.87,5.03,1,.46,2-2.31,2.19-2.84.65-1.86,1.95-2.97-1.31-3.06Z"/>
  <path class="cls-1" d="M306.41,146.28c.05,1.22-.89,1.41-1.09,1.75-.15.25-.98,1.86-.66,2.19.81-.79,1.68-1.9,2.84-2.19.86-1.12-.29-1.06-1.09-1.75Z"/>
  <path class="cls-1" d="M317.56,154.15c-.19.05-.85.4-.87.44-.34.47-.4,1.26-.44,1.31l.87.44c.32-.29.38-1.16,1.31-.87-.25-1.21-.36-.74-.87-1.31Z"/>
  <path class="cls-1" d="M293.08,139.72c-.11-.05-.11-.32-1.75-.87-.09.53.14,1.33,0,1.75l.44.44c.26-.51,0-1.53,1.31-1.31Z"/>
  <path class="cls-1" d="M308.81,148.03l-.44,1.53,1.31-.66c-.2-.21.59-.58-.87-.87Z"/>
  <path class="cls-1" d="M289.8,137.54c-1.07-.35-1.04.46-1.09.44l.44.44c-.84.66-3.71,8.57-3.28,8.74l3.72-8.74h.44s.16-.75-.22-.87Z"/>
  <path class="cls-1" d="M315.37,152.4v.44c-.02.67.57.34.87.44.18-1.16-.39-.69-.87-.87Z"/>
  <path class="cls-1" d="M300.07,143.22c-1.11-1.15-.49-.12-.87-.44v.44h.87Z"/>
  <path class="cls-1" d="M286.08,136.66v.44c.37,0,.45.33.87.44-.04-.9.08-.87-.87-.87Z"/>
  <path class="cls-1" d="M325.64,161.14l-3.93,5.68c1.38-1.3,7.48-5.04,3.93-5.68Z"/>
  <path class="cls-1" d="M331.54,169.45c.2-.28,1.5-.71,1.31-1.53l-.66-.66c-.28.5-.69,1.39-1.09,1.75-1.37,1.21-3.13,2.45-3.93,4.15,1.77-.84,3.23-2.13,4.37-3.72Z"/>
  <path class="cls-1" d="M329.58,165.08c-.26,1.3-1.5,2.27-2.4,3.06-.85.74-2.14,1.01-2.62,2.19.22-.08.69.08.87,0,.73-.33,1.21-1.35,1.75-1.75,1.31-.97,5.2-1.92,2.4-3.5Z"/>
  <path class="cls-1" d="M345.1,189.56v.44c.36-.25,1.81-.26,2.19-1.09-1.37-1.01-1.92.54-2.19.66Z"/>
  <path class="cls-1" d="M332.86,171.2c.11-.06.83-.15,1.31-.44l.87,1.75c-.03.15.05.33,0,.44-.05.13.06.33,0,.44l1.31-.44c-.25-.35.16-.78-.87-1.75-.2-.19-.17-.61-.87-.87-1.93-.72-.95.04-1.75.44v.44Z"/>
  <path class="cls-1" d="M347.72,191.74c.78-.92.52-1.1-.22-1.75l-.66,1.75h.87Z"/>
  <path class="cls-1" d="M348.81,194.8c.42-.22.53-1.26-.44-1.31-.9-.05-.41,1.76.44,1.31Z"/>
  <path class="cls-1" d="M350.34,196.77c-.15-1.53-1.09-.29-1.31-.22-1.7.54-4.28,2.09-5.68,3.28,1.88-.15,4.2-1.76,5.68-2.84.19-.14,1.04.24,1.31-.22Z"/>
  <path class="cls-1" d="M328.92,163.55c-.68-.79-1.25.2-1.31.22l.44.44.87-.66Z"/>
  <path class="cls-1" d="M344.66,186.94c.14-.11,1.43.2.66-.87-.5-.11-.64.3-1.09.44l.44.44Z"/>
  <path class="cls-1" d="M324.99,159.83l-.87.44c.31.95,1.11.36.87-.44Z"/>
  <path class="cls-1" d="M288.7,194.15c1.54.48,3.23.11,4.81.22-1.07-.43-3.87-1.28-4.81-.22Z"/>
  <polygon class="cls-1" points="204.77 213.38 204.99 213.6 205.64 212.95 204.99 212.73 204.77 213.38"/>
  <polygon class="cls-1" points="225.1 285.73 225.54 285.73 225.54 285.29 225.1 284.86 225.1 285.73"/>
  <polygon class="cls-1" points="224.22 290.54 224.66 290.54 224.66 290.1 224.22 289.67 224.22 290.54"/>
  <path class="cls-1" d="M294.17,209.23c.18,1.14-.82,4.51.44,4.81,1.59.38.47-4.94-.44-4.81Z"/>
  <path class="cls-1" d="M201.05,248.57c-.61.91,0,1.84.44,2.62.43-.85.42-2.06-.44-2.62Z"/>
  <polygon class="cls-1" points="192.53 253.6 192.31 252.95 191.66 253.6 191.87 253.82 192.53 253.6"/>
  <path class="cls-1" d="M267.28,132.29c1.19.41.67-.5.87-.87-.99-.12-.8.12-.87.87Z"/>
  <path class="cls-1" d="M264.44,131.42c-.81.31.05,3.97-.31,5.37l1.84-4.71c.19-.86-1.16-.8-1.53-.66Z"/>
  <path class="cls-1" d="M262.47,131.42l-.44.44c-.01.38.36.44.44.87h.44c0-.23,1.12-.27-.44-1.31Z"/>
  <path class="cls-1" d="M291.98,146.72c1.41-3.3,4.93-10.56,3.93-2.19l2.4-2.62c-1.8-1.15-1.84-1.27-3.93-2.19l-2.4,6.99Z"/>
  <path class="cls-1" d="M283.02,135.57c-.02-.83-2.3-1.17-2.4-1.09-.4.3-3.28,9.14-2.19,9.18,1.4-2.62,1.06-9,4.59-8.09Z"/>
  <path class="cls-1" d="M281.49,142.78c.62-1.59,1.8-3.28,2.4-4.81.09-.22.73-2.55,0-2.62-1.42,2.99-2.92,4-2.4,7.43Z"/>
  <path class="cls-1" d="M310.56,150.65c-.77.95-2.39,3.5-2.4,4.81,1.71-1.6,1.69-3.38,4.15-4.37-.44-2.93-.73-1.69-1.75-.44Z"/>
  <path class="cls-1" d="M278.65,134.91c.97-.96-1.13-.81-1.31-.87-.4-.14-2.13-.98-2.4-.87-.4.16-2.59,8.17-2.19,8.31,2.26-1.62.76-7.73,4.15-6.99.03,0-.17.31.44.44l-1.09,6.12,2.4-6.12Z"/>
  <path class="cls-1" d="M272.31,132.73c-.52.33-1.12,3.86-.87,3.93l1.75-3.06c.73-.82-.45-1.14-.87-.87Z"/>
  <path class="cls-1" d="M285.21,141.91h-.44c-.13.61-.97,1.71-.22,2.62.3.04.57-2.4.66-2.62Z"/>
  <path class="cls-1" d="M302.47,154.59c-.35.08-1.02,1.09-.44,1.31,1.6-.35,2.22-1.72.44-1.31Z"/>
  <polygon class="cls-1" points="269.69 133.6 270.78 132.07 269.69 131.85 269.69 133.6"/>
  <path class="cls-1" d="M281.93,144.97c-.32.1-1,.92-.44,1.31.83,0,1.43-1.61.44-1.31Z"/>
  <path class="cls-1" d="M284.55,163.33c-.49.22-.32,1.65.44,1.31.49-.22.32-1.65-.44-1.31Z"/>
  <path class="cls-1" d="M314.06,151.96v-.44l-1.09,1.31c.32-.21.67-.92,1.09-.87Z"/>
  <path class="cls-1" d="M288.05,146.72c-.53.19-.2,1.16.44.87.52-.23.23-1.11-.44-.87Z"/>
  <polygon class="cls-1" points="275.81 143.66 276.24 143.66 276.24 143.22 275.81 142.78 275.81 143.66"/>
  <polygon class="cls-1" points="284.11 158.52 283.89 159.18 284.11 159.39 284.77 158.74 284.11 158.52"/>
  <polygon class="cls-1" points="307.94 159.18 308.16 159.39 308.81 158.74 308.16 158.52 307.94 159.18"/>
  <polygon class="cls-1" points="312.75 161.8 312.97 162.02 313.18 161.36 312.53 161.14 312.75 161.8"/>
  <path class="cls-1" d="M278.87,147.15c-2.04.19-1.65,3.66.44,3.06.82-.24,2.07-3.3-.44-3.06ZM278.43,148.9c-.29-.44.39-.88.44-.87,1.03.13.27,1.96-.44.87Z"/>
  <path class="cls-1" d="M245.21,198.74c-2.7.25-5.83,1.42-8.52,1.97,3.65.28,8.2-1.01,11.58-1.97-1.01.06-2.06-.09-3.06,0Z"/>
  <path class="cls-1" d="M244.77,191.74c-2.05.14-4.77.92-6.78,1.53,3.23-.37,8.54-.11,10.71-1.53-1.3.06-2.63-.09-3.93,0Z"/>
  <path class="cls-1" d="M244.77,194.8c-.49.05-7.7,1.58-7.65,1.97l11.58-1.53c-.75-.72-2.95-.53-3.93-.44Z"/>
  <path class="cls-1" d="M245.64,196.55c-1.85.16-6.19,1.03-7.65,2.4,3.25-1.07,7.58-.94,10.27-2.4-.87.05-1.76-.07-2.62,0Z"/>
  <path class="cls-1" d="M239.09,186.5c-1.29,3.41,7.6.59,9.84.66-3.01-1.27-7.55,1.66-9.84-.66Z"/>
  <path class="cls-1" d="M247.39,189.12c-2.15-.09-7.09,1.39-9.4,1.97l10.27-1.09c.63-1.01-.15-.85-.87-.87Z"/>
  <path class="cls-1" d="M243.02,193.49c-.52.06-5.65,1.26-5.46,1.97l8.52-1.53c-.29-.74-2.43-.5-3.06-.44Z"/>
  <path class="cls-1" d="M248.7,184.31c-1.02.04-2.05-.05-3.06,0-1.97.1-4.35.82-6.34,1.09,2.88.31,7.01.21,9.4-1.09Z"/>
  <path class="cls-1" d="M247.39,181.69c-1.95,0-5.15.81-7.21,1.09l8.52-.22c.7-1.17-.65-.87-1.31-.87Z"/>
  <path class="cls-1" d="M248.7,175.13c-.58,0-1.17,0-1.75,0-.79.01-5.29.57-5.9,1.53.56.07,9.06-.82,7.65-1.53Z"/>
  <path class="cls-1" d="M248.27,177.32c-.87.03-1.75-.05-2.62,0-1.33.07-3.66.67-5.03,1.09.06.39,7.4-.12,7.65-1.09Z"/>
  <path class="cls-1" d="M248.05,173.6c-.86.11-5.61-.28-5.9-.22-3.41.76,5.13,1.83,5.9.22Z"/>
  <path class="cls-1" d="M246.08,179.07c-1.06.09-3.02.78-4.15,1.09.06.35,6.82,0,6.78-1.09-.87.05-1.76-.07-2.62,0Z"/>
  <polygon class="cls-1" points="241.49 180.16 240.84 179.94 240.62 180.6 240.84 180.81 241.49 180.16"/>
  <path class="cls-1" d="M242.37,172.51l6.12-1.09c-.06-.38-5.69.12-6.12.22-.83.19-.43,1.89,0,.87Z"/>
  <path class="cls-1" d="M243.24,168.57c1.64-.03,3.2-.39,4.81-.66-1.13-.77-3.6-.16-4.81.22-.26.08-.67-.18-.87.22.02,1.2.39.23.87.22Z"/>
  <path class="cls-1" d="M242.8,170.76l2.62-.66-2.62-.22c-.96.38-1.24,1,0,.87Z"/>
  <path class="cls-1" d="M153.47,292.49c.91,1.54,1.85,3.05,2.83,4.55-.97-1.55-1.92-3.05-2.83-4.55Z"/>
  <path class="cls-1" d="M185.32,222.34c-4.2-.37-3.48,3.56-3.5,6.56l1.09-5.46c2.3-.3-.75,4.27.66,5.03.58-.89.4-2.98.66-3.72.33-.94,2.7-2.26,1.09-2.4Z"/>
  <path class="cls-1" d="M215.48,224.09l-.44,5.25c1.2-3.43,1.52-7.33,1.75-10.93l-1.31,5.68Z"/>
  <path class="cls-1" d="M213.29,229.34l1.31-10.49c-.77.89-2.03,10.49-1.31,10.49Z"/>
  <path class="cls-1" d="M211.98,219.28c-.5-.08-1.67,9.21-.87,10.05.08-.98,1.65-9.94.87-10.05Z"/>
  <path class="cls-1" d="M218.1,227.59l1.31-9.18c-1.04.83-2.05,9.18-1.31,9.18Z"/>
  <path class="cls-1" d="M209.36,219.72c-1.04,2.94-1.84,6.55-1.31,9.62l1.31-9.62Z"/>
  <path class="cls-1" d="M204.11,220.6l-1.75,8.74c1.3-2.17,1.92-6.13,1.75-8.74Z"/>
  <path class="cls-1" d="M205.43,229.34l1.31-9.18c-.88.84-2.01,9.18-1.31,9.18Z"/>
  <path class="cls-1" d="M200.18,228.9l1.75-8.31c-1.5,2.26-1.6,5.59-1.75,8.31Z"/>
  <path class="cls-1" d="M189.69,221.91c-.95.53-1.09,6.12-1.31,7.43l2.4-7.21c-.13-.29-.91-.32-1.09-.22Z"/>
  <path class="cls-1" d="M186.63,222.34c-.25.21-.92,5.75-.44,6.56.07-1.41,2.71-8.4.44-6.56Z"/>
  <path class="cls-1" d="M219.85,226.72c.65-2.51,1.03-5.27.87-7.87-.75.68-1.48,7.86-.87,7.87Z"/>
  <path class="cls-1" d="M199.74,221.03c-.64,2.21-1.39,4.66-.87,6.99.92-1.77,1.04-5.02.87-6.99Z"/>
  <path class="cls-1" d="M191,228.46c.97-1.83,1.17-4.97.87-6.99-.74,2.15-1.04,4.71-.87,6.99Z"/>
  <path class="cls-1" d="M180.51,223.22l-.66,3.72.22,2.4c-.17-1.73,1.71-4.68.44-6.12Z"/>
  <path class="cls-1" d="M164.77,224.97c-.24,1.02-1.06,2.02-.44,3.06,1.17.05.64-3.02.44-3.06Z"/>
  <path class="cls-1" d="M170.89,224.09c-.34,0-.34,4.81,0,4.81.37-.59.31-4.81,0-4.81Z"/>
  <path class="cls-1" d="M196.9,223.66l.44.44c.09-1,.21-1.87.44-2.84-1.35-.18-.69,1.62-.87,2.4Z"/>
  <path class="cls-1" d="M173.08,225.84c.32.18,1.15-1.77.44-2.19-.32-.18-1.15,1.77-.44,2.19Z"/>
  <path class="cls-1" d="M195.15,223.22l.44.44c.08-.74.12-1.28.44-1.97-1.17-.28-.74,1.26-.87,1.53Z"/>
  <path class="cls-1" d="M175.48,224.09c-.72,1.21-.81,3.59-.87,5.03,1.13-.35,1.18-3.49,1.31-4.59.04-.34.2-.45.44-.66-.54-.57-.56-.32-.87.22Z"/>
  <polygon class="cls-1" points="148.81 227.81 149.03 228.03 149.69 227.81 149.47 227.15 148.81 227.81"/>
  <path class="cls-1" d="M316.46,222.78l1.53,5.9.22-5.46,2.19,5.25c-.49-3.05.53-6.51-3.93-5.68Z"/>
  <path class="cls-1" d="M278.43,217.54l2.62,11.8c.75-.1-1.91-11.99-2.62-11.8Z"/>
  <path class="cls-1" d="M283.24,229.34c-.34-3.84-.62-8.49-2.62-11.8l2.62,11.8Z"/>
  <path class="cls-1" d="M285.42,229.34c.82,0-.6-9.58-1.75-10.49l1.75,10.49Z"/>
  <path class="cls-1" d="M292.42,229.34c-.26-3.06-.2-6.86-1.75-9.62.39,3.07.5,6.77,1.75,9.62Z"/>
  <path class="cls-1" d="M308.59,221.47c2.51,2.12,1.16,5.32,2.62,7.87.07-2.3.22-8.06-2.62-7.87Z"/>
  <polygon class="cls-1" points="292.86 220.16 295.04 229.34 294.82 223.87 292.86 220.16"/>
  <path class="cls-1" d="M287.17,228.46c.5-.08-.61-8.48-1.31-9.18-.32,3.09.57,6.22,1.31,9.18Z"/>
  <path class="cls-1" d="M289.8,229.34c.77,0-.58-9.19-1.31-10.05l1.31,10.05Z"/>
  <path class="cls-1" d="M297.67,229.34c-.26-2.88.07-6.47-1.75-8.74l1.75,8.74Z"/>
  <path class="cls-1" d="M308.59,229.34c.24-2.46-.07-5.76-1.31-7.87l1.31,7.87Z"/>
  <path class="cls-1" d="M304.66,229.34c.75,0-.39-7.52-1.31-8.31l1.31,8.31Z"/>
  <path class="cls-1" d="M305.1,221.47l1.75,7.43c.63-.89-.71-7.85-1.75-7.43Z"/>
  <path class="cls-1" d="M298.54,221.03l1.75,8.31c.18-.92-.8-8.57-1.75-8.31Z"/>
  <path class="cls-1" d="M314.28,222.78c-.3.15,1.48,5.99,1.75,6.56.18-.81-.18-7.33-1.75-6.56Z"/>
  <polygon class="cls-1" points="302.04 229.34 302.26 225.19 300.73 221.03 302.04 229.34"/>
  <path class="cls-1" d="M321.71,223.66c-.22.12.38,4.58,1.31,4.81-.05-.73.2-5.65-1.31-4.81Z"/>
  <path class="cls-1" d="M323.89,223.66c.04.71.87,5.91,1.75,5.68.27-.69-.9-5.99-1.75-5.68Z"/>
  <path class="cls-1" d="M313.4,228.46l-.07-.23c.02.11.04.2.07.23Z"/>
  <path class="cls-1" d="M311.65,222.34l1.68,5.89c-.22-1.21-.17-6.59-1.68-5.89Z"/>
  <path class="cls-1" d="M327.83,229.34l-1.31-5.68c-.29,1.6.02,4.67,1.31,5.68Z"/>
  <path class="cls-1" d="M329.14,224.09c-.64.12.04,3.4.44,3.93.7-.13-.21-3.98-.44-3.93Z"/>
  <polygon class="cls-1" points="354.5 228.46 354.06 228.03 354.06 228.9 354.5 228.9 354.5 228.46"/>
  <path class="cls-1" d="M248.92,288.14c-1.82-.73-7.1.34-7.21-2.4l3.72-.22-4.15-.66c-1.89,4.16,5.15,3.8,7.65,3.28Z"/>
  <path class="cls-1" d="M248.49,263.22l-10.71-1.97c-.78.87,1.74,1.21,2.19,1.31,2.18.49,6.35,1.23,8.52.66Z"/>
  <path class="cls-1" d="M239.09,269.56c-.08.01-.88.65-.44.87,3.39.41,6.82,1.18,10.27,1.09-1.5-.33-9.02-2.09-9.84-1.97Z"/>
  <path class="cls-1" d="M248.92,273.71l-9.84-1.53c-.67.98,2.53,1.22,3.06,1.31,1.91.35,4.84.54,6.78.22Z"/>
  <path class="cls-1" d="M239.52,274.37c2.35,1.58,6.62,1.41,9.4,1.53l-9.4-1.53Z"/>
  <path class="cls-1" d="M240.84,268.68c.68.12,7.14.66,7.21.22l-9.4-1.53c-.83.84,1.89,1.26,2.19,1.31Z"/>
  <path class="cls-1" d="M248.92,278.52l-8.52-1.53c.14,1.59,8.46,1.97,8.52,1.53Z"/>
  <path class="cls-1" d="M248.92,283.76l-8.09-1.97c.24,2.28,6.2,1.71,8.09,1.97Z"/>
  <path class="cls-1" d="M248.92,281.14l-8.09-1.53c-.67.98,2.54,1.22,3.06,1.31,1.33.24,3.59.2,5.03.22Z"/>
  <path class="cls-1" d="M242.58,292.29l-.87-1.75c-1.34,3.36,5.2,2.66,7.21,2.84l-6.34-1.09Z"/>
  <path class="cls-1" d="M240.4,260.38c1.44.3,4,.53,5.46.22l-8.09-1.53c-.73.94,2.11,1.2,2.62,1.31Z"/>
  <path class="cls-1" d="M238.21,265.62l8.09,1.97c-1.9-1.61-5.57-1.67-8.09-1.97Z"/>
  <path class="cls-1" d="M248.92,290.76c-1.12,0-6.88-2.14-7.21-1.97-2.49,1.25,6.77,2.43,7.21,1.97Z"/>
  <path class="cls-1" d="M244.55,264.97l-6.34-1.53c-.37,1.66,6.28,1.88,6.34,1.53Z"/>
  <path class="cls-1" d="M259.2,207.48c-.16,0-2.27,1.42-2.84,1.53l3.28-.66c.45-.23-.39-.87-.44-.87Z"/>
  <path class="cls-1" d="M260.51,209.23l-2.4,1.53c.31.83,3.89-.94,2.4-1.53Z"/>
  <path class="cls-1" d="M266.85,211.2c-.14-.33-.77-.26-1.09-.22-.19.03-2.11,1.02-1.31,1.75l2.4-1.53Z"/>
  <path class="cls-1" d="M272.53,218.19c-.05-.29-2.03-.31-2.4-.22-.06.01-1.34.65-.87.87l3.28-.66Z"/>
  <path class="cls-1" d="M250.89,229.78c-.44.22.36.86.44.87,1.09.18.46-.89-.44-.87Z"/>
  <path class="cls-1" d="M282.15,336.66c-.04.2.92,3.25.44,4.15,1.51-.45,1.64-1.04,2.19-1.31l-1.75-3.06s-.79-.16-.87.22Z"/>
  <path class="cls-1" d="M297.67,334.69c.23-2.45-1.66-4.88-2.62-6.99.02,2.33,1.64,4.94,2.62,6.99Z"/>
  <path class="cls-1" d="M294.82,335.57c.38-.2.84-.36.87-.87-1.11-1.88-2.05-3.87-3.28-5.68l2.4,6.56Z"/>
  <path class="cls-1" d="M300.07,322.89l-1.09-1.31.22,1.75c.59-.21.83-.42.87-.44Z"/>
  <path class="cls-1" d="M267.94,334.69c.42-.2.45-1.49-.44-1.31-.66.13.27,1.39.44,1.31Z"/>
  <path class="cls-1" d="M272.53,333.38h.87s.14-.84-.22-.87c-.93-.2-.58.81-.66.87Z"/>
  <polygon class="cls-1" points="262.91 334.91 263.13 335.13 263.79 334.91 263.57 334.26 262.91 334.91"/>
  <polygon class="cls-1" points="265.1 334.47 265.32 334.69 265.97 334.04 265.32 333.82 265.1 334.47"/>
  <polygon class="cls-1" points="269.91 333.6 270.12 333.82 270.78 333.16 270.12 332.94 269.91 333.6"/>
  <path class="cls-1" d="M279.74,311.09c-.9.39-.91,1.63,0,2.19.27-2.36,1.18-.36,2.4-.22.25-1.27-1.35-2.42-2.4-1.97Z"/>
  <polygon class="cls-1" points="275.37 332.51 275.59 331.85 274.93 331.63 275.15 332.29 275.37 332.51"/>
  <polygon class="cls-1" points="290.67 327.7 290.89 327.04 290.23 326.82 290.45 327.48 290.67 327.7"/>
  <polygon class="cls-1" points="293.73 325.95 293.29 325.51 293.29 326.39 293.73 326.39 293.73 325.95"/>
  <path class="cls-1" d="M300.07,333.82l1.31-1.09-2.62-1.97c.48.97.97,2.04,1.31,3.06Z"/>
  <path class="cls-1" d="M301.82,320.7c-.14.07-2.08-.98,0,1.75.47-.63-.22-1.04,0-1.75Z"/>
  <path class="cls-1" d="M303.13,320.27c.69-.37.72-.44,1.31-.87l-1.31.87Z"/>
  <path class="cls-1" d="M321.93,305.4c-.08.06-1.48-1.39-.44.87.33-.26.63-.09.44-.87Z"/>
  <path class="cls-1" d="M312.31,313.71c-.1.03-1.13-1.44-.44.87.68-.27,1.18.34.44-.87Z"/>
  <path class="cls-1" d="M310.56,315.02c-.92.32-.32.12-.87.44.31.95,1.11.36.87-.44Z"/>
  <path class="cls-1" d="M297.01,324.2c1.15.05.87-.09.44-.87-.83.39-.22.48-.44.87Z"/>
  <path class="cls-1" d="M316.24,310.65l-.66-.87.22,1.31c.35-.26.39-.39.44-.44Z"/>
  <path class="cls-1" d="M305.75,317.64c-.61.16-.48.39-.44.87.18-.18,1.34.41.44-.87Z"/>
  <path class="cls-1" d="M348.59,276.99s.87.53-.44.87c1.35.59,2.74,4.16,3.5-1.31-.72-.43-1.36-.68-2.19-.87-.17.54-.63.79-.87,1.31Z"/>
  <path class="cls-1" d="M341.16,295.79c-2.77-.16-4.68-2.99-6.99-3.93l6.34,5.68c1.48-.86.58-1.36.66-1.75Z"/>
  <path class="cls-1" d="M342.04,290.54c-1.41-.99-2.58-2.26-4.37-2.62.88,1.48,2.63,2.12,3.93,3.06.63.46,1.43.99,1.75,1.75.04-.08,1.09-.1,1.31-1.09-.13-.39-2.35-.9-2.62-1.09Z"/>
  <path class="cls-1" d="M350.34,273.49c.08.03,1.23.86,1.31.87.46.11,1.22.82,1.09-.44l-2.4-.44Z"/>
  <path class="cls-1" d="M327.17,298.85c-.05.09-1.58-.34-.44,1.31.25-.16,1.34,1.45.44-1.31Z"/>
  <path class="cls-1" d="M330.67,295.35c-1.92-.73-1.11.27-1.31.44,1.66,1.13,1.15-.27,1.31-.44Z"/>
  <path class="cls-1" d="M325.86,301.91c.06-.07-.04-.6,0-.87-.1.06-2.47-.33,0,.87Z"/>
  <path class="cls-1" d="M331.11,293.6c-.02.29.01.59,0,.87.05-.09,1.83.14,0-.87Z"/>
  <path class="cls-1" d="M340.29,278.74l.44-.44s-.11-.79-.66-.44c-.5.32.42.61.22.87Z"/>
  <path class="cls-1" d="M336.79,284.86c-.04.08-.81.49-.44,1.31.29-.4.67-.49.44-1.31Z"/>
  <path class="cls-1" d="M337.66,300.59c-1.73-1.15-4.07-2.92-6.12-3.28l5.9,5.03c.35-.12.58-.8.66-.87.15-.74-.01-.59-.44-.87Z"/>
  <path class="cls-1" d="M340.71,284.11l6.14,4.02c2.01-1.44-4.58-3.12-6.14-4.02Z"/>
  <path class="cls-1" d="M334.6,306.06l-5.46-4.59c.01.95,4.99,5.55,5.46,4.59Z"/>
  <path class="cls-1" d="M302.91,332.07c-.76-2.71-1.96-5.38-3.93-7.43.13.85,3.24,7.75,3.93,7.43Z"/>
  <path class="cls-1" d="M314.71,324.64c-.93-2.3-2.6-4.81-4.37-6.56,1,2.07,2.33,5.3,4.37,6.56Z"/>
  <path class="cls-1" d="M319.96,310.21l4.81,6.12c-.42-2.18-2.96-4.82-4.81-6.12Z"/>
  <path class="cls-1" d="M309.47,321.58l2.62,4.81c.57-2.17-1.3-3.48-2.62-4.81Z"/>
  <path class="cls-1" d="M323.89,311.52c-.43,2.28,4.33,4.05,3.28,1.53-.19-.46-2.81-.78-3.28-1.53Z"/>
  <path class="cls-1" d="M316.46,314.58c1.11,1.52,2.24,3.63,3.72,4.81.88.7.76.39.44-.44-.48-1.22-2.73-3.94-4.15-4.37Z"/>
  <path class="cls-1" d="M305.97,321.58c.33,1.68,2.07,4.6,3.28,5.68.84.75.74.38.44-.44-.62-1.66-2.65-3.74-3.72-5.25Z"/>
  <path class="cls-1" d="M303.35,327.7c-.32.71,1.22,3.07,1.75,3.06,2.35-.03-.52-2.91-1.75-3.06Z"/>
  <path class="cls-1" d="M325.42,305.62c.79,1.4,2.59,3.35,3.93,4.15,1.65.99,2.05.71.44-.87-.8-.79-3.36-2.35-4.37-3.28Z"/>
  <path class="cls-1" d="M344.88,280.05c.29,1.07,2.34,1.84,3.28,2.19.05.02.28.74.66.87.35-.3.92-.78.66-1.31-.26-.51-3.78-1.11-4.59-1.75Z"/>
  <path class="cls-1" d="M304.66,322.89c.06,1.45,1.2,3.62,1.97,4.81.11.16-.06,1.02.66,1.31l.66-.22c-.14-.32-.85-1.03-.87-1.09-.59-1.7-1.26-3.39-2.4-4.81Z"/>
  <path class="cls-1" d="M317.12,319.39c-.05.19-.4.84-.44.87-2.37,1.82-1.22-1.39-2.62.22l2.4,2.84c0-.56,1.05-1.66,1.09-1.75.03-.06.73.17.87-.22.33-.89-.63-1.32-.87-1.97h-.44Z"/>
  <path class="cls-1" d="M334.6,301.47h-.44c.22.18,1.08,3.19,2.62,1.97.09-.17-1.92-1.71-2.19-1.97Z"/>
  <path class="cls-1" d="M348.59,284.64l-2.4-1.53c-.11.92,1.92,2.39,2.4,1.53Z"/>
  <path class="cls-1" d="M352.09,271.31c-1.64-.94-3.48-1.17-5.25-1.75-.06.25-.57-.92-.87.87,1.79-.39,3.89.89,5.68,1.31.67.16.97,1.31,1.75.66.3-1.66-.87-.84-1.31-1.09Z"/>
  <path class="cls-1" d="M326.52,308.9c-.59,1.07,1.03,1.7,1.53,2.19.05.05-.06,1.09.66,1.31l.66-.22c.04-.07-.81-.99-.87-1.09-.54-.87-1.26-1.47-1.97-2.19Z"/>
  <path class="cls-1" d="M321.93,316.77c-.93-1.32-1.66-2.8-2.84-3.93l2.4,4.37,1.53.87c.79-.99-.83-.94-1.09-1.31Z"/>
  <path class="cls-1" d="M331.98,306.71c-.84-1.25-1.9-2.13-3.06-3.06.89,1.14,1.51,2.46,2.62,3.5.13.12.9,1.4,1.09,1.31.86-1.21-.41-1.39-.66-1.75Z"/>
  <path class="cls-1" d="M327.83,302.34c-.8,1.21,1.04,1.24,1.09,1.31-.2-.16-.64-1.1-1.09-1.31Z"/>
  <path class="cls-1" d="M338.98,298.41l.44.87c.42-1.62-.1-.38-.44-.87Z"/>
  <polygon class="cls-1" points="354.06 269.56 354.71 268.9 354.06 268.68 353.84 269.34 354.06 269.56"/>
  <polygon class="cls-1" points="345.1 289.88 345.31 290.1 345.53 289.45 344.88 289.23 345.1 289.88"/>
  <path class="cls-1" d="M357.77,241.58c-1.33,0-3.35-.86-3.06.44,1.18.06,1.99.38,3.06.44.7.04,1.25.56,1.53.44.92-.42-.23-1.25-.22-1.31h-1.31Z"/>
  <path class="cls-1" d="M348.16,255.57c.32-.97-.17-.9-.87-.87-.02.35.5.85.87.87Z"/>
  <path class="cls-1" d="M355.15,255.57c.84.38,1.61.77,2.19,1.53l-2.19.44c2.99,2,2.7-.76,3.5-3.06-1.11.44-1.86.51-3.06.66-.33.04-.48.06-.44.44Z"/>
  <path class="cls-1" d="M357.12,249.45c-.31.5,1.39,1.14,1.53.66.26-.88-.94-.67-1.53-.66Z"/>
  <path class="cls-1" d="M357.77,252.51v.44s.12.93.87.22c.15-.94-.57-.52-.87-.66Z"/>
  <path class="cls-1" d="M358.65,246.83c-.54-.13-7.43-.15-7.43.22,1.62.07,6.26.93,7.43.66.27-.06.72.16.87-.22.12-.89-.4-.55-.87-.66Z"/>
  <path class="cls-1" d="M358.65,244.2v.44c.45-.03.57.71.87.22.13-.92-.48-.53-.87-.66Z"/>
  <path class="cls-1" d="M291.76,336.66c1.11.92,1.66-.63,1.75-.66l-3.5-4.81c.56,1.05,1.47,4.15,1.75,5.46Z"/>
  <path class="cls-1" d="M277.34,341.91l1.31.22.44-.87c-1.36-1.64-1.39-3.51-2.62-5.25l.87,5.9Z"/>
  <path class="cls-1" d="M267.5,340.38l-.66,4.37c2.07-.35,1.92-.57,1.31-2.62-.15-.51-.53-1.11-.66-1.75Z"/>
  <path class="cls-1" d="M269.69,338.63c-.34.05-.24,1.74-.22,2.19.04.84.59,2.07.66,3.06.73-.5.33-1.87.22-2.62-.13-.91-.25-1.78-.66-2.62Z"/>
  <path class="cls-1" d="M265.1,344.75c.09-1.52-.3-2.98-.87-4.37.22,1.61-.68,3.56.87,4.37Z"/>
  <path class="cls-1" d="M272.53,341.69l-.44.44c.08.1.49,2.89,1.31.66.26-.71-.85-1.03-.87-1.09Z"/>
  <path class="cls-1" d="M257.23,344.31c-.09-.95.42-1.95-.87-1.75,0,.28.43.77.44,1.75,0,.46-.87.76,0,.87.1-.08.73.18.87-.22.01-.04-.4-.24-.44-.66Z"/>
  <path class="cls-1" d="M280.4,340.38c-.04.48-.18.72.44.87.43-.66.63-1.07-.44-.87Z"/>
  <path class="cls-1" d="M260.07,345.18l-.87-5.68c-.39,1.65-.5,4.47.87,5.68Z"/>
  <path class="cls-1" d="M290.67,337.75c-.77-2.36-1.23-5.14-3.06-6.99.15.75,2.35,7.28,3.06,6.99Z"/>
  <path class="cls-1" d="M286.74,336l.22,2.62v.44c1.86-1.2,1.74-1.87-.22-3.06Z"/>
  <path class="cls-1" d="M262.91,342.56h-.44c.09.82-.9,1.37-.22,2.19,1.1.02.58-1.49.66-2.19Z"/>
  <path class="cls-1" d="M275.15,340.38c.2.58-.3,1.61.22,2.19,1.01.1.3-1.64.22-2.19h-.44Z"/>
  <path class="cls-1" d="M336.79,287.92l-.87-.87c-.11.13-2.24,1.41-2.19,2.4,2.74.17.27-1.49,3.06-1.53Z"/>
  <path class="cls-1" d="M342.69,273.49c.52-.23.23-1.11-.44-.87-.53.19-.2,1.16.44.87Z"/>
  <path class="cls-1" d="M316.46,258.63c-.53.19-.2,1.16.44.87.52-.23.23-1.11-.44-.87Z"/>
  <path class="cls-1" d="M343.57,270.87c.52-.23.23-1.11-.44-.87-.53.19-.2,1.16.44.87Z"/>
  <polygon class="cls-1" points="345.31 265.62 344.88 265.19 344.88 266.06 345.31 266.06 345.31 265.62"/>
  <path class="cls-1" d="M344.66,274.8c-.05-.01-.28-.74-.66-.87-.76,1.08.46.75.66.87Z"/>
  <polygon class="cls-1" points="349.69 240.7 349.9 240.05 349.25 239.83 349.47 240.49 349.69 240.7"/>
  <path class="cls-1" d="M349.47,248.57c.06-.26-.06-.61,0-.87-.96.38-1.24,1,0,.87Z"/>
  <path class="cls-1" d="M330.01,262.56c.97-.28,1.89-3.53-.44-3.06-1.39.28-1.64,3.66.44,3.06ZM329.58,260.38c.94-.68.53,1.54,0,1.31-.34-.15-.37-1.05,0-1.31Z"/>
</svg>