<?xml version="1.0" encoding="UTF-8"?>
<svg id="_레이어_3" data-name="레이어 3" xmlns="http://www.w3.org/2000/svg" viewBox="0 0 503.25 426.65">
  <defs>
    <style>
      .cls-1 {
        fill: #1d2a70;
      }
    </style>
  </defs>
  <path class="cls-1" d="M72.73,274.23l2.91,8.72c-1.6-2.32-3.14-5.84-2.91-8.72Z"/>
  <path class="cls-1" d="M71.28,305.22c.24-.01.33.42.24.73-.27,1.8-.86-.69-.24-.73Z"/>
  <polyline class="cls-1" points="175.79 163.55 179.35 167.05 180.32 164.15 175.79 162.6"/>
  <polyline class="cls-1" points="161.19 163.9 167.25 163.9 169.07 163.9 167.65 162.96 160.71 162.96"/>
  <g>
    <path class="cls-1" d="M296.81,183.76c0-.99-2-1.08-2.66-1.21-.14.62,2.5,1.78,2.66,1.21Z"/>
    <path class="cls-1" d="M205.24,264.05c.11-.05.23-.11.34-.16-.12-.02-.24.04-.34.16Z"/>
    <path class="cls-1" d="M236.02,116.2c.41-.77.35-6.78,0-6.78-.38,0-.38,6.78,0,6.78Z"/>
    <path class="cls-1" d="M238.44,115.71c.41-.43.35-3.39,0-3.39-.38,0-.37,3.39,0,3.39Z"/>
    <path class="cls-1" d="M231.42,119.83l-7.26-1.45,2.18,1.7,5.09,1.21c-2.25.45-5.49-.03-7.02-1.7-.55,3.46,5.16,1.41,7.02,3.15l-5.57-.73c1,2.31,4.12,1.9,6.3,1.94,3.88-1.29-4.24-26.14,6.78-21.79,4.12,5.53-3.44,23.91,5.81,22.28,5.57-.98,3.74-6.69,4.6-8.96.16-.41,6.22-3.47,7.51-4.6,22.36-19.64,5.87-54.9-23.25-52.79-34.84,2.52-35.45,55.82-2.18,61.75ZM231.18,118.62l-.48-.48h.48c.96-.08.96.56,0,.48ZM229.97,115.95c-.32-.51,1.59-1.22,1.7-1.21,1.56.17-.32,2.45-1.7,1.21ZM239.9,101.67c3.4-.1,2.7,10.01,1.94,12.59-.91-4.22,1.05-9.04-1.94-12.59ZM242.32,123.46v-.97l3.63.24-3.63.73ZM247.89,120.8c-.55.67-4.84,1.47-5.81.97.48-.48,1.45-.53,1.94-.73-.88-7.02,3.79-24.17-8.48-22.76-5.95.68-4.53,5.74-5.57,8.96-.98,3.01-3.33-5.77,1.21-8.48,1.66-.99,6.95-1.37,8.72-.97,6.89,1.54,4.85,17.86,4.6,23.25.27-.15,1.14.27,1.45-.24.42-.91-.39-18.63-.97-19.86-2.28-4.82-12.88-5.79-15.98-1.45-1.54,2.16-.62,5.73-2.42,7.26-.31-10.37,7.29-12.95,15.98-9.44-6.94-4.77-15.22-1.99-16.95,6.54-.39-11.89,18.03-12.47,21.31-2.42.7,2.15,1.99,18.12.97,19.37ZM231.18,107.96c-.61-1.77-.21-3.67.48-5.33.93.82.25,4.47-.48,5.33ZM223.91,103.6c-12.62-10.95-6.05-33.17,10.66-34.39,19.4-1.42,28.82,21.68,14.53,34.39-3.05-13.23-23.38-14.34-25.19,0ZM226.82,60.5c-2.1,2.46-4.71,3.52-6.54,6.54-2.62,4.34-3.57,11.48-5.57,16.23-.02-4.79-.35-9.94,1.7-14.29-6.22,5.08-2.1,13.7-1.94,20.34-2.44-2.88-3.85-8.06-3.87-11.62-2.55,4.65,2.34,13.34,5.33,16.95-2.88-9.36,1.06-14.19,4.36-22.04-.1.11-1.99,2.67-1.94,1.21,6.35-10.12,8.44-16.27,22.04-14.77,3.42.38,6.42,1.91,9.44,3.39,6.75,3.31,13.8,9.56,14.77,17.44-3.08-6.56-10.38-9.16-16.71-11.38,7.9,5.5,20.96,10.06,18.16,22.04-.7-5-4.48-8.67-7.26-12.59-1,.86,1.14,2.72,1.7,3.87l1.94,2.18c-.04.29-.79.35-.97.24.62,1.17,4.28,6.62,4.36,7.02.74,3.65-2.93,11.97-5.81,14.53.86-3.61,1.89-7.79,0-11.14.88,9.12-1.04,16.87-10.66,19.37-2.25-6.61,5.06-8.29,6.3-14.53-.87.4-6.13,7.79-6.54,7.51-1.43-1,4.56-6.1,5.57-7.99,3.88-7.26,3.02-15.29-.97-22.28,3.87,3.66,4.42,9.72,6.3,14.53v-2.91c2.07,3.07,2.35,7.58,2.66,11.38,2.27-6.4-2.47-13.16-5.09-18.65.24-1.21,2.6,1.45,2.91,1.7-.1-.18.09-.77,0-.97-3.77-2.68-8.01-7.85-11.87-10.17-1.69-1.02-9.52-3.04-6.78-3.87-21.59-2.5-34.16,19.97-19.37,36.32-5.46-5.3-10.38-11.4-13.8-18.16-2.3,4.39,8.35,12.75,8.23,13.56-.4,2.77-7.43-3.7-7.51-5.09-2.14,6.15,10.86,7.1,10.9,9.44.04,2.25-7.63.65-7.99-1.7,1.25,6.84,7.38,2.49,11.38,4.12-2.21,4.16-5.32.6-8.23,1.45,3.49,3.53,6.74.35,10.41-.24,1.46,2.88-5.03,3.78-7.26,2.91,2.15,5,10.68-3.59,11.87-1.21,1.06,2.13-6.32,4.55-7.75,4.36-.25,2.06,2.49,2,3.63,3.15l.24-.97c-.13,0-2.67-.7-2.18-1.45,2.72-.44,5.21-1.51,7.02-3.63l.97.48c1.52,2.37-4.84,4.6-5.81,4.6l5.33,1.7c-9.74,1.77-19.26-9-22.28-17.44-6.03-16.85,1.08-32.33,17.19-39.47ZM213.98,76.72c-.27,1.8-.86-.69-.24-.73.24-.01.33.42.24.73Z"/>
    <path class="cls-1" d="M236.51,66.79c3.51-1.07,7.41,1.25,10.17,1.45,1.33.1-.09-1.03.48-.97,4.16.41,7.32.48,11.38,2.18-3.98-4.54-13.38-4.15-19.13-3.63-2.11.19-5.42.76-7.26,1.94l4.36-.97Z"/>
    <path class="cls-1" d="M236.02,59.53c-3.07.38-12.3,8.63-13.8,11.87l15.26-10.9c.79-1.23-.76-1.05-1.45-.97Z"/>
    <path class="cls-1" d="M216.41,103.36l-2.66-1.7c-.99,1.25,2.45,2.46,2.66,1.7Z"/>
    <path class="cls-1" d="M222.22,114.02c-.76-.61-1.73-1.41-2.66-1.7-.15.98,1.83,2.18,2.66,1.7Z"/>
    <path class="cls-1" d="M250.31,71.15c-.88-.54-.71-.94-2.42-1.45,1.13.84,1.64.94,2.42,1.45Z"/>
    <path class="cls-1" d="M254.18,73.82c.18-1.05-1.64-1.01-1.94-1.21.35.25.93,2.05,1.94,1.21Z"/>
    <path class="cls-1" d="M243.29,68.25c-.09.67,2.57,1.25,2.66.73-.87-.5-1.63-.9-2.66-.73Z"/>
    <path class="cls-1" d="M250.31,71.15c.26.16,1.29,1,1.94,1.45-.73-.54-.94-.8-1.94-1.45Z"/>
    <path class="cls-1" d="M246.43,69.46c.3.51,1.25.09,1.45.24-.07-.02-.64-1.11-1.45-.24Z"/>
    <path class="cls-1" d="M256.12,105.3c.52-2.43,2.39-6.3.73-8.48-.84,4.22-.75,11.41-4.6,13.8l.73-3.63-2.91,5.81c5.03-.64,5.44-6.08,8.48-8.96l-.24-2.18c-.38-.06-.6,4.45-2.18,3.63Z"/>
    <path class="cls-1" d="M258.79,98.28c.37,0,.58-6.53-.48-7.26-.28,2.39.36,4.87.48,7.26Z"/>
    <path class="cls-1" d="M308.43,160.03c.15.84-.08,1.64,1.21,1.7l-.97-16.47c.23,4.27-.94,10.77-.24,14.77Z"/>
    <path class="cls-1" d="M165.31,153.01c-1.33,2.85-.71,6.66-.48,9.69,1.45-2.68.63-6.77.48-9.69Z"/>
    <path class="cls-1" d="M311.58,152.04c-.64,0-1.1,8.72-.48,9.69,1.15-.68.97-9.68.48-9.69Z"/>
    <path class="cls-1" d="M312.3,162.45l-3.63-.24c-.2,1.41,2.88,1.36,3.63.24Z"/>
    <path class="cls-1" d="M333.37,148.16l.48,13.08c22.5,2.59,21.25-16.69,0-14.53,3.16,1.9,11.67.99,13.8,4.6,1.66,2.81-1.72.67-1.21,2.66,3.1-1,2.6,1.5,1.45,1.94-2.01.76-7.21-.51-10.93-.67l7.78-.54c-7.05-1.62-10.92,3.47-11.38-6.54ZM343.3,156.64c0,.45-8.19.51-8.96-.24,2.97.14,6.02-.3,8.96.24Z"/>
    <path class="cls-1" d="M151.51,146.95l-8.96-.73-.24,15.74,8.96.24.24-15.26ZM144,157.85l6.05.73c0,.32-6.52.94-6.05-.73ZM150.05,156.64l-6.54.24c.12-.33,2.17-.82,2.75-.94-.66-.06-1.41-.22-2.27-.51-.46-.16-3.08-6.69,2.91-6.78.66-.01,2.84-.19,3.15.24.57,3.47.19,6.3-2.14,6.94.83,0,1.64.15,2.14.81Z"/>
    <path class="cls-1" d="M146.27,155.94c.63.06,1.18.02,1.64-.11-.52,0-1.04.06-1.49.08-.02,0-.08.01-.15.03Z"/>
    <path class="cls-1" d="M331.68,161.97v-15.5c-.79-1.12-2.01-.68-3.15-.73-1.16-.05-4.49.84-6.05.73l.24,15.74,8.96-.24ZM324.17,159.3c2.71-.27-1.8-1.48.48-1.94,7.68-1.53,7.28,3.16-.48,1.94ZM324.17,155.91l6.05.73c-1.1.06-6.26,1.16-6.05-.73ZM324.17,147.68c.76,1.99,5.31.02,6.05,1.7.19.43.04,5.85-.24,6.05l-6.05-.24.24-7.51Z"/>
    <path class="cls-1" d="M152.72,163.18c2,.89,6.35-1.18,8.48.73l.24-21.55c-.08,5.33-8.44,1.37-9.44,3.63-.35.8-.19,16.79.73,17.19ZM153.68,159.3l7.02.73c0,.37-7.34.92-7.02-.73ZM154.17,146.71c.43-.19,6.34-.04,6.54.24.55.77-.24,10.11.24,11.87-1.43-.29-6.88.69-7.51-.73-.33-.73-.2-10.97.73-11.38Z"/>
    <path class="cls-1" d="M200.67,157.37h45.71c-7.08-.19-15.02-.98-20.53-.97-8.3.02-16.89.59-25.19.97Z"/>
    <path class="cls-1" d="M237.47,137.99c-.35,0-.41,3.41,0,3.87.38,0,.38-3.88,0-3.87Z"/>
    <path class="cls-1" d="M272.59,148.4l-60.78-.24c20.22,1.54,40.51.48,60.78.24Z"/>
    <path class="cls-1" d="M245.22,152.52c-.07.02-1.48.72-.97.97l17.68-.24c-3.47-.64-13.78-1.56-16.71-.73Z"/>
    <path class="cls-1" d="M216.41,153.49c3.38.01,26.23.46,27.12-.73,2.15-2.85-6.63-.26-7.02-.24-.2,0-1.11-1.05-2.42-.97-5.13.31-11.56.88-17.68.97-5.65.08-11.3.5-16.95.73,5.63.46,11.31.22,16.95.24Z"/>
    <path class="cls-1" d="M272.1,153.25l-8.48-.73c.86,2.02,6.48.7,8.48.73Z"/>
    <path class="cls-1" d="M209.63,151.8c-3.27-.54-6.64-.1-9.93-.24.8.72,9.93.74,9.93.24Z"/>
    <path class="cls-1" d="M316.18,157.85h3.39c.42-5.11-1.35-2.06-3.39,0Z"/>
    <polygon class="cls-1" points="289.78 152.04 292.93 151.8 289.78 151.07 289.78 152.04"/>
    <path class="cls-1" d="M292.93,148.4c-1.09-.51-2.46-.13-3.63-.24.06.95,3.63.45,3.63.24Z"/>
    <path class="cls-1" d="M291.24,144.77h-.48l.48.48c.96.08.96-.56,0-.48Z"/>
    <path class="cls-1" d="M194.13,149.86l-3.63-.24c-.88,1.83,2.47.28,3.63.24Z"/>
    <path class="cls-1" d="M194.13,145.01l-2.66-.24c-1.37.77,1.86,1.74,2.66.24Z"/>
    <polygon class="cls-1" points="180.81 150.58 184.44 149.86 180.81 149.62 180.81 150.58"/>
    <path class="cls-1" d="M180.81,148.65l3.15-.24c-.49-.82-1.96-.97-2.66-.73-.15.05-.96.73-.48.97Z"/>
    <path class="cls-1" d="M180.81,151.55c.06.95,3.63.45,3.63.24-1.09-.51-2.46-.13-3.63-.24Z"/>
    <path class="cls-1" d="M184.44,146.47c-1.09-.51-2.46-.13-3.63-.24.06.95,3.63.45,3.63.24Z"/>
    <path class="cls-1" d="M181.78,144.77c.58-.26.25-1.23-.48-.97-.58.21-.22,1.28.48.97Z"/>
    <path class="cls-1" d="M280.1,142.84h-.48l.48.48c.96.08.96-.56,0-.48Z"/>
    <path class="cls-1" d="M282.52,142.84h-.48l.48.48c.96.08.96-.56,0-.48Z"/>
    <path class="cls-1" d="M282.28,151.8c-.78.08-2.54-.78-2.66-.73-1.81.77,2.64,1.49,2.66.73Z"/>
    <path class="cls-1" d="M140.12,161.24l.24-14.29c-.43-.36-7.44-.4-8.48-.24-2.75.41-7.9,3.08-8.48,6.05-1.72,8.86,11.08,8.9,16.71,8.48ZM128.5,156.4c3.45.14,6.98-.3,10.41.24,0,.52-9.59.45-10.41-.24ZM127.77,153.73c-7.04-1.8,3.5-5.86,7.02-6.05,1.1-.06,4.55-.37,5.09.73l-.73,7.51-13.8-.24c-1.88-2.76.42-1.7,2.42-1.94Z"/>
    <path class="cls-1" d="M138.91,154.7c-3.76-.55-7.6-.1-11.38-.24.89.66,11.38.81,11.38.24Z"/>
    <path class="cls-1" d="M137.22,332.69c1.88,3.63,5.78,6.89,8.72,9.69-1.69-3.89-6.09-6.47-8.72-9.69Z"/>
    <path class="cls-1" d="M115.42,294.43c-1.14.75,1.15,4.72,2.42,4.84.37-2.27-.03-4.3-2.42-4.84Z"/>
    <path class="cls-1" d="M130.19,307.75c1.31,2.37,4.75,3.7,6.3,5.09-1.74-1.79-3.63-4.51-6.3-5.09Z"/>
    <path class="cls-1" d="M121.72,297.34c.96-.35-2.1-4.94-2.42-5.33-1.13.38,1.91,4.91,2.42,5.33Z"/>
    <path class="cls-1" d="M140.12,316.71c-.92-1.48-2.44-2.65-3.63-3.87.64.58,1.27,3.98,3.63,3.87Z"/>
    <path class="cls-1" d="M130.68,321.31c1.31.23,2.2-2.34,3.39-2.66-1.61.62-2.41.45-3.39,2.66Z"/>
    <path class="cls-1" d="M118.33,301.21c-.73.12.83,2.5.97,2.91.79-.14-.39-2.68-.97-2.91Z"/>
    <path class="cls-1" d="M122.69,312.35c.57-.19-.27-2.21-.97-1.94-.88.35.69,1.71.97,1.94Z"/>
    <path class="cls-1" d="M127.53,311.87c.72-.81-.54-1.39-.97-1.94-.57.19.27,2.21.97,1.94Z"/>
    <path class="cls-1" d="M124.63,305.09c.33-.44-.82-2-.97-1.94-.74.3,0,2.19.97,1.94Z"/>
    <path class="cls-1" d="M259.27,288.13c-.38,0-.37,2.91,0,2.91.42-.47.34-2.91,0-2.91Z"/>
    <path class="cls-1" d="M134.07,315.98c-.39-.1-1.36-.91-1.7-.73-1.12.62.82,1.53,1.7.73Z"/>
    <path class="cls-1" d="M135.76,314.77c-.49.26.43.97.48.97.91-.1.76-1.63-.48-.97Z"/>
    <path class="cls-1" d="M359.04,336.08c11.64-15.32,12.19-38.76,11.38-57.39-.2-4.61-.57-13.72-1.45-17.92-2.54-12.11-5.05,4.62-6.78,8.72-4.35,10.3-13.43,23.07-20.83,31.48-2.37,2.69-17.22,15.76-17.44,16.95-.11.61.79,1.1.48,1.94,2.41,4.73,18.57-7.2,12.59,4.84-2.08,4.19-22.9,21.78-26.88,22.04-.28.02-4.7-1.47-5.09-2.18-.6-1.12-1.31-9.91-1.94-12.11-5.32-18.74-15.49-37.53-35.11-43.83-.21.09,1.21,3.97,1.21,4.36-.02,2.11-.61,6.6-2.42,6.78l.48-11.38c-.19-.32-1.95-.49-2.42-.73-1.93-.98-3.52-1.91-5.81-1.7,2.26,1.35,2.38,12.26-.97,9.69.16-1.33.67-9.7.48-10.17-.29-.76-3.46-.71-3.87-1.45-1.04-1.86-.73-11.65-.48-14.29.21-2.26,1.58-4.68.48-7.02,7.47-4.56,15.28-9.03,21.55-15.26,2.25-2.23,14.49-17.28,13.56-19.37-.13-.3-4.9-3.67-5.33-3.87-.92-.44-4.55-.3-4.6-1.21,2.78-2.92,10.6.77,9.93,4.6,1.54.51,6.51-13.9,6.54-15.74-3.21.62-6.81-1.77-10.66-1.94,1.55-3.66,10.63,1.27,11.14.48,1.47-2.25-1.28-.91-1.45-.97-3.49-1.13-5.29-1.93-9.2-1.94,3.03-3.35,7.55-.68,11.14.48l.24-5.57c-2.67,1.52-6.18-2.11-9.69,0-2.38-3.87,7.41-2.86,9.2-.97,3.19-4.21-.7-5.35-4.84-5.81-.56-.06-7.39,2.01-4.12-1.21,1.8-1.76,8.27-.48,10.17,1.45,1.34-8.37-5-5.94-10.66-6.3,2.7-2.05,8.06-2.3,10.66-.48,2.27-4.44-10.53-.57-10.66-1.94-.34-3.81,10.08-1.21,10.66-1.94,2.19-2.75-1.52-.71-1.7-.73-1.71-.12-8.69.11-8.96-.24-2.11-2.78,8.93-3,10.17-2.42l-.48-10.66c-1.21.81-10.78,1.54-10.17,0,1.14-2.52,9.04-.45,9.44-.73.18-.13.38-1.66.73-2.42.32-.72,1.06-3.74,1.21-3.87,1.16-1,6.51.02,7.51-.73.66-.49-1.49-14.23-.48-16.47-1.35,1.28.48,6.18-1.21,7.02-.26.13-5.6.19-5.81,0-.79-.71-1.3-8.63,0-9.2l7.99.24c.52,3.17-1.17,19.62,1.21,20.58.27.11,5.55.12,5.81,0,1.15-.54.45-2.11.97-2.42.75-.45,6.47.53,7.02-.24.53-.74.5-17.64-.24-18.16-.86-.61-6.8.97-8.48-1.21l.48,19.37-5.57.73c-.23-2.76.9-20-.97-20.83-1.4-.62-7.84.62-8.23.48-1.28-.43-.34-2.95-.97-3.39-1.42-.99-22.18-.82-23.49.73-.25.29.49,2.13-.73,2.66-3.03,1.33-19.27-1.01-23.73,0-1.99-.88.44-6.91-.24-8.48-.58-1.33-2.94-.32-3.39-.97-.47-.67.55-7.8-.24-8.48l-17.44-.48c-1.45,1.64-.21,8.22-.73,8.96-.29.41-2.94.11-3.39.97-.44.83,1.73,7.6-.24,8.48-3.3-1.08-23.69.23-24.7-.48-.63-.44.15-2.46-.48-2.91-1.56-1.1-18.71-.11-21.79-.48-.78,7.02-5.88,2.09-10.41,4.6l.73,20.1,9.44-.24,1.21-22.52,1.45,25.67c.86.38,17.82.27,18.89,0,.36-.09.06-1.67.97-1.94,3.53-1.05,20.68.11,25.91,0l-4.36,93.23c-5.48,1.92-10.52,3.47-15.18,5.55,1.27.16,3.44,6.79,3.8,6.8l.73-1.7c.44,2.38,4.93,6.82,1.21,7.99-.55-1.1-1.49-1.68-2.18-2.42.2.89.08,1.94.97,2.66-.34.22-1.02,1.19-1.21,1.21-1.25.12-12.53-14.41-4.6-11.87-1.11,2.2.7,3.66.97,5.81l1.21-1.7c1.05,1.42,1.39,2.5,2.66,3.87-.58-2.63-4.42-8.47-4.36-8.96.1-.85.26-1.33.46-1.56-5.49,2.49-10.46,5.74-14.99,11.25-9.36,11.39-14.45,30.4,2.91,36.81l-1.45-1.94c4.05-.04,5.42-5.85,6.54-9.44,1.4,4.99-1.76,7.78-3.87,11.62,6.35,2.88,12.85,1.37,19.13,0,.73-.16,3.3-1.1,3.39.24-1.36,12.26-1.87,25.97-11.87,34.63-9.15,7.92-11.54,5.83-21.79,3.39-1.57-.37-4.51.07-6.3-.48-9.77-3.04-11.97-16.63-16.95-17.44-8-1.3-10.97,6.29-12.11,6.3-1.15,0-17.24-14.74-11.14-17.44,2.25-.99,14.91,7.05,12.83-1.21-.33-1.3-16.24-15.78-18.89-18.89-10.23-12.04-20.25-26.84-22.76-42.62l-1.21-.73c-1.64.07-2.97,12.83-3.15,14.77-1.62,17.77-1.48,50.97,10.17,65.38.15.19,1.47,1.91,1.45.48-14.49-22.56-12.04-53.73-8.48-79.19,5.64,24.7,22.73,45.1,41.89,60.78-5.59-1.98-8.6-3.98-14.53-1.7,2.25-.62,14.19.6,14.53,3.15.55,4.16-17.29-6.84-14.05,4.36,1.35,4.67,13.23,13.12,13.56,14.05.21.59.32,7.56-.24,7.99-16.69-15.94-31.35-33.07-37.05-55.94-1.85-7.4-2.57-15.26-3.87-22.76v29.06l-.97-.97.97,5.33c.88-1.58.95-1.45,1.45.48.89,3.43-.98,2.7-.97,2.91.08,1.64,3.78,5.43,2.42,7.26-4.17-8.69,1.46,4.87.97,5.81l-.97-.48-3.87-12.11c.56,3.19,1.89,7.11,2.42,10.17.27,1.56-1.02,1.2-.97,1.45,1.22,5.85,4.36,12.31,7.02,17.68.58-3.99-.04-9.59,1.7-13.32.76-1.65,4.06-5.05,5.33-2.42.13,1.02-3.93,2.51-4.84,5.33-.64,1.98-.18,14.8.73,14.77,1.99-3.97-.8-12.9,2.66-16.23,1.41-1.36,3.23.35,0,1.45,15.38,24.77,30,47.52,57.39,60.3,9.97,4.65,53.76,16.49,56.91,24.94.58,1.54,1.42,15.77,2.66,15.74,1.94-5.02,1.65-14.33,4.6-18.65-4.13,6.07,0-2.42,0-2.42l-2.57-12.71,1.95-10.73s-.05-.86,2.84-1.5c2.89-.64,8.19-2.48,8.19-2.48,0,0,18.62-2.29,24.94-4.79,6.32-2.51,42.7-9.21,72.21-50.81l2.94-4.06.03.06c-.13-.63.16-1.5,1.09-2.82,4.59,2.35,7.18,6.96,6.3,12.11-.26,0-.91-4.55-1.21-5.09-1.33-2.35-4.67-2.36-5.81-3.54l1.45,2.57c6.22-.27,4.3,10.22,5.09,14.29ZM291.24,190.3c1.28-.13,6.89.66,6.54,2.66-.21,1.22-8.01-1.44-9.44.24l-.73-1.21c.05-.8,3.06-1.64,3.63-1.7ZM288.09,179.4c.29-.42,1.81-1.14,2.18-1.21,1.43-.29,7.19.2,7.02,2.18-1.99-.08-11.34,1.99-9.2-.97ZM290.27,172.38c1.14-.19,8.1.33,6.54,2.18-.38.45-7.53-.51-8.96.24-.76-1.27,1.86-2.33,2.42-2.42ZM289.78,175.29c1.18-.3,8.67.23,7.02,2.18-.29.34-7.63-.49-8.96.24-.77-.96,1.51-2.31,1.94-2.42ZM305.04,160.51c0,.33-6.01.61-6.54-.24,2.16.13,4.42-.29,6.54.24ZM320.54,146.95v11.62l-5.81.48,5.57,1.21-6.05-.24-.24-13.8,6.54.73ZM175.72,161.48c-.43,1.35-10.84,1.38-6.54-1.7.99,1.36,7.3-.74,6.54,1.7ZM175,154.94c-1.12.38-5.5-2.4-6.54,1.21l-.24-11.38c1.85.17,7.18-.66,7.99,1.21-.32,1.44-.14,8.59-1.21,8.96ZM180.32,164.15l4.6.73c-1.04.22-4.49.95-4.6-.73ZM180.81,162.69c1.17.11,2.54-.27,3.63.24,0,.21-3.57.71-3.63-.24ZM180.81,161.24c1.34.12,2.83-.28,4.12.24,0,.21-3.96.71-4.12-.24ZM180.32,156.88c-.92-.51-.92-1.62,0-1.94.92-.32,3.21.23,4.36,0l-4.12,1.21,4.36.48-4.6.24ZM184.68,154.46c-.21.14-4.33-.42-5.09-.73l4.84-.48c-.95-1.69-3.38,1.03-4.84-.97-.32-.44.11-9.47.24-10.9l5.57.24c-.11,1.51-.19,12.48-.73,12.83ZM187.59,165.6l-1.21-12.35.73-13.32c1.29,0,1.82,23.81.48,25.67ZM190.49,160.76c.21-.03,3.28.83,4.12.73l-4.6.24c-.49-.25.39-.95.48-.97ZM190.01,155.43l4.6.24c-.41.94-5.29,1.44-4.6-.24ZM193.99,157.51c-1.45-.07-2.89.81-3.98-.63l3.98.63ZM194.61,163.42c-1.22.36-3.53-.1-4.6-.73,1.17.33,4.05-.79,4.6.73ZM190.49,164.15c1.51.12,3.15-.28,4.6.24-.86.79-3.76.39-4.6-.24ZM190.25,151.31l4.36.97-4.12,1.7,3.87.48c-1.13-.23-3.48.32-4.36,0-.85-.31-.98-13.1,0-13.56.45-.22,4.85-.01,5.09.73-.66,5.4,2.46,10.61-4.84,9.69ZM197.27,166.57c-2.28-8.3-1.12-17.26-.48-25.67,1.65,2.1,1.77,25.67.48,25.67ZM107.19,301.21c-.37,0-.37-1.94,0-1.94.37,0,.37,1.94,0,1.94ZM108.16,289.1c1.36.73,2.01,10.64,1.45,10.66-.38-1-2.27-10.55-1.45-10.66ZM110.58,324.94c-.17-.6-1.07-1.27-.48-1.94.64.45,1.1,1.2.48,1.94ZM111.06,312.35l-2.95-14.75c1.16,4.87,3.46,10.05,2.95,14.75ZM112.52,330.27c-.17-.6-1.07-1.27-.48-1.94.64.45,1.1,1.2.48,1.94ZM112.52,327.37c-.13-.4-.81-1.11-.48-1.45.89-.18.99.8.48,1.45ZM110.1,300.24c.96,3.57,2.88,7.42,2.91,11.14-1.05-3.53-3.09-7.35-2.91-11.14ZM113.97,328.33c-.63-1.15-.13-2.4.48-3.39.61.12-.42,2.96-.48,3.39ZM118.33,319.62c-.4-1.11-.4-2.76,0-3.87.72,1.14,1.34,2.83,0,3.87ZM305.77,346.74c.74-.27,1.07.71.48.97-.71.31-1.07-.76-.48-.97ZM296.08,316.23l1.91,6.34s.02-.03.03-.04c.02.09.02.17.03.26l1.06,3.52.12-.15c-.02.08-.06.16-.09.23l5.9,19.62c.02,1.12-4.74,5.15-5.33,3.87,2.11-1.51,2.17-2.53,2.91-4.6-1.59,1.72-3.24,3.4-4.6,5.33-.78-.02-2.47-5.7-2.18-6.54.19-.55,7.67-5.18,5.57-7.51-.1,1.12-5.55,7.6-6.05,5.57,0-3.95,6.58-4.47,5.57-8.96-.52-.23-6.46,9.99-7.51,3.15-.46-3.02,4.54-6.78,5.72-9.94l-.03-.09-5.94,7.36c-5.35-7.78,2.88-7.1,3.15-13.8-1.85,1.33-3.3,7.46-6.3,5.33,1.57-1.5,2.4-4.24,3.63-5.57.06-.06.31,1.62,1.21.73.2-.2.64-4.09,1.21-4.12ZM287.6,318.16c2.27-2.72,3.72-5.78,4.6-9.2,5.34,6.85,2.25,8.85-2.42,14.53-.83-.61-.57-2.64-.73-2.91-.56-.95-.91-1.19-1.45-2.42-.07-.17-2.22-1.09-1.94-3.15.15-1.09,5.35-5.4,3.87-8.23-.17,1.21-3.78,7.49-4.6,7.51-3.45.06,4.46-8.72,3.39-10.66,6.23,5.94.42,8.62-.73,14.53ZM281.79,310.66c-.04-.55,5.23-7.12,4.12-9.93,5.04,1.98-3.8,14.47-4.12,9.93ZM281.06,309.93c-2.96.28,3.76-9.48,2.42-11.62,3.19,3.43.09,8.56-2.42,11.62ZM279.13,307.51c-2.5.24,2.27-9.54,1.94-11.14,3.25,1.35-.59,11.01-1.94,11.14ZM276.71,305.09c-1.67-.43,2.47-8.58,1.45-10.66,3.71.89.33,11.12-1.45,10.66ZM273.07,302.42c2.58-2.97,2.31-6.35,2.18-9.93,3.97,1.28,1.18,13.91-2.18,9.93ZM255.88,285.23c1.68-.29,2.06,9.15,1.45,10.17-2.06,1.77-2.38-10.01-1.45-10.17ZM266.29,300.24c1.4.5,2.9,1.04,4.12,1.94.29-.12.51-1.97.73-2.42,1.36-2.77,2.06-5.38.97-8.48,5.87.94-.11,10.9,0,11.62.07.46,5.97,4.4,7.26,5.81,9.47,10.32,13.13,23.6,15.5,36.81.22,1.25,2.65,4.96,1.7,6.05-38.02,9.79-39.9-28.52-41.41-55.46,3.92.74,7.41,2.78,11.14,4.12ZM255.15,257.38c1.11,9.74-1.53,1.84-3.39-.48-.49-.61-5.05-4.57-4.84-4.84,1.03-1.36,5.97,2.56,7.27,3.15-2.43-4.24-5.28-3.78-7.27-6.54-1.64-2.28-1.78-7.26-3.39-9.69l3.39-.48c-5-.91-1.34-3.13-1.45-3.39-.21-.49-2.71.58-2.91-.97-.52-4.19,5.46.7,6.3,1.94,1.1,1.63,2.01,7.86,2.42,10.17.1.58-.56,3.69-.48,3.87.16.4,5.5,2.92,6.78,5.33,2.14,4.02.36,6.9-2.42,1.94ZM249.34,264.16c-2.8,2.42-3.53-3.76-5.81-5.33l-.73-5.09c1.5,1.7,4.7,4.3,5.57,6.3-.53-.91.06-2.09,0-2.18-.82-1.34-5.03-3.62-3.63-5.09,2.65-.44,12.63,10.35,5.81,10.66-.45-1.25-1.66-2.5-2.18-3.39.37.84,1.35,3.37.97,4.12ZM244.26,266.82c.4,4.81.4,9.72,0,14.53.2-4.66-1.8-10.07,0-14.53ZM242.32,261.98c-.11,1.94,1.27,4.44-.97,5.33-2.38.25-.67-1.59-.73-1.7-1.75-3.13-2.87-6.15-4.84-8.72,2.43-2.2,4.46,2.05,5.57,3.63l-1.94-5.81c1.28.23,6.55,8.54,6.54,9.44-2.07,4.97-2.02-.41-3.63-2.18ZM235.78,180.86l.97-8.72.73,16.23c1.1,0,.7-20.21,1.21-22.04.22-.79,1.06-.78,1.45,0v59.09l-2.91,5.33c2.81-2.27,6.91-4.31,9.2-.48-1.81,1.72-2.74.99-5.33,2.66v3.15c3.36-1.99.86,3.19,0,4.6,1.39-.32,2.05-1.14,1.94.73-.15,2.36-4.33,1.92-3.87,4.36l3.15-2.18c.35.34-.64,2.33-.73,2.42,1.15-1.32,2.12,2.04.73,2.42-1.4.38-1.15-1.93-.73-2.42-1.64,1.69-3.58-.74-2.91,3.15,1.92-1.71,2.78-.02,5.33.48-2.48,1.9-2.6,6.57-4.6,1.21-1.44,3.56-1.99,5.39-6.54,5.09l1.45-90.09c1.23-.73.84.27.97.97.68,3.77-.18,9.96.48,14.05ZM247.4,195.87c-.16-.57-1.04,1.6-1.45,0-.29-1.12-.37-4.26-.24-5.57l.97,3.39.73-3.15.97.97-.24,26.88c-2.41-6.69,1.05-16.06-.73-22.52ZM247.16,232.44l-.97-4.36c2.41.66,1.73,2.53.97,4.36ZM246.19,182.07c-.06-.35-.91-2.79-.48-2.91,1.19-.33.77,2.9.48,2.91ZM246.19,175.77c-1.28-.25-.78-5.8-.48-5.81.3,0,1.2,5.11.48,5.81ZM244.26,244.06c.49.85,3.6,8.66.97,8.23-.41-.07-1.91-7.37-.97-8.23ZM233.6,257.14c1.92-.15,8.49,11.48,4.36,11.14-.52-.04-4.43-8.82-4.6-9.44-.25-.9-.73-.99.24-1.7ZM259.75,258.59c-1.27-3.67-3.69-6.99-7.26-8.72-.48-.24.37-.94.48-.97,2.31-.51,11.78,7.28,6.78,9.69ZM264.11,256.17c-1.38,2.93-3.36-3.25-4.12-4.12-.8-.92-6.16-4.19-4.12-4.6,2.57-.52,9.22,6.63,8.23,8.72ZM265.08,254.72l-7.26-8.72c3.46-.87,12.11,7.33,7.26,8.72ZM268.47,253.26c-.58.19-5.96-8.65-8.72-8.23l.48-.97c3.69-.97,11.59,8.12,8.23,9.2ZM268.23,247.69c-.86-.88-7.06-5.07-4.6-5.57,1.26-.26,7.83,5.26,7.99,7.02.55,5.88-3.15-1.2-3.39-1.45ZM272.83,249.39c-1.62-3.98-5.42-5.39-7.75-8.72,3.56-.05,11.31,5.17,7.75,8.72ZM275.25,246.97c-.56,0-5.26-7.53-8.23-7.26-.48-.24.36-.94.48-.97,3.94-1.04,11.99,8.22,7.75,8.23ZM277.19,244.54c-.56-.07-5.48-7.37-8.48-7.02.38-.05,1.08-.7,1.21-.73,5.27-1.25,11.34,8.26,7.26,7.75ZM280.34,241.4c-.93,1.36-3.54-2.88-5.09-4.12-.5-.4-6.62-2.24-2.91-2.91,1.67-.3,9.89,3.62,7.99,7.02ZM282.76,238.49c-.78,2.1-6.4-5.95-9.44-5.09l.48-.97c2.81-.6,10.18,2.77,8.96,6.05ZM284.7,235.58c-.73,2.95-3.66-2.17-5.09-3.15-.48-.33-6.47-1.58-3.87-2.42,2.83-.92,9.74,2.45,8.96,5.57ZM286.63,233.16c-1.07,1.57-6.48-5.86-9.44-4.12-.86-.81,1.19-1.89,1.45-1.94,2.29-.4,9.05,3.15,7.99,6.05ZM280.1,224.2c2.75-.42,10.63,4.27,7.99,6.54-.65.56-7.06-6.12-9.44-4.6-.87-.81,1.22-1.9,1.45-1.94ZM290.02,224.45c-1.14-.22-5.5-4.52-8.48-3.63-.44-.35.88-1.43.97-1.45,4.71-1.52,11.75,5.91,7.51,5.09ZM283,218.39c-.67-.33.12-1.32.48-1.45,1.94-.68,9.5,1.44,9.44,3.63-.09,3.34-7.64-3.83-9.93-2.18ZM293.9,218.15c-.48,1.81-3.59-1.35-4.6-1.7-.44-.15-9.06-1.02-4.36-2.42,1.87-.56,9.72,1.24,8.96,4.12ZM286.39,211.13c1.87-.43,8.53,1.34,8.48,3.63-.06,2.46-7.25-3.34-9.93-1.7-.83-.82,1.12-1.86,1.45-1.94ZM291.24,196.6c1.33-.07,6.54.84,6.05,2.66-.36,1.33-8.06-1.77-9.44.24l-.48-.97c.3-.97,2.98-1.89,3.87-1.94ZM288.33,202.89c1.48-.38,8.46.23,8.48,2.18.02,2.03-8.22-1.37-10.41.24-.22-1.03,1.15-2.22,1.94-2.42ZM289.3,162.69c1.04.3,3.75-.74,4.12.73-.89.25-4.07.9-4.12-.73ZM289.3,161.24c1.34.12,2.83-.28,4.12.24,0,.21-3.96.71-4.12-.24ZM289.78,164.15l4.12.73c-.64.2-4.86.97-4.12-.73ZM295.59,141.38c1.34,3.75,1.14,8.41,1.21,12.35.07,3.77.87,9.57-1.21,12.83-1.39-8.2-.95-16.97,0-25.19ZM294.38,142.11c.15.34-.32,6.98-.48,7.51-.14.45-.47.57-.48.97,1.39,3.07-2.75,1.42-4.36,2.18l4.6,1.21-4.6.73c1.38,1.4,3.41.86,4.6-.24l.24,1.21-4.84.48,4.36.97c-.89.32-4.38.49-4.84,0-.53-.56.05-13.46-.48-15.5l6.3.48ZM279.13,140.9c.43-.2,4.53-.28,5.09.73,0,5.25,1.3,10.1-5.81,7.26.24-1.25-.44-7.44.73-7.99ZM279.13,150.1h4.84c2.26,4.35-7.91,3.95-4.84,0ZM283.73,154.22c-1.16.18-4.85,1.01-5.09-.73l5.09.73ZM279.13,154.94c.23-.15,5.44.43,4.84.97l-4.6.73,4.84.48c-1.67,1.18-7.95-.27-5.09-2.18ZM279.37,162.69v-.97h3.87l-.97.97c.64.12,1.56-.4,1.45.73l-4.36-.73ZM283.73,164.39c0,.23-4.33.69-4.6-.24,1.51.12,3.15-.28,4.6.24ZM275.98,166.81l.24-25.91.24,25.91,8.48.73c.84-7.1-.3-14.46.24-21.55.04-.58.92-8.45,1.94-5.33,1.75,5.4-1.56,20.31.48,26.88-.48.25-.98.47-1.45.73.52,9.82,1.48,21.15.48,31-2.2,21.71-14.22,36.27-31.72,48.19-.49.25-1.16-1.02-1.21-1.21-.71-2.55-1.18-13.43-1.45-16.95-1.34-17.07-2.14-34.48-2.91-51.58-.18-3.93-1.31-8.97-.24-12.59,1.14-.53,23.98-.37,25.19,0,.33.1.12,2.57,1.7,1.7ZM274.53,159.54c-17.78.8-36.91,1.02-55.21.48l53.52-1.21c.09.01,1.13.71,1.7.73ZM273.31,157.85h.48c.96-.08.96.56,0,.48l-.48-.48ZM247.65,137.99c1.33,1.22-.06,3.77,0,5.33-.89-1.27-.1-3.85,0-5.33ZM246.19,137.51c.79,1.38.14,4.25,0,5.81-.87-1.46-.11-4.17,0-5.81ZM244.74,143.32c-1-1.23-.43-4.4,0-5.81.4,1.84.4,3.97,0,5.81ZM229.48,129.03c.23-.59.52.31.97.24,3.82-.6,7.65,1.13,12.59,0,.73-.17.38-1.57,1.45-.73-.19,1.51.79,6.18-1.45,3.87.69-.51.55-1.44.48-2.18l-13.08-.48c-.12,2.81-.43,2.89,2.42,3.15-4.16,1.12-3.45-.48-3.39-3.87ZM242.8,143.32c-.77-.56-.24-4.84,0-4.84.35,0,.41,4.21,0,4.84ZM239.9,143.32c-.67.3-5.81.21-6.54-.73-.63-.81-.71-8.63-.24-8.96l7.51.73c-.32,1.57.73,8.31-.73,8.96ZM227.3,137.51l1.21,4.6.24-6.05.97,6.3,1.7-4.6c1.72,8.32-6.36,7.64-4.12-.24ZM225.85,137.51c-.09,1.75,1.48,4.4,0,5.81-.41-.7-.35-5.81,0-5.81ZM198.97,158.09l.24-13.32c23.68.82,47.55-.89,71.2-.48,1.03.02,3.62-.39,4.12.73l-.24,11.87-16.23-.26c-.08.33-.71.17-1.2.26-1.47.27-3.17.42-5.03.48h17.62l.97.97-71.44-.24ZM218.83,160.03c-2.98.06-7.61.75-10.41.24-.69-.13-1.7.26-.97-.97l11.38.73ZM206.72,160.03c-1.74.03-6.89,1.2-7.51-.73l7.51.73ZM199.21,162.21l.48-1.45,74.83,1.21c-25.06,1.23-50.31,1.24-75.31.24ZM226.51,180.8c0-.31.02-.71.06-1.2l.73-14c1.2,2.02-.37,10.27-.73,14l-.06,1.2c0,.24.02.44.07.54.36.8,1.21-.5,1.45,0,.76,1.58,1.49,4.29,1.7,6.05,1-.03,0-18.39.24-20.1.08-.55-.1-1.77.97-1.45l.24,29.79,1.21-29.79-.48,90.09-9.44,2.66,4.05-77.79ZM222.22,264.16l.97-1.45,3.15,7.02c1.23-.3-9.47-19.81,1.45-5.33-1.13-3.83-2.97-10.05,1.45-2.42l.73-1.21,2.66,5.57-2.91-8.72c2.85.52,7.28,8.97,6.54,10.9-.37.96-3.68,2.35-2.66-1.21-1.3,1.75-.21,2.73-2.91,3.39-.53-3.97-2.38-6.71-1.21-.24l-2.18.73.48-1.94-3.39,3.39-5.57-11.87c2.5-2.4,3.31,1.37,3.39,3.39ZM208.9,263.43c1.58-1.86,4.66,3.4,5.72,5.57-1.04-2.35-3.17-7.77-.88-7.51,1.3.15.98,3.78,1.7,4.6,1.53-2.76,1.17,1.05,2.66,2.18.42-2.38-4.66-7.58-.48-7.26.93.38.68,5.75,2.18,2.66.62,2.11,3.89,7.31,2.91,9.2-1.78,3.42-2.93-3.31-4.12-4.12,1.98,8.02-.33,7.93-3.63.97.51,1.32,2.43,8.19-.97,6.05-.57-.36-5.53-11.83-5.09-12.35ZM194.37,272.64l2.42,5.33c-1.41-5.18-2.78-7.77,3.39-9.69l1.21,4.6.48-2.91c0,2.05,7.84,10.41,3.63,10.41-.28,0-3.59-3.34-4.12-3.87.88,1.55,1.55,3.37,3.39,4.12-2.66,2.38-3.63.19-5.57-1.7-2.48-.35,2.66,3.85,2.66,4.12l-1.21,1.21c-1.83.21-10.95-10.06-6.3-11.62ZM190.25,276.75c.45-1.86,1.4-1.26,1.94-.73,1.37,1.36,2.5,4.31,3.87,6.05.93,1.18,5.78,3.45,2.66,4.12-2.8.6-9.18-6.52-8.48-9.44ZM189.53,277.96c.82,3.03,2.5,5.26,4.84,7.26.28.24,6.73,2.62,2.42,3.39-2.56.46-7.25-5.48-8.96-7.02-1.23,3.74,10.51,7.87,7.51,8.96-6.65-.88-11.6-7.26-5.81-12.59ZM185.65,283.78c1.8,4.76,4.92,6.31,9.44,7.99-3.6,2.97-7.75-1.62-10.17-4.6.18,1.46.61,2.83,1.7,3.87,1.62,1.55,7.95,2.44,7.51,3.63-4.14,2.28-7.75-.66-9.93-4.12-.28,5.42,6.15,5.47,9.93,6.05-3.8,3.27-8.16,1.22-10.9-2.18-.14,5.71,6.69,4.85,10.66,3.87-8.82,8.38-15.02-3.21-8.96-11.14-.18-1.48-.43-1.71.73-3.39ZM182.74,299.27c3.61,4.29,8.08,2.28,12.35.24-3.27,4.16-5.8,5.74-10.9,3.15.88,2.54,3.78,2.05,5.81,2.42l5.57-4.12c-2.99,8.79-12.55,7.65-12.83-1.7ZM187.35,307.75c5.2.96,8.42-3.03,8.96-7.99,2.5,4.59-4.8,13.92-8.96,7.99ZM198.49,312.11c2.23-2.32,2.78-6.29,2.18-9.44-1.29,2.44-.57,11.46-5.09,8.96,2.88-2.79,3.64-6.64,4.12-10.41,4.63.46,2.92,14.1-1.21,10.9ZM202.12,313.32c-.48-.29,1.53-9.52.97-11.14,2.24,1.69,2.42,13.15-.97,11.14ZM206.48,312.84c-1.31.42-1.12-.31-1.21-1.21-.27-2.61.6-6.15-.73-8.96,1.38-.74,3.78,9.58,1.94,10.17ZM209.38,312.84c-2.33.99-1.8-8.02-2.91-10.17,1.24-.43,4.93,8.75,2.91,10.17ZM203.09,301.7c-17.6-2.06-1.51-19.3,6.78-23.25,1.01-.48,8.71-3.44,9.2-3.39.45.04.93-.19,1.21.24.49.84.28,18.45,0,19.37-1.25,4.14-13.07,7.5-17.19,7.02ZM183.47,353.52c-.34-1.01-1.01-1.61-.97-1.7.22-.47,8.21,1.6,9.2,1.94-1.21.34-8.53,3.84-8.96,3.63-.3-.14-1.79-5.27-2.66-6.05.78-.47,3.09,1.79,3.39,2.18ZM171.12,358.36c-.91-2.64,2.8-5.53,1.94-9.2,3.37,1.54.31,9.77-1.94,9.2ZM171.12,347.71c4.81,1.79-3.8,14.23-5.09,8.96-.13-.51,5.92-6,5.09-8.96ZM164.82,356.43l-1.7-1.7c3.32-1.64,4.37-5.3,6.54-7.99,2.09,1.88-3.54,9.67-4.84,9.69ZM162.16,352.31c.11-.54,5.8-5.86,5.57-7.99,4.35-.16-6.75,14.01-5.57,7.99ZM159.74,350.37c.12-.54,7.22-5.95,6.05-8.96,5.17,2.33-7.08,13.66-6.05,8.96ZM164.34,339.47c.26.11-.43,2.73-1.21,1.94,2.41,1.63-.88,5.97-1.94,3.63.81-4.54-1.68-2.1-1.94.97-.06.76,2.93-.2,0,1.45,5.15.41-3.06,3.66-3.39,2.91.18-2.22-.31-4.35-.48-6.54l-.48.97c2.19,10.29-5.26,4.54-.97-.97.6-.77.82-.38.97-.48,5.58-4.07,1.49,2.07,3.15,5.33.71-2.31-.24-6.97,2.42-7.75.99,1.34,2.11.11,2.66.48-.4-.41.36-2.31,1.21-1.94ZM157.56,339.47c.19-.09,1.22,1.31.48,1.45-.98.2-.95-1.23-.48-1.45ZM159.98,334.15c2.96-1.29.74,4.86-.48,3.87-.47-.38-.53-3.43.48-3.87ZM162.4,335.11c2.54,2.09-.92,7.15-3.63,4.6,2.55-.81,3.03-2.21,3.63-4.6ZM150.29,337.54c.27,1.52,1.01,4.39,3.15,4.12-1.4-.97-3.98-4.69-1.21-5.57.34,1.48.65,3.78,2.66,3.87-.19-.86-2.33-3.11-1.94-4.6,1.26-4.75,2.45,2.29,3.63,2.66.1-12.02,5.46,2.29-1.7,1.94,1.26,5.78-8.52,1.99-4.6-2.42ZM149.33,341.9c.15-.11,2.18,2.42,2.91,2.42-1.01,3.07-4.58-1.14-2.91-2.42ZM149.81,348.19l-.48-1.94c2.94-.02,4.27,2.15.48,1.94ZM234.08,407.76c-.81.04-11.37-7.06-14.05-8.23-9.64-4.21-18.06-7.15-25.68-9.77-3.04-1-6.06-2.04-9.03-3.14-19.14-6.87-33.5-14.24-51.26-41.33-.55-.72-1.49-1.39-1.45-2.42-2.33-3.74-5.23-7.17-6.78-11.38,3,2.35,4.63,10.29,8.72,8.72-4.78-4.22-8.1-8.78-9.93-14.77,8.17,12.22,20.09,21.66,30.76,31.72l-.73.73c9.05,5.45,19.72,11.53,30.03,14.53,14.84,4.31,31.96,3.03,44.8,11.14-1.61-4.24,3.15-2.82,3.39,1.21-1.78-.81-1.38-1.54-3.39-1.21l-.24.97c-.85-1.1-1.42-1.41-2.66-1.94.2.12,3.17,3.11,2.66,3.87l-2.91-2.91c-6.97-2.63-14.59-4.17-22.04-5.09,5.05,2.28,20.61,3.1,23.49,7.51.49.76-.73.44-.73.48.06.54.66.82.97,1.21-.22.43-.67.16-.97.24.34.58,1.3,1.15.73,1.94-4.99-1.23-.23,1.69,0,4.84-3.54-4.88-8.25-5.21-13.32-6.78,3.17,1.02,6.36,2.58,9.44,3.87l3.87,4.84c-10.3-10.87-28.87-9.46-42.14-15.98v.97c10,4.57,24.85,5.41,34.39,9.69,2.59,1.16,6.38,3.82,7.26,6.78l-6.78-5.81c-12.37-3.47-24.87-6.62-37.05-10.66-1.91.25-4.63-1.67-6.3-2.42-.36-.13-1.1.13-1.45,0-.03.7.72.44.73.48.09.89-2.97.13,1.7,2.18-.31.97-9.03-3.29-3.87-2.42l-.48-.73c-1.81-.67-3.51-1.67-5.33-2.42.92,2.24-1.32.1-1.94-.48-1.85-.89-5.04-2.61-6.54-3.87-.66-.55-1.22-1.33.24-.73,1,.86,2.28,1.16,3.39,1.7-.47-.38-1.48-1.59-1.94-1.94-2.23-1.08-4.7-2.01-6.78-3.39,7.88,9.21,18.75,14.69,30.44,19.05,2.89,1.04,5.89,2.07,9.03,3.14,14.1,4.66,28.59,8.68,39.96,16.31.17.38.63,1.65-.24,1.7ZM231.66,392.27c-1.29.81-.72-6.56-1.45-7.26,1.09-.35,2.31,6.42,1.45,7.26ZM229.97,402.2c-.49.5-2.54-.43-2.18-1.21.82.18,1.63.56,2.18,1.21ZM228.76,388.39c.31-.04,1.16,1.37.48,1.45-.31.04-1.16-1.37-.48-1.45ZM187.35,384.76c.78.29,1.7.94,2.42,1.21.5.04,1.11-.19,1.45.24-.74.88-1.38-.22-1.45-.24-.72-.05-1.79,1.66-3.63,0l.48-.97c-2.51,1.12-3.8-1.22-6.3-1.45-1.56-2.33,4.56,1.39,4.36.97.69-.74-.19-.95-.73-1.45-1.86-.52-2.15-.64-3.87-1.45-.68-.21-1.77-.04-2.42-.73,1.06-.88,1.81.44,2.42.73,1.46.45,2.5.16,3.87,1.45,12.43,3.46,25.26,6.1,37.29,10.66l2.91,2.18c-.99.14-3.99-1.34-2.91-2.18-8.55-1.91-18.16-4.81-27.12-7.26.06.02,1.12.76.73.97l-3.15-.73c0-.32,2.09-.34,2.42-.24-.87-.24-6.57-2.46-6.78-1.7ZM209.14,392.99c-5.59-.65-11.09-2.97-16.23-5.09,5.52,1.3,10.87,3.27,16.23,5.09ZM195.58,387.66l17.51,5.09c-5.77-1.49-12.16-2.35-17.51-5.09ZM211.86,393.66c-.74.04-1.63.26-2.23-.19l2.23.19ZM220.04,396.14l-3.63-2.42c2.39.81,5.53,1.83,7.51,3.39.3.24,3.14,2.8,1.94,3.39-3.66-2.2-9.35-5.57-13.32-6.78l7.51,2.42ZM226.33,398.08c.11-.04,1.86,1.64.97,1.94-.11.04-1.86-1.64-.97-1.94ZM171.61,378.7v.48h-.48v-.97l.48.48ZM271.38,374.35c-6.1,1.48-27.42,3.34-30.76,7.51-4.8,6-2.16,30.32-3.63,38.5-2-7.62,1.15-34.85-4.36-39.72-2.99-2.64-28.51-5.41-34.39-6.78-9.63-2.24-22.89-6.81-31.48-11.62-1.18-.66-18.25-11.9-17.68-12.83,1.71-2.8,3.4,2.06,3.63,2.18,1.37.73,6,.09,7.26.48,1.13.36,2.59,3.93,3.87,4.84,1.61,1.14,10.06,3.02,10.9,1.7.24-.39-1.53.67-.97-1.45.54-2.07,2.2-3.95,1.7-7.02l2.18,6.54c2.78-.81-1.39-4.46.24-6.05l4.36,7.75c26.92-4.02,35.29-22.3,36.32-47.46,3.46,17.4-3.47,36.33-20.1,43.83,13.38-3.54,19.99-18.3,21.79-31,.11-.78.05-19.13,2.42-14.53l.24,6.05.97-6.78.24,9.44,1.45-2.91v36.81l1.94-37.29.24,37.54,1.21-39.96c2.72,1.06-.79,8.63,1.94,9.69l.24-12.83.24,65.63-18.4-.97,18.16,2.66c-.15,3.35,1.25-1.45,1.94,2.42.98-17.81.88-35.68.73-53.52-.04-4.25-1.82-24.88-.97-27.12.49-1.28,2.74-.08,2.42-3.39l-1.7-2.18.48,3.87-2.66-1.7,1.45,2.42c-1.36.77-1.32,1.67-2.42,2.66-1.17-3.04-3.06-5.24-5.81-7.02,2.23-2.92,4.88,2.24,6.54,4.12-.75-2.8-1.33-5.17-4.12-6.05l3.15-1.21c-3.49-.64-5.94,2.11-8.48,4.12l-.97-.48,1.7-19.62.97,6.78c.37-5.27-.02-6.06,3.39-8.23l1.45,7.75c1.5-2.05-.44-7.15,1.7-7.99v14.05c2.27-.4-.77-3.12,1.94-1.94-.52,2.54,2.14,6.58-.97,7.75l1.7.73c1.77-.18-.05-20.26.73-21.55.09-.15,3.12-1.35,3.39-.48l.73,5.09c0-5.23,1.23-11.38,1.94-1.45l1.21-5.57c-.51,36.94-1.21,74.53.24,111.15-.01-.68.69-1.94.73-2.18,3.57-22.55-2.86-55.39.48-77.98.07-.45.77-3.15,1.21-3.15l1.7,79.67v-76.52c1.74-.99,1.26-1.22,3.39-1.45-2.37-1.01-4.79-1.49-2.18-4.12-10.27,1.98-.25-4.75,3.63,1.7l-2.18.24c-.81.54,4.23,1.73,4.36,3.39.78-.27.13-12.11-.48-12.11v9.69c-1.39-1.29-2.95-4.16-4.84-4.84-2.67-.97-3.19.8-5.09-.24.44-.65,2.91-.74,2.91-.97-.02-.54-1.89.08-2.42-.48-.77-.81-.35-21.19,0-22.28.05-.15.73-.96.97-.48l.24,22.52,1.21-6.05,1.45,2.42c.28-4.37-2.11-15.83-.97-19.37.05-.15.73-.96.97-.48l.73,16.71c1.62-5.4-2.02-12.87.73-17.19l.73,11.87.24-9.93,1.7,5.09c1.64-.01-.17-7.06.24-7.99,1.64-3.72,1.85,1.73,1.94,2.18,6.25,31.69-8.22,103.43,50.61,83.79,8.38-2.8,33.7-19.46,36.08-27.85,3.13-11.02-14.1-.22-13.56-4.36.28-2.12,14.31-5.87,17.21-1.01-2.87-6.14-12.12-2.54-17.21-.44,19.11-15.04,35.64-35.79,41.41-59.82,1.64,4.07,1.87,9.75,2.18,14.29,1.17,17.46.63,42.64-6.78,58.6-.07.16-1.78,3.94-2.42,2.42,1.23-6.09,4.98-10.95,5.57-16.71-.14.61-.54.75-.73.97.52-2.15,1.01-4.36,1.45-6.54l-2.66,5.57.24-7.51-.97.48,4.84-17.44-.73-24.94c-3.88,53.35-44.38,95.13-95.41,107.52ZM361.95,319.62c1.61-.11-.62,4.8-.48,5.33-.32,0-.64-5.25.48-5.33ZM355.65,312.84l.97,4.36c-2.63-1.6-3.2-1.98-.97-4.36ZM357.83,310.66c2.88-4.96,4.17-10.3,5.81-15.74l.97-7.02c.34-.52,1.82.31,1.94.48.68,1-2.74,13.6-3.39,15.74-.32,1.06-2.67,9.32-3.15,9.2l1.94-9.69c-1.59,1.84-1.81,6.34-4.12,7.02Z"/>
    <path class="cls-1" d="M298.98,382.94c-17.65,8.99-31.48,11.86-31.48,11.86,0,0-20.08,6.57-25.33,12.47,6.43-7.12,34.8-13.68,43.25-17.92,1.62,7.86,3.04,6.86,9.93,5.57-2.09,2.63-3.12,2.89-6.3,2.91.59,1.18-.06,8.96,3.15,7.51,1.24-.56,1.07-6.22,1.21-6.54,1.16-2.6,5.63-5.58,6.78-8.23.77-1.77.91-6.78,1.45-7.75.54-.96,15.03-10.97,17.68-13.32,14-12.38,26.8-29.03,34.15-46.25,1.09-.62,1.85,2.96,1.94,3.39.17.81.16,13.46,1.94,10.17-.6-5.43,2-11.75-3.39-15.01,0,0-10.17,22.4-19.86,31.77-9.69,9.37-17.46,20.39-35.11,29.38ZM291.24,404.37c-1.73-1.39-.02-2.38.97-3.39l-.97,3.39ZM290.27,400.98c-1.12-.71.81-2.34,1.45-2.42.39-.05,1.02-.12,1.21.24l-2.66,2.18ZM287.12,393.48c3.57.14,8.64-3.25,11.38-3.63.37-.05,1.01-.12,1.21.24-.67,3.21-12.14,6.69-12.59,3.39ZM287.36,389.84c4.31.54,8.87-1.78,12.59-3.87,3.69,2.57-16.09,9.82-12.59,3.87ZM300.68,384.27c-.84,1.81-10.03,5.35-12.59,4.84,1.7-.65,11.66-6.07,12.35-6.05.24,0,1.07.84.24,1.21Z"/>
    <path class="cls-1" d="M242.12,407.33c-.2.23-.38.45-.53.68.15-.23.33-.45.53-.68Z"/>
    <path class="cls-1" d="M342.59,317.88c.18.38.34.79.46,1.25-.08-.47-.24-.88-.46-1.25Z"/>
    <path class="cls-1" d="M185.65,378.22c11.55,4.85,24.01,7.27,36.08,10.41-11.73-4.41-24.18-6.54-36.08-10.41Z"/>
    <path class="cls-1" d="M226.58,382.58c-.12-.07-.31-.15-.53-.23.18.08.35.16.53.23Z"/>
    <path class="cls-1" d="M177.18,372.89c.3.1,2.82.66,2.91.24l-4.12-1.7h1.94c-1.66-2.66-4.77.14-.73,1.45Z"/>
    <path class="cls-1" d="M151.99,358.12c.8.46,1.29,1.67,1.94,2.18.77.61,1.18.65,1.94.97-1.56-1.65-1-3.84-3.87-3.15Z"/>
    <path class="cls-1" d="M195.58,378.7c1.73.52,3.44,1.6,5.33,1.7-1.04-1.6-3.83-1.3-5.33-1.7Z"/>
    <path class="cls-1" d="M173.3,368.78l-4.12-.73c.38,1.41,3.66,2.7,4.12.73Z"/>
    <path class="cls-1" d="M185.89,376.04c1.4,1.04,3.37.83,4.84,1.21-1.41-.45-3.13-1.99-4.84-1.21Z"/>
    <path class="cls-1" d="M190.74,377.25c1.77.56,3,.97,4.84,1.45-1.74-.53-2.96-.97-4.84-1.45Z"/>
    <path class="cls-1" d="M202.36,378.95c-1.04-.31-2.03-.88-3.15-.73-.01,1.12,3.07,1.22,3.15.73Z"/>
    <path class="cls-1" d="M175.96,373.38l3.15.73c-.6-.04-1.83-1.18-1.94-1.21-.29-.07-1.78-.17-1.21.48Z"/>
    <path class="cls-1" d="M203.81,377.98c-1.04-.31-2.03-.88-3.15-.73.1.81,3.06,1.29,3.15.73Z"/>
    <path class="cls-1" d="M213.98,378.95c-1.09-.23-2.03-.61-3.15-.73-.05,1.13,3.15,1.21,3.15.73Z"/>
    <path class="cls-1" d="M225.12,390.57c-.55-.65-1.36-1.03-2.18-1.21-.36.78,1.69,1.71,2.18,1.21Z"/>
    <path class="cls-1" d="M159.74,362c.05-.39-3.28-2.23-1.94-.24.81.11,1.37.71,1.94.24Z"/>
    <path class="cls-1" d="M157.8,361.75c-.51-.07-1.52-.31-1.94-.48.65.69,2.87,2.65,1.94.48Z"/>
    <path class="cls-1" d="M185.41,375.56c-.71-.33-1.34-.88-2.18-.73-.16.77,1.97,1.32,2.18.73Z"/>
    <path class="cls-1" d="M181.53,372.65c-.49-.63-.87-.87-1.7-.73-.36.54,1.51,1.26,1.7.73Z"/>
    <path class="cls-1" d="M174.51,369.5c-.06-.03-1.21.66-1.21.73,0,1.21,2.84,0,1.21-.73Z"/>
    <polygon class="cls-1" points="153.68 361.27 153.93 360.3 152.96 360.54 153.68 361.27"/>
    <path class="cls-1" d="M184.2,373.86h-.48l.48.48c.96.08.96-.56,0-.48Z"/>
    <path class="cls-1" d="M293.17,330.27c1.88-3.39,5.6-2.75,4.88-7.49l-.06-.21c-1.17,1.85-6.07,5.75-4.81,7.71Z"/>
    <path class="cls-1" d="M299.95,329.3l-4.84,7.26c2.18-2.11,5.28-3.65,4.84-7.26Z"/>
    <path class="cls-1" d="M297.53,348.19l4.36-6.3c-1.34,2.2-5.68,3.41-4.36,6.3Z"/>
    <path class="cls-1" d="M302.86,343.83c.31.04,1.16-1.36.48-1.45-.31-.04-1.16,1.36-.48,1.45Z"/>
    <path class="cls-1" d="M182.99,379.92c-.64-.69-1.76-.52-2.42-.73.53.22,1.38,1.64,2.42.73Z"/>
    <path class="cls-1" d="M176.69,377.49c-.56-.23-1.07-.7-1.7-.73-.47.91,1.5,1.35,1.7.73Z"/>
    <path class="cls-1" d="M180.57,379.19c-.62-.25-.8-.31-1.45-.48.54.2.92.31,1.45.48Z"/>
    <path class="cls-1" d="M177.66,378.46c.34.5,1.06.1,1.45.24-.07-.02-.61-1.1-1.45-.24Z"/>
    <polygon class="cls-1" points="174.03 375.31 174.51 375.31 174.51 374.83 174.03 374.35 174.03 375.31"/>
    <path class="cls-1" d="M143.51,350.61c-.49.25.39.95.48.97,1.21.19.51-.99-.48-.97Z"/>
    <path class="cls-1" d="M141.09,348.68c-.49.25.39.95.48.97,1.21.19.51-.99-.48-.97Z"/>
    <path class="cls-1" d="M242.17,407.28s-.03.03-.05.05c.02-.02.03-.03.05-.05Z"/>
    <path class="cls-1" d="M352.14,318.56c.05.26.19.47.37.66l-.37-.66Z"/>
    <path class="cls-1" d="M342.09,339.96c-.76.27-.67,1.4-.73,1.45.03-.07,1.62-.63.73-1.45Z"/>
    <path class="cls-1" d="M288.33,387.42c20.11-7.9,36.8-22.76,49.16-40.2,1.69-2.39,2.51-2.76,3.87-5.81-.49.43-1.34,1.23-1.94,1.45v-.97c.69-.86.74-.45,1.45-1.94.02-.05.75.01.48-.97,4.55-4.56,6.17-11.94,9.69-16.71,1.37-1.85,4.23-.42.73-2.18-1.13,5.06-17.74,19.7-17.68,22.76-2.49,1.35-4.12,5.15-6.05,6.78-1.24,1.05-1.39-.53-1.45-.48-.63.52-.47,1.77-1.94,2.91-.15.11-2.49.84-3.39,1.45-2.22,1.52-4.88,4.37-7.26,5.81-.99.6.02-1.56-.97-.97-5.56,3.32-10.81,7.74-16.95,10.17-4.93,1.95-14.95,4.51-20.34,5.81-6.27,1.51-31.24,4.52-34.15,7.99-.6.72-.73,2.37-.97,3.15-1.46,4.73.15,2.78.48,6.54.37,4.13.68,8.21.97,12.35.04.59.03.85-.48,1.21l1.21.24c13.33-10.27,30.33-12.43,45.53-18.4ZM341.61,335.6l1.45-.97c.88.2-.8,2.25-1.45,1.94v-.97ZM335.79,340.44c.56.13.72,2.11,0,1.94-.56-.13-.72-2.11,0-1.94ZM335.07,346.74c.49-.44,1.73-1.76,2.42-1.21-1.09,1.11-2.13,2.21-3.39,3.15-.05.04-.46,1.29-.97.73-.23-1.01.93-.67.97-.73.2-.31.32-1.35.97-1.94l-.97-.24.73-.73.24.97ZM332.89,344.8c.07,0,1.19.66,1.21.73.36,1.54-3.37-.5-1.21-.73ZM332.4,348.19c-.02.29-.18.59-.41.89l.41-.89ZM321.99,355.94c-.15.15-1.7.6-1.94-.24.91-.82,3.29-1.12,1.94.24.51-.32,2.22-.25,2.42-1.45l-.97-.24c.72-.85,1.05-1.05.97.24.31-.03.69.07.97,0,.09-.09.42-2.16,1.7-1.94.23.64-1.27,1.84-1.7,1.94-1.34,1.37-2.09,2.21-3.87,3.15l1.94.24c.06-.04-.29-1.2.73-.97l-.73.97c-.57.4-1.54,1.2-1.94,1.45.23-.12,1.6-.09,1.94.24.1.56-2.75.58-2.25-.01-.43.33-.82.71-1.39.74,1.57-2.08-1.09-1.55-1.21-2.18-.04-.2,2.98-1.92,3.39-2.18ZM249.58,398.56c-.49-.25.4-.96.48-.97,1.21-.17.52.96-.48.97ZM250.31,390.57l3.15-3.15,27.12-7.26c.41-.06,1.52-.12.97.48l-27.12,7.26-4.12,2.66ZM252.49,397.11l3.63-2.91c-.31.09-1.41.08-1.45-.24l2.18-.73c.39.21-.67.95-.73.97l19.37-5.57-23.01,8.48ZM277.19,385.49c.25-.11,1.08-.08,1.21.24-1,1.06-2.26.22-1.21-.24ZM276.74,382.94l-8.27,3.03-15.74,4.12c7.53-3.71,16.01-4.74,24.01-7.15l6.26-2.29c-2.03.92-4.13,1.65-6.26,2.29ZM282.76,378.46c1.21-.4,3.52-2.07,4.6-2.18.35-.04,1.1-.12,1.21.24-.47.24-5.61,2.83-5.81,1.94ZM287.84,378.22c-.49-.25.4-.96.48-.97,1.21-.17.52.96-.48.97ZM285.91,378.22c.31-.06,1.11-.11,1.21.24-.5.35-4.67,2.33-4.84,1.45.91-.18,3.07-1.59,3.63-1.7ZM288.81,382.1l-3.15.73c.64-.12,1.82-1.14,2.18-1.21.39-.08,1.53-.11.97.48ZM289.78,381.61c-.47-.24.33-.92.48-.97.26-.09,1.11-.09,1.21.24l-1.7.73ZM283.73,380.88c2.47-1.33,5.07-2.32,7.75-3.15.43-.23.85-1.81,2.42-.73-.65.69-1.75.52-2.42.73-2.41,1.3-4.78,3.26-7.75,3.15ZM294.63,378.22l-2.18.24c.41-.06.98-.65,1.21-.73.34-.11,1.53-.1.97.48ZM296.08,378.7c-.47-.24.33-.92.48-.97.26-.09,1.11-.09,1.21.24l-1.7.73ZM298.02,376.77l-2.18.24c.41-.06.98-.65,1.21-.73.34-.11,1.53-.1.97.48ZM311.09,360.78c1.21-.17.52.96-.48.97-.49-.25.4-.96.48-.97ZM310.37,370.47c.29-.17.63-1.72,1.94-.73-.37.48-1.66.56-1.94.73-.13.07-.62,1.62-1.45.73.34-.8,1.23-.6,1.45-.73ZM297.05,373.86c-.79-1.17.91-1.35,1.45-1.94,1.75.35-1.4,1.37-1.45,1.94ZM298.02,369.02l.97.97-3.63.73,2.66-1.7ZM297.29,374.59c-1.76,2.67-2.79.19-5.81,1.45.6-.61,2.45-1.57,3.15-1.7.27-.05,1.87.51,2.66.24ZM292.2,371.92c.53.33-.23.44-.24.97.07.15,2.37,1.12-.97.73.28-.41.95,0,.97-.73-.05-.11-2.17-.02.24-.97ZM289.54,375.56l1.21-.73c1.7.22-.81,1.62-1.21.73ZM288.33,373.38c.56-.06,1.75,1.12,1.7,1.21-1.78,2.73-5.89-.73-1.7-1.21ZM283.97,376.28c3.13.26-4.9,2.64-4.6,1.7l4.6-1.7ZM278.64,378.7l-2.18.24c.41-.06.98-.65,1.21-.73.34-.11,1.53-.1.97.48ZM275.74,376.77c.96-.08.96.56,0,.48l-.48-.48h.48ZM275.49,378.22c.48-.17.61-.32,1.45-.48.07-.01.58-1.1,1.45-.24-.32.51-1.16.09-1.45.24-.74.39-.61.33-1.45.48-.1.02-1.12,1.14-1.94.24.49-.54,1.42-.06,1.94-.24ZM269.92,375.8c1.45-.06-.37,1.41-.48,1.45-2.03.74-6.65,1.1-8.96,1.21l9.44-2.66ZM258.79,378.22c.42,0,1.12-.14,1.21.24-.25.99-3.37.9-3.39.48.66.03,2.06-.73,2.18-.73ZM254.91,380.16c2.24.16-2.13,1.81-2.18.73.67.03,2.06-.73,2.18-.73ZM252.73,386.94c6.63-4.44,21.64-5.38,29.54-7.99-9.19,3.87-20.41,4.52-29.54,7.99-.19.13-.6,1.61-1.45.73.41-.8,1.01-.56,1.45-.73ZM250.07,381.61c.26-.09,1.11-.09,1.21.24l-1.7.73c-.47-.24.33-.92.48-.97ZM245.71,384.03c.37,0,.37,1.94,0,1.94-.37,0-.37-1.94,0-1.94ZM245.71,387.42c.73-.65,1.33,2.67-.48,2.91-.66-.44.01-2.48.48-2.91Z"/>
    <path class="cls-1" d="M321.51,359.33c-.16.09-.25.16-.31.23.1-.08.2-.16.31-.23Z"/>
  </g>
  <path class="cls-1" d="M236.74,270.59c-.94-.09-2.8.66-2.87.77-.77,1.3,1.05,21.37-.73,21.55l-1.7-.73c3.11-1.17.45-5.21.97-7.75-2.71-1.18.33,1.53-1.94,1.94v-14.05c-2.14.85-.2,5.94-1.7,7.99l-1.45-7.75c-3.41,2.17-3.02,2.97-3.39,8.23l-.97-6.78-1.7,19.62.97.48c2.53-2.01,4.98-4.76,8.48-4.12l-3.15,1.21c2.79.88,3.37,3.26,4.12,6.05-1.65-1.88-4.31-7.04-6.54-4.12,2.75,1.78,4.64,3.98,5.81,7.02,1.1-1,1.06-1.9,2.42-2.66l-1.45-2.42,2.66,1.7-.48-3.87,1.7,2.18c.32,3.31-1.93,2.11-2.42,3.39-.85,2.24.93,22.87.97,27.12.15,17.84.26,35.71-.73,53.52-.69-3.88-2.09.93-1.94-2.42l-18.16-2.66,18.4.97-.24-65.63-.24,12.83c-2.72-1.06.79-8.63-1.94-9.69l-1.21,39.96-.24-37.54-1.94,37.29v-36.81l-1.45,2.91-.24-9.44-.97,6.78-.24-6.05c-2.37-4.6-2.31,13.75-2.42,14.53-1.81,12.7-8.41,27.46-21.79,31,16.63-7.5,23.56-26.43,20.1-43.83-1.03,25.17-9.41,43.44-36.32,47.46l-4.36-7.75c-1.63,1.59,2.54,5.24-.24,6.05l-2.18-6.54c.5,3.08-1.15,4.96-1.7,7.02-.56,2.12,1.21,1.07.97,1.45-.84,1.33-9.29-.55-10.9-1.7-1.28-.91-2.74-4.49-3.87-4.84-1.27-.4-5.89.24-7.26-.48-.23-.12-1.92-4.98-3.63-2.18-.57.93,16.5,12.18,17.68,12.83,8.59,4.81,21.85,9.39,31.48,11.62,5.88,1.37,31.39,4.14,34.39,6.78,3.99,3.52,3.44,18.79,3.59,29.83v-140.31ZM230.72,322.95c.78.44.29,5.81,0,5.81-.4-1.84-.4-3.97,0-5.81ZM230.24,332.15c.34,13.88.79,27.88-.97,41.65l.97-41.65ZM226.85,356.36c.78.23.22,4.36,0,4.36-.4-1.3-.4-3.06,0-4.36ZM226.36,365.08c.37,0,.69,6.65-.48,7.26-.12-.61.12-7.26.48-7.26ZM216.68,357.33c.72.25-.17,1.95-.48,2.42-.73-.32.02-2.58.48-2.42ZM216.68,370.41c-.63-.64.38-5.46.97-5.33.4.09-.37,4.76-.97,5.33ZM217.64,354.91l.97-5.33c1.27.76.04,4.9-.97,5.33ZM222.49,369.93c-.27-1.43.34-2.94.48-4.36.73.62.58,4.1-.48,4.36ZM224.67,325.13l-.73,14.29-.48-19.86,1.21,5.57ZM223.7,346.92l.24-6.54v13.08c-1.05-1.22.24-3.69-.24-5.09-.39-1.13-3.87-.67,0-1.45ZM221.52,358.79c.87-.45,1.02,1.62.48,1.94-.22.13-1.29-1.51-.48-1.94ZM220.07,346.19c-.66-1.37.42-3.1.97-4.36.31.89.09,3.93-.97,4.36ZM221.04,333.12c.01,4.88-3.05,9.45-5.33,13.56l5.33-13.56ZM197.79,354.91c.17.03.47.57.73.73-1.02.63-2.2,1.12-3.39.48.47-.17,2.52-1.23,2.66-1.21ZM195.37,365.57c-1.26-.78-.16-2.08,0-3.39,1.54.16-.03,2.54,0,3.39ZM201.18,361.69c1.38-.19.03,1.38-.97,1.45-.42-.35.88-1.44.97-1.45ZM201.18,372.35c-.49-.25.39-.95.48-.97.17-.03,3.31.51,3.15,1.21l-3.63-.24ZM204.57,364.6c.89.3-.86,1.97-.97,1.94-.89-.3.86-1.97.97-1.94ZM205.05,362.66c-.81-.36,1.55-3.1,1.94-3.39.9.42-1.02,3.52-1.94,3.39ZM203.12,358.3c-4.38,2.41-8.8.87-9.57,5.97-.02.39-.05.81-.12,1.3.01-.48.06-.9.12-1.3.26-5.14-3.22-2.22-7.63-3.3,7.91-.33,16.71-1.21,22.04-7.99,1.76.63-4.38,5.07-4.84,5.33ZM207.47,367.99l2.91-6.78c0,3.22-.04,5.38-2.91,6.78ZM214.01,352.73c.31-.7-.5-.68-.48-.73-1.04,1.45-1.92,2.79-3.39,3.87-.05.04-.46,1.29-.97.73-.23-1.01.94-.67.97-.73,1.27-2.17,2.4-4.44,4.12-6.3.43.19.18.94.24.97.29.13.53-.33.73-.48l-2.66,6.54c-2.46,1.02,1.36-3.66,1.45-3.87ZM213.29,365.57c.63,1.15.13,2.4-.48,3.39-.42-1.04-.57-2.63.48-3.39Z"/>
  <path class="cls-1" d="M247.31,300.52s.85,1.24,1.06,3.6,1.06,65.81,1.06,65.81l.64-63.74-2.77-5.66Z"/>
  <path class="cls-1" d="M339.76,309.94s1.14-2.87,3.55-4.83c2.41-1.96,3.05,1.84-.25,3.34l-3.3,1.5Z"/>
  <path class="cls-1" d="M348.49,300.73s7.75-11.1,8.13-13.39-3.03,14.49-6.43,17.27c0,0,3.48-8.26-1.7-3.88Z"/>
</svg>