<?xml version="1.0" encoding="UTF-8"?>
<svg id="_레이어_3" data-name="레이어 3" xmlns="http://www.w3.org/2000/svg" viewBox="0 0 503.25 411.53">
  <defs>
    <style>
      .cls-1 {
        fill: #1d2a70;
      }
    </style>
  </defs>
  <path class="cls-1" d="M253.93,283.03s0-.05,0-.08c-.69.09-1.17.38-1.49.81.33-.4.8-.66,1.49-.73Z"/>
  <path class="cls-1" d="M253.9,277.2c-.65-1.72-1.11-4.82-1.27-6.68-.07,0-.14-.02-.21-.03.2,1.89.73,5.04,1.43,6.73h.05Z"/>
  <path class="cls-1" d="M251.88,270.39c-2.15-.5-4.83-2.11-6.35-1.58,1.6-.34,4.28,1.21,6.35,1.58Z"/>
  <path class="cls-1" d="M250.88,291.41c-.39-.01-.94-.09-1.32-.08.46.03,1.02.11,1.32.08Z"/>
  <path class="cls-1" d="M258.51,276.86c-.73,8.3-2,.26-4.89,1.92-.61.35-.69.95-.57,1.56-.09-.59.02-1.15.62-1.48,2.92-1.6,4.03,6.46,4.92-1.83.01-.12,0-.93,0-1.04-.25-3.72-.61-5.15-1-5.18.32.46.63,1.95.89,5.01.01.12.03.93.02,1.04Z"/>
  <path class="cls-1" d="M378.87,77.56c.75-.44,5.25-1.98,6.22-2.09-.29-2.46-6.66.41-6.22,2.09Z"/>
  <path class="cls-1" d="M442.89,208.98c-1.14-.77-3.11-.46-3.37-.52v1.04c4.57.74,5.91,4.07,4.67,8.34-.68,2.32-2.71,3.65-4.93,4.69-.07.03-.55-.87-1.56-.52-.38.13.66,1.26-.52,1.56-2.1.55-6.4-1.56-7.52,1.56,3.03.05,9.58.31,12.18-1.04,4.79-2.48,5.86-11.88,1.04-15.12Z"/>
  <path class="cls-1" d="M431.23,208.98c1.51-.03,6.82.28,8.29.52v-1.04c-4.63-1.09-4.21-.68-8.81-.52v.52l.52.52Z"/>
  <path class="cls-1" d="M77.4,210.02c.89.05,2.59.46,2.33-1.04-1.49-.17-3.14.07-4.67,0-.5-.02-1.05.2-1.04-.52-.17-.01-.35,0-.52,0h-1.04c-3.2-.03-6.69-.21-9.85,0v1.04c4.98-.58,9.83.22,14.77.52Z"/>
  <path class="cls-1" d="M437.19,223.58c1.18-.31.14-1.43.52-1.56,1.01-.34,1.48.56,1.56.52,2.22-1.05,4.25-2.37,4.93-4.69l-2.33,1.04-1.04-4.17-.52,4.17c-1.57-5.8-2.65-2.19-5.18,1.04.81-1.46-3.38-2.75-3.63-2.61-.56.32-.1,1.75-.26,1.83-1.09.51-1.24-.29-1.3-.26-1.35.66-3.05,4.42-5.18,0,.25,2.31-3.48,1.37-3.89.78-.29-.41,1.66.59-.52-2.09-.04-.05,1.13-.85.26-1.3-1.48-.78-3.02,1.06-4.67,1.04-3.4-.04-7.2-.93-10.37-1.04-1.94-.07-3.82-.29-5.18,1.04-2.39-7.93,9.75-4.56,14.52-5.22,5.18-.71,10.48-3.02,16.33-3.13l-.52-.52h-6.74c-7.21.8-15.04,3.37-22.29,2.61-1.17-.12-1.47-.51-1.56-.52-.16-.03-2.16-.77-3.11-1.04,4.74,9.65-3.73,11.07-1.04,0-1.08-.33-2.67-2.55-2.85-2.61-2.29-.73-7.22.74-8.04-1.3-.59-27.69-13.08-56.32-31.62-77.71-.29-1.52,4.02-5.24,4.67-6.26.92-1.44-.34-2.69,0-3.13.3-.39,2.72-.28,3.11-1.04.26-.5-.26-2.77,0-3.13,6.06-8.59,18.17-13.85,25.14-21.12,3.97-4.14,8.7-9.64,4.92-15.38-1.34-2.04-3.09-2.24-4.67-2.35,2.63,2.23,4.79,3.44,4.15,7.56l-2.33-2.35c-.82,1.7-3.99,2.19-4.92,3.39-.21.27-.28,4.84-3.63,4.69-.45,2.31,1.96-.07,2.59,1.04.19.33-3.43,1.14-1.3,3.39-1.8-3.12-5.97-.94-7,1.3-.3.65,1.09,1.43,1.04,1.56-.34.84-3.56,1.01-4.41,1.83-1.47,1.41-.68,2.76-.78,2.87-1.2,1.34-3.21,1.09-3.37,3.39-1.75-2.53-1.81-.2-4.15-1.04,1.71,2.3-1.42,2.06-2.33,3.39-.07.11.54,1.66,0,2.61-.95,1.65-1.93-.55-2.33,1.3l-3.89-3.91c.06-.72,10.09-8.34,8.81-11.21-2.03,2.16-7.13,7.92-9.07,9.39-1.6,1.21-3.97.92-4.15,1.04-2.23,1.59-3.48,3.51-6.48,5.22v1.04c3.94-3.17,4.78-1.06,7.78,1.04,1.17.82,4.95,4.46,5.18,5.48,1.14,5-4.28,5.7-3.63,10.17,19.37,22.91,31.28,53.86,31.11,83.96-.02,4.05.69,10.13-1.04,13.56,1.64,2.96-2.65,9.28,1.04,9.91.26-1.32,1.38-10.13,1.81-10.43.53-.37,6.8.32,8.29,0,18.27-3.95,19.9-.8,36.03-.52,1.11-3.12,5.42-1.02,7.52-1.56ZM351.39,110.93c-.54-.53-2.62-1.62-2.59-2.35,1.71-2.01,2.22-1.66,4.15-.26.64.46,6.36,7.09,6.22,7.56-.75,2.56-6.63-3.83-7.78-4.95ZM389.49,217.84c-.49-.04-.02-1.47-.52-1.56-.91-.17-3.62,1.91-4.41.26.85-4.67-2.59-9.57,4.41-9.13,5.92.37,9.51,11.11.52,10.43Z"/>
  <path class="cls-1" d="M359.17,115.89c.14-.47-5.58-7.1-6.22-7.56,1.05,2.46,1.9,3.3-1.56,2.61,1.15,1.12,7.02,7.52,7.78,4.95Z"/>
  <path class="cls-1" d="M134.17,274.43c-.19-.5-1.15,1.02-2.07-.52-2.6-4.33-6.79-16.9-8.29-22.16-12.78-44.57-3.95-75.29,18.66-113.43.63-1.06,1.61-2.58,1.04-3.91h-.52c-1.34,1.8-6.22,7.54-6.22,9.39.97.32.83.59,0,1.04-.13.07-2.23.45-2.59,1.3-9.64,18.23-16.74,37.95-17.11,58.41-1.8,4.16-5.59,1.47-8.55,2.35-.96.28-.65,1.97-1.04,2.09-.84.26-.11-.25-1.81.52,1.52,12.89-7.36,7.11-.52,0-.49.18-2.88.85-3.63,1.04.05.44-.12.49-.52.52-2.68.21-8.83.33-11.41,0-.39-.05-.57-.07-.52-.52-1.66-.13-3.02-.24-4.67-.52l3.89,3.13c2.48-1.49,14.71-3.02,12.96,2.61-2.91-.2-5.94.54-8.81.52-1.04,0-2.94-1.57-3.11-1.56-1.23.05-2.08,2.41-2.59,2.61-1.7.66-9.11-.85-11.41-.52-.56.08.3,1.61-1.04,1.56-.52-.02-.86-1.56-1.04-1.56-1.08-.03-4.15,1.14-4.67,1.04-.5-.09-.02-1.48-.52-1.56-1.42-.24-5.94.13-6.22,0-2.65-1.24-2.8-7.19-5.18,2.09-1.22-3.77.6-8.24,4.15-9.39.09-.03.51.67,1.81.52v-1.04c-2.21.15-2.91-.98-5.44,1.56-4.44,4.45-2.06,12.21,3.11,14.6,7.52,3.48,30.57-4.17,41.99-1.56.53.12,4.4,2.95,5.18,3.13,1.37.32,7.92-.99,9.07.26,2.61,7.7,2,15.65,5.18,22.95,1.24,10.76,6.82,21.45,12.44,31.55l1.56-1.56c-1.23-2.27-2.79-3.54-1.56-4.95ZM102.55,220.71l1.81-2.35c4.39.64-2.27,5.82-1.81,2.35ZM107.47,215.76c-.98-1.89.41-7.25,2.07-7.82.77-.27,7.34.06,7.78.52,1.09,10.19-5.44,3.95-9.85,7.3Z"/>
  <path class="cls-1" d="M104.36,218.37l-1.81,2.35c-.46,3.47,6.2-1.71,1.81-2.35Z"/>
  <path class="cls-1" d="M218.41,216.8c-.22-1.75.43-2.71.78-4.17l-11.41.52c-.26,1.03-.53,2.05-.52,3.13,3.74.31,7.37.71,11.15.52Z"/>
  <path class="cls-1" d="M219.19,207.93c-.95.56-1.56.01-2.07,0,1.66,3.61-5.76,1.99-7.78,2.61-3.72,1.13-1.34,1.76-1.56,2.61l11.41-.52c.36-1.51.64-3.2,0-4.69Z"/>
  <path class="cls-1" d="M160.61,277.82c-10.28-14.47-17.69-34.27-19.18-51.89.5-.71,9.87.42,10.63.26,1.74-.35,4.38-3.58,4.67-3.65,2.09-.53,5.67,3.76,8.81,3.13,1.36-.27,1.93-2.06,2.07-2.09.47-.07,7.37,2.03,9.33,2.09,2.42.07,18.22.34,19.18,0,.65-.23,1.48-4.1,5.18-3.13.67.18,1.17,1.76,1.81,2.09,3.61-.05,1.9-4.73,2.07-7.82l-2.07-.26c-.04-1.45-.44-8.13,1.81-8.08,1.68.04.34,5.63.26,7.82.84.59,1.74-.03,2.07,0-.02-1.08.26-2.1.52-3.13.21-.85-2.17-1.47,1.56-2.61-5.73-3.33,5.74-2.66,7.78-2.61.51.01,1.13.56,2.07,0-.35-.81-1.29-.37-1.04-1.56-2.59.39-12.66-.81-14.26,0-.38.19-.74,2.3-1.56,2.61-4.72,1.81-6.8-2.49-7.26-2.61-.3-.08-.71,1.05-.78,1.04,2.3,2.6,4.68,5.14,2.33,8.87-2.92-5.63-2.82-.04-3.63,0-.48.02-.88-1.56-1.04-1.56-2.18-.05-8.14,2.35-9.33,2.09-.42-.09-.02-2.11-1.04-1.56-.54.29.02,1.31-.52,1.56-2.48,1.16-1.57-.9-2.59-.52-.28.11-2.42,2.56-2.59,2.61-1.12.32-6.01-2.83-7.78.52-1.54-.3-1.64-7.78-1.3-8.6.07-.17,2.68-2.27,2.85-2.35.29-.12.22,1.14.52,1.04,2.17-.74,4.6-1.17,7.12-1.46l-10.49.41c-.26,1.1-.49,0-.52,0-.58-.06-.03-2.34-3.89-1.56-1.89.38-1.96,1.48-2.33,2.61-.67,2.02-.15,11.81-.78,11.99h-2.07c-.49-.34-2.38-11.67,1.81-10.17,0-1.36-1.12-.29-2.07-1.3-.1-.11-.49-.5-.52-.52-.1-.08-.27-1.82-1.3-2.09-.92-.24-1.78.82-3.11.52-.27-.06-.77-.99-1.04-1.04-1.18-.24-8.88-.44-9.59-1.3.18-8.33,2.22-15.86,4.67-23.73h-.52c-2.37.18-2.27.52-3.11,2.87-3.05,8.53-5.02,30.87-4.15,40.16.55,5.8,3.89,16.34,5.7,22.69.67,2.36-.3,5.03,2.07,6,1.84,8.68,6.32,15.78,10.89,22.69.69,1.05,1.34,2.11,2.07,3.13l1.56-1.56ZM198.71,209.5c4.56-1.3,2.95,11.13,2.07,11.47-1.28.5-2.25-.66-2.33-1.83-.17-2.39,1.98-1.63,2.07-2.09.13-.65-1.98-.79-2.07-1.04-.12-.33-.05-6.43.26-6.52ZM161.13,213.67c.08-.54.35-7,2.85-4.69,2.26,2.08-.18,5.07-.26,6.26-.1,1.52.64,9.4-1.81,8.34-.83-3.51-1.29-6.24-.78-9.91ZM140.13,224.62c-.87-.37-.27-6.23-.26-7.3.01-1.37-.24-9.03.26-9.39l14.52.52c.97,2.71.82,5.53.78,8.34-.04,2.53-1.01,2.16-1.04,2.35-.02.14,1.75.33,1.04,2.61-1.33,4.24-11.74,2.58-15.29,2.87Z"/>
  <path class="cls-1" d="M177.32,208.04l15.95-.63c-5.01.16-10.71.04-15.95.63Z"/>
  <path class="cls-1" d="M155.43,221.75c.71-2.28-1.06-2.47-1.04-2.61.03-.19.99.18,1.04-2.35l-15.55.52c0,1.08-.61,6.93.26,7.3,3.56-.29,13.96,1.38,15.29-2.87Z"/>
  <path class="cls-1" d="M163.72,215.24l-2.59-1.56c-.52,3.67-.06,6.4.78,9.91,2.46,1.05,1.72-6.82,1.81-8.34Z"/>
  <path class="cls-1" d="M204.94,208.46c-2.25-.05-1.85,6.64-1.81,8.08l2.07.26c0-.17,0-.35,0-.52.08-2.19,1.42-7.79-.26-7.82Z"/>
  <path class="cls-1" d="M344.65,208.98c-4.35,4.26-3.92-.3-4.15-.52-2.92-2.82-3.41-1.27-5.7-1.56.21,2.59-7.23.09-8.81,0-4.38-.24-9.11-.44-13.48-.52-1.82-.04-3.44-.25-5.18.52-.05.02-.48,1.4-1.04,0-.82.14-.97.33-1.56.52l28.25,1.56c1.85,2.98,1.4,6-.52,8.87-2.49-1.18-6.89-1.26-9.85-1.04-.22.02-.83,1.04-1.04,1.04-.23,0-.65-1.15-1.56-1.04-.5.06.01,1.26-.52,1.56-1.46.85-1.27-1.52-1.56-1.56-2.26-.38-2.93,1.5-3.11,1.56-1.72.64-1.16-1.54-1.56-1.56-2.43-.12-6.24,1.08-7.52-.26-.08-.09.78-1.77-.26-2.35-.08-.04-1.27,2.01-1.81.26-.48-1.55.6-4.02.52-4.69-.03-.25-2.9-.88-4.85-1.4-.56-.15-1.06-.3-1.37-.42-.07-.03-.18-.61-1.04-1.04.09.54-.2,1.2-.52,1.56,1.73,1.99,3.01,9.42-1.04,9.91-.11,2.04-1.95,4.94,0,6.52-.82.17-1.34.44-2.07.78,4.29,1.46,4.95-4.66,9.07-3.13.18.07,1.87,3.02,2.07,3.13,1.39.73,21.43-.29,25.4-.52.81-.05,2.44-1.56,2.59-1.56,2.06-.07,1.82,1.57,2.07,1.56,1.03-.04,1.57-.54,1.81-.52h.52c.09,0,.38.81,1.81.52,1.07-.21,2.28-2.94,5.18-2.09.32.09,3.21,3.51,5.18,3.65,1.81.13,3.43-1.57,3.63-1.56.4.02.13,1.04.52,1.04,2.16.03,4.1-.32,6.22-.52.97.5-.39,11.69-.78,13.56,4.41-1.48,2.24-9.55,2.59-13.3.02-.26,1.54-1.31,1.56-1.56.13-2.01.34-15.93,0-16.69-.07-.16-2.94-1.78-3.11-1.83-.91-.23-15.03,1.01-15.03,3.13ZM301.88,219.93c-.09.12-2.66-.22-2.85-.78-.16-.45-.15-8.93.26-9.13,4.72-2.24,3.11,9.18,2.59,9.91ZM339.21,217.32c-2.5.3-1.46-3.13-1.81-3.91-.14-.3-3.64-.23-.26-4.95,2.73-.97,3.27,6.95,2.07,8.87ZM344.13,219.15c-3.6,3.2-3.2-7.29-2.33-7.56,3.7-1.15,1.96,5.67,2.33,7.56ZM359.94,207.93c1.92.79,1.12,2.56,1.3,4.69.31,3.73-.17,7.46,0,11.21-.45.86-12.44,1.25-13.74.78-2.4-.86-2.26-5.08.26-6.78-3.18,1.28-2.44-8.18-1.3-8.87,1.28-.76,12.21-1.52,13.48-1.04Z"/>
  <path class="cls-1" d="M297.99,207.93c.32.12.81.27,1.37.42-.43-.09-.88-.21-1.37-.42Z"/>
  <path class="cls-1" d="M356.31,216.28c-1.25.49-6.55.21-8.55,1.56-2.51,1.7-2.66,5.92-.26,6.78,1.3.46,13.29.07,13.74-.78-.17-3.76.31-7.48,0-11.21-2.13.13-4.37,3.43-4.92,3.65Z"/>
  <path class="cls-1" d="M245.11,70.78c-.33-3.07,2.95-.79,4.41-1.04,1.31-.23,2.46-1.33,4.41-1.56.84-.1,1.75.07,2.59,0,0-.34,0-.7,0-1.04-.33-11.5,3.65-29.83,2.07-38.85-1.31-7.49-14.95-8.04-16.59,0-2.44,11.95,6.15,27.81,1.56,40.94.19,1.08.4,2.59,1.56,1.56ZM247.7,46c.86-2.08,5.72-.42.52-2.61,4.16-1.05,1.58-9.72,2.07-13.56.04-.28,1.5-1.26,1.56-1.56.04-.22-1.58-4.13-.26-4.43,10.17-2.32,3.78,25.37,3.37,29.99-.33,3.8,2.21,14.12-2.07,13.04.14-2.36-1.56-4.12-2.07-6.26-.41-1.73-.2-11-.52-11.47-.16-.23-6.22-.08,0-1.56l-2.59-1.56Z"/>
  <path class="cls-1" d="M249.52,69.73c-1.46.26-4.73-2.03-4.41,1.04,2.6.29,5.7.38,8.29,0l.52-2.61c-1.95.24-3.09,1.33-4.41,1.56Z"/>
  <path class="cls-1" d="M243.04,79.64c.17.06,2.43,1.37,2.07,2.09,5.69-.29,13.61-.69,19.18,0l.52-1.04c-.79-.15-4.94-.88-5.18-1.3-.95-1.69.45-10.59-3.11-12.26,0,.34,0,.7,0,1.04,0,.44,1.17,1.59.26,2.61-1.06-.39-2.3-.16-3.37,0-2.59.38-5.7.29-8.29,0-1.15,1.03-1.37-.49-1.56-1.56-.74,2.11-2.56,3.18-2.59,3.39-.05.41,1.04.21,1.04.26l2.59-.26c-1.1,2.46,1.08,5.94-1.56,7.04ZM255.22,71.82c1.11.06,1.91.07,2.85.78v7.3c-3.59.12-7.77,1.83-7.26-2.61.03-.3,3.77-.28-1.56-3.65.11-.94,5.56-1.85,5.96-1.83Z"/>
  <path class="cls-1" d="M257.04,132.84h-1.04c.94,3.45,1.25,5.83,1.56,9.39h1.56c-.05-2.88-1.7-7.54-1.56-9.39h-.52Z"/>
  <path class="cls-1" d="M246.67,389.16c-.01.17-1.88,1.19-2.07,2.61-.03.19,2.04,2.04,1.04,3.65-.43.69-2.68-.69-2.07,2.09.28,1.29,2.92-.08,3.37.78.14.27-3.26,3.44,1.3,3.91.25,2.9-3.58-.93-4.67,1.04l2.59,1.04-2.59,1.04c.08,1.65,1.32,1.07,2.07,1.3,1.6.48,3.22.01,4.67,1.3l-3.89,1.3c3.14.65,3.49.81,5.96,0-3.76-.38-.05-1.14,0-1.3.05-.18-1.18-.33-1.56-2.87l-2.07-.26,2.07-.78c-.39-2.4-.68-1.37-1.04-2.87-.16-.67,2.78-2.06-.52-1.56,2.48-2.85-1.8-1.2-1.56-3.13.12-.93,4.66-1.56-.52-2.09,5.81-2.44.32-.53,2.33-3.91l-2.33-.26c.61-4.3,5.33-3.39-.52-5.22,3.7-.16.22-2.7.52-3.13,1.08-1.58,1.43,1.83,2.07-4.17.04-.38-1.13.1-1.04-1.04.02-.26,1.53-1.3,1.56-1.56.1-1.18-1.1-.36-1.04-1.56,0-.17,1.45-.24,1.56-2.61,0-.15-2.11-1.94-2.07-2.09.21-.79,2.69-1.4,1.04-3.39-.12,0-2.17-.64-2.33-.52-1.89,1.41-.59,11.36-.78,14.34-.04.69.15,3.32-1.56,1.83.04.86-.04,1.75,0,2.61.01.26.98,1.78,1.04,4.43,0,.2,1.05.87,1.04,1.04Z"/>
  <path class="cls-1" d="M243.56,405.33l2.59-1.04-2.59-1.04c1.08-1.98,4.92,1.86,4.67-1.04-4.55-.47-1.15-3.64-1.3-3.91-.45-.86-3.09.51-3.37-.78-.61-2.77,1.64-1.39,2.07-2.09,1-1.61-1.06-3.46-1.04-3.65.19-1.42,2.06-2.44,2.07-2.61.01-.18-1.03-.85-1.04-1.04-.06-2.65-1.02-4.17-1.04-4.43-1.62,3.82-2.51,10.92-2.59,15.38-.05,2.88-.38,5.95,1.04,8.61.04.08,1.32.83,1.56,1.04l1.04-2.09c-.76-.23-2,.35-2.07-1.3Z"/>
  <path class="cls-1" d="M256,388.12c.61,7.33,5.46,18.14-3.63,21.12-2.47.81-2.82.65-5.96,0l3.89-1.3c-1.45-1.29-3.06-.82-4.67-1.3l-1.04,2.09c1.37,1.23,2.31,1.51,3.63,2.61.51-.07,2.37.5,4.15,0,.17-.05,2.88-1.39,3.11-1.56.42-.31,2.52-1.68,2.59-1.83,2.05-4.35-.62-19.74-1.04-25.29-1.7.14-1.12,4.46-1.04,5.48Z"/>
  <path class="cls-1" d="M258.07,359.96c-.55.58-5.47.17-6.74.26-1,.07-2.11.04-3.11,0-1.35-.06-2.54.89-3.89.52-3.52-.97-2.07-7.43-2.33-10.43-.17,0-.35,0-.52,0-.26,2.36-1.14,7.63-.52,9.65.21.7,3.2,2.96,3.63,4.95-.02-.71.53-.5,1.04-.52-2.65-3.85,4.94-2.83,7.26-2.61,1.24.12,2.38-.79,3.11.26,0,2.73-.79,1.7-1.56,2.35-.06.05.03.71,0,1.04h2.07c.16-1.19-.05-1.29,0-2.09.03-.4.08-.57.52-.52-.03-.15-.02-.37,0-.52,0-.05-.83-.05-.52-.78.9-.86,1,.3,1.04.26,3.33-3.91,1.39-5.77,1.56-10.95-.34,0-.69,0-1.04,0v9.13Z"/>
  <path class="cls-1" d="M246.15,379.25c.19-2.98-1.11-12.93.78-14.34.16-.12,2.21.53,2.33.52,1.79-.11,3.4,0,5.18,0,.03-.34-.06-.99,0-1.04-.33-.04-.76.08-1.04,0-2.44-.66-5.25-.09-7.78,0-.5.02-1.05-.19-1.04.52.79,3.67-.2,11.78,0,16.17,1.71,1.49,1.51-1.14,1.56-1.83Z"/>
  <path class="cls-1" d="M254.44,367.78c-.83,3.84-1.27,7.53-1.04,11.47l1.3-5.48.26,6,1.56-1.3c-.31-4.03-.9-6.95-.52-11.47-.34-2.62-1.5.53-1.56.78Z"/>
  <path class="cls-1" d="M248.22,360.22c1,.04,2.11.07,3.11,0l-1.56-2.87c5.57-1.26,2.15-.51.52-2.61,4.89.01,2.74-1.95,2.59-5.48-2.04-.08-4.18-1.04-4.41-1.04-.28,0-2.85,1.69-4.92,1.56-.53,4.43,5.38,6.47,4.67,10.43Z"/>
  <path class="cls-1" d="M250.82,405.07c0-.05.2.19,0-1.04l-2.07.78,2.07.26Z"/>
  <path class="cls-1" d="M253.41,364.39l-.52-2.61c-2.32-.22-9.91-1.24-7.26,2.61,2.53-.09,5.34-.66,7.78,0Z"/>
  <path class="cls-1" d="M242.52,269.47l1.64,1.42c.1-1.33.6-1.93,1.36-2.08,1.52-.53,4.2,1.08,6.35,1.58.19.03.37.06.54.07,0,0,0,.02,0,.03.07,0,.14.03.21.03.16,1.86.61,4.96,1.27,6.68l2.02-.55c.42-3.64,1.07-6.74,1.68-5.84.39.04.75,1.47,1,5.18,0,.12.01.93,0,1.04-.89,8.29-2,.22-4.92,1.83-.59.32-.71.89-.62,1.48.19.96.9,1.96.9,2.09,0,.03,0,.05,0,.08l3.86-1.04c.31.48.1,9.28-.26,9.65-.23.24-4.68.7-5.7,2.61-.51,2.72,1.64,1.67,3.63,1.83.5.04,2.12.37,1.04,1.04.38.35.45,1.38,1.56,1.04-.15-3.87,1.41-4.86,1.56-8.6.1-2.75.51-16.76,0-18.25-.49-1.44-3.54-1.37-3.11-5.48-.28.19-.7.4-1.04.52,1.61,4.4-7.58,1.12-10.11,2.09-1.25-3.53,1.11-2.79,3.63-2.61.54.04.86,1.56,1.04,1.56.99,0,1.13-.99,1.81-1.04l-1.56-1.04c-1.82.07-8.45-.16-6.22-3.13-.61-.13-2.47.39-3.63-.52.33,1.14,3.5,4,3.63,4.43.5,1.62-1.15,2.95-1.56,3.91Z"/>
  <path class="cls-1" d="M300.58,312.76c-10.6,5.34-17.85,7.53-28.77,9.91-.51.11-.01,1.46-.52,1.56-2.68.55-7.92-.8-11.41,1.04-.7-.54.02-4.6-.26-5.74-2.84,3.53,1.43,7.26-5.18,6.26-.7-.11-2.11.29-2.59-.26,2.35-3.18.16-2.86-.52-4.69-.09-.25,1.4-.13,1.04-1.04-.18-.45-1.6.91-2.07,0-.78-1.5,1.86-4.47-3.11-3.13l1.81-1.83c-10.12-1.94.86,10.2-7,10.43.84,2.07,3.12-.02,3.11,2.09,1.7.12,4.11,1.03,5.18,1.04,14.79.13,37.97-6.99,51.32-13.56l-1.04-2.09Z"/>
  <path class="cls-1" d="M242,325.28c-.46-1.13.17-10.84,1.04-11.73.83-.86,7.95-.89,9.33-.78,7.84.64,4.14.45,5.7,5.48.14.45,1.02.21,1.04.26,1.45-3.38-2.84-7.83-2.59-10.69.12-1.43,2.36-3.59,2.59-5.22.33-2.34-1.02-2.77-1.04-3.39-2.45.47-.87,1.84-.78,3.13-4.05-1.56-15.79,2.15-13.22-4.43-.71-.73-1.14.24-1.56.78-4,5.16,1.83,6.98,1.56,10.69-.24,3.33-2.67,2.57-3.11,3.65-.82,2.03,1.17,10.9-.78,12.26-2.18-.05-5.57-1.8-7.26-2.09-1.5-.26-1.52,1.22-3.11,1.04-.18-.02.52-1.2-1.04-1.56-13.05-3.02-23.42-6.54-34.99-13.56l-1.04,1.56c11.63,6.99,22.8,11.83,36.29,14.6,5.57,1.15,10.4,1.7,16.07,2.09,0-2.11-2.27-.02-3.11-2.09ZM255.22,312.24c-.15.04-2.46-1.07-2.85-1.04-1.26.07-7.09,1.55-7.78-.26-1.12-2.97,4.63-2.61,6.74-1.83,4.16-3.28,6.01,2.49,3.89,3.13ZM243.82,305.46c-.52-1.08-1.08-1.35,0-2.09.84.35.66,1.39.78,1.56,2.49.64,5.98.98,8.55,1.04.19,0,3.82-2.76,2.85.26-.33,1.02-9.82,1.1-10.63.78-1.08-.43-.64-1.88-.78-2.09-.38-.1-.54.34-.78.52Z"/>
  <path class="cls-1" d="M251.33,309.11c-2.11-.78-7.86-1.15-6.74,1.83.68,1.81,6.52.33,7.78.26.87-.76-.17-1.77-1.04-2.09Z"/>
  <path class="cls-1" d="M245.37,307.02c.81.32,10.3.24,10.63-.78.97-3.02-2.66-.26-2.85-.26-2.57-.07-6.06-.4-8.55-1.04.14.21-.31,1.66.78,2.09Z"/>
  <path class="cls-1" d="M244.59,304.94c-.12-.18.07-1.22-.78-1.56-1.08.73-.52,1.01,0,2.09.23-.18.4-.62.78-.52Z"/>
  <path class="cls-1" d="M255.48,295.55c-.06.64.81.84,1.04,1.04,1.08-.67-.54-1.01-1.04-1.04Z"/>
  <path class="cls-1" d="M253.41,285.9c.02.38,3.4-.04,0,2.09,4.08,2.17,4.2-5.31.52-4.95.34,2.61-.53,2.7-.52,2.87Z"/>
  <path class="cls-1" d="M253.05,280.34c-.12-.61-.04-1.21.57-1.56,2.89-1.66,4.16,6.38,4.89-1.92.01-.12-.01-.93-.02-1.04-.27-3.05-.57-4.55-.89-5.01-.55-.05-1.15,2.7-1.59,5.9.3.13,1.19.45.7.97-2.11-.3-2.2,1.13-2.86-.46-.7-1.68-1.23-4.84-1.43-6.73-.18-.02-.36-.06-.55-.1-2.08-.37-4.75-1.92-6.35-1.58-.67.23-1.12.87-1.19,2.23l-.17-.15c0,.09-.02.16-.03.26l-1.85-1.53c-.15.38-1.34.54-1.52,1.6,2.17.02,1.03,1.09,1.09,2.59,2.12-.91,1.15,5.05.65,6.77l-1.33,11.5c.04.32.33.69.5,1.37,1.83-.35,3.81.65,5.77.03,1.66-.52,1.15-1.81,1.56-2.09.09-.06.31-.06.56-.05.38,0,.93.07,1.32.08.1,0,.13-.02.2-.03,1.35-1.3-.14-5.82,1.36-7.62.32-.43.79-.72,1.49-.81,0-.15,0-.3,0-.44,0-.13-.73-1.19-.88-2.17ZM244.03,292.01c-.38-.56.19-.63.5-1.05.66.94.25,2.15-.5,1.05ZM243.41,286.81l2.87.73c-.88.54-3.14.6-2.87-.73Z"/>
  <path class="cls-1" d="M253.05,280.34c.15.99.87,2.05.88,2.17h.03s0-.06,0-.09c0-.13-.71-1.13-.9-2.09Z"/>
  <path class="cls-1" d="M245.52,268.8c-.76.16-1.26.76-1.36,2.08l.17.15c.07-1.36.52-2,1.19-2.23Z"/>
  <path class="cls-1" d="M257.6,270.81c-.62-.9-1.26,2.2-1.68,5.84,0,.01.04.03.1.06.44-3.2,1.04-5.95,1.59-5.9Z"/>
  <path class="cls-1" d="M252.42,270.46c-.18-.01-.36-.04-.54-.07.19.04.37.07.55.1,0,0,0-.02,0-.03Z"/>
  <path class="cls-1" d="M249,291.38c-.4.28.1,1.56-1.56,2.09-1.96.62-3.94-.38-5.77-.03.02.07.04.12.05.19,1.87-.5,3.94.56,5.96-.12,1.65-.56,1.11-1.83,1.51-2.12.06-.05.2-.05.35-.06-.25-.02-.46-.02-.56.05Z"/>
  <path class="cls-1" d="M251.07,291.38c.07,0,.17,0,.2-.03,1.31-1.31-.22-5.73,1.16-7.59-1.5,1.79-.02,6.31-1.36,7.62Z"/>
  <path class="cls-1" d="M253.93,282.95s.02,0,.04,0c-.02-.14,0-.29,0-.44h-.03c0,.15,0,.3,0,.45Z"/>
  <path class="cls-1" d="M241.86,273.8c-.06-1.5,1.08-2.57-1.09-2.59-.55,3.18-.03,17.23.41,20.86l1.33-11.5c-.96-2.03-.57-4.56-.65-6.77Z"/>
  <path class="cls-1" d="M256.71,277.68c.49-.52-.4-.84-.7-.97,0,.02,0,.05-.01.07l-2.07.52s-.02-.07-.03-.1h-.05c.67,1.61.75.18,2.86.48Z"/>
  <path class="cls-1" d="M246.27,287.53l-2.87-.73c-.28,1.32,1.99,1.27,2.87.73Z"/>
  <path class="cls-1" d="M244.03,292.01c.74,1.1,1.16-.11.5-1.05-.31.42-.88.49-.5,1.05Z"/>
  <path class="cls-1" d="M189.12,334.4l1.3-1.83,20.22,8.34c26.8,6.64,54.65,8.15,82.43-1.04,21.35-7.07,43.9-20.65,58.32-38.07-3.64-.34,1.57-3.83-2.07-4.17-10.47,12.94-24.17,23.72-38.88,31.29-39.23,20.19-83.25,19.56-121.83-1.56-11.27-6.17-19.65-12.52-28.51-21.9-1.77-.45-1.33,2.4-1.04,3.65,1.16,4.99,7.15,4.73,6.74,9.39.49.33,2.03,1.81,3.11,2.61.13-3.69,1.62-.09,1.81,0,4.15,1.83,7.65,4.88,11.92,7.82.64.44,6.15-.16,3.89,4.17,1.11.63,2.27,2.46,4.15,2.61-.29-.26.82-2.15-1.56-1.3Z"/>
  <path class="cls-1" d="M182.64,328.93c-4.27-2.94-7.77-5.99-11.92-7.82-.19-.09-1.68-3.69-1.81,0,6.58,4.82,10.39,7.89,17.63,11.99,2.26-4.33-3.25-3.73-3.89-4.17Z"/>
  <path class="cls-1" d="M391.31,345.61l1.04-.52c-1.3-4.38-14.28-13.27-18.14-16.69l-.52.52c2.44,1.99,17.17,14.98,17.63,16.69Z"/>
  <path class="cls-1" d="M127.43,82.77c1.51,1.41,4.93,3.92,5.18,4.17-1.85-3.8-8.23-10.65-12.44-11.47,2.38,2.38,4.81,5.02,7.26,7.3Z"/>
  <path class="cls-1" d="M135.73,91.12c-1.05-1.9-.94-2.03-2.59-3.65-.09,1.33,1.18,3.73,2.59,3.65Z"/>
  <path class="cls-1" d="M356.05,118.5c-.23-1.01-4.01-4.65-5.18-5.48-5.61,1.84.3,3.98-4.67,6.26.83.78-1.34,1.77,2.07,1.3l-1.04,2.35c1.77,1.85,3.53,3.78,5.18,5.74-.65-4.47,4.77-5.17,3.63-10.17Z"/>
  <path class="cls-1" d="M147.65,130.23c.27-.83-.54-1.08-.52-1.56-1.16,2.13-2.72,3.82-4.15,5.74h.52c1.81,1.61,3.12-2.97,4.15-4.17Z"/>
  <path class="cls-1" d="M300.32,91.12c4.67,1.8,11.87,7.07,16.07,8.34.6.18,2.69.36,2.33-1.04-9.59-5.64-17.1-8.24-27.22-11.47-.33-.11-.78-.5-2.59-1.04-6.17-1.83-12.01-4.01-18.14-5.22-.57-.11-2.45,1.07-2.59,1.04-.41-.08-1.48-.68-3.37-1.04l-.52,1.04c11.33,1.41,25.62,5.38,36.03,9.39Z"/>
  <path class="cls-1" d="M346.2,119.28c-2.3-2.16-7.55-3.73-3.11-7.3v-1.04c-.89.5-3.16,2.6-3.37,2.61-.21,0-2.36-2.12-3.37-2.61-.45-.22-1.29.38-1.04-1.04-3.89-2.65-7.17-5.78-11.15-8.34-.41-.26-2.71-1.9-3.89-2.61-3.9,1.52,3.94,4.99,5.7,6.26l1.3-1.04-.78,1.56c7.76,5.64,14.01,10.19,20.74,17.21l1.04-2.35c-3.41.47-1.24-.52-2.07-1.3Z"/>
  <path class="cls-1" d="M162.42,131.79c48.01-50.1,128.61-51.45,176,0,1.16.45,1.86,1.87,3.11,2.09-44.09-54.26-133.59-54.69-179.11-2.09Z"/>
  <path class="cls-1" d="M125.36,206.37c.02-.17-.02-.35,0-.52.2-1.62.41-7.73,2.59-7.82.86-4.44,1.71-8.7,1.56-13.3-.02-.74,2.43-.46-1.04-2.09,1.53-4.29,1.38.78,2.59-.52-.3-1.63,5.91-10.91,1.04-9.13-.1.38-2.93,7.53-4.15,6.26-2.91,9.29-3.79,20.52-4.15,30.25l1.56,2.35c.15-1.76-.21-3.76,0-5.48Z"/>
  <path class="cls-1" d="M205.97,106.24c.48-.19,1.53-1.69,2.59-2.09,4.41-1.63,10.73-3.78,14.52-4.69,10.64-2.56,21.64-3.79,32.66-3.65-4.94-.64-10.59-.93-15.55-.52-20.92,1.74-45.03,11.79-61.43,24.77,8.9-4.99,17.2-10.95,26.7-14.86.28-.12.23,1.16.52,1.04Z"/>
  <path class="cls-1" d="M130.54,245.48c0-1.18-.23-2.52-.52-3.65-.8-3.12-.29-3.35-.52-5.48-.04-.41-1-.11-1.04-.52,0-.09,1.8-.61,1.04-1.56-1.01-1.28-2.01,1.68-1.56-2.87-.8-.04-.5-.96-.52-1.56-.02-.86.07-1.76,0-2.61-.08-.95-.5-1.17-.52-1.56l-1.04.52c-.18,1.65.78,4.19-1.56,4.17.26,2.49,1.75,15.74,2.59,16.95.5.71,2.59.44,3.37.26l-1.81-1.83c.78-.07,1.22.6,2.07-.26Z"/>
  <path class="cls-1" d="M125.88,226.19c.62-5.62.67-11.81.52-17.47-.03-.95.52-2.58-1.04-2.35-.21,1.72.15,3.71,0,5.48l-1.56-2.35c-.28,7.69-.29,13.18.52,20.86,2.33.02,1.37-2.52,1.56-4.17Z"/>
  <path class="cls-1" d="M175.64,112.5c-9.39,4.26-14.59,12.01-20.74,19.3,6.51-6.41,15.14-12.92,20.74-19.3Z"/>
  <path class="cls-1" d="M317.69,107.02l22.81,16.95c-4.87-4.75-11.15-11.01-16.85-14.6-.71-.45-5.35-3.42-5.96-2.35Z"/>
  <path class="cls-1" d="M207.01,94.24c-1.29.16-13.08,5.74-15.03,6.78-.92.49-9.16,4.91-8.55,6,8.48-3.95,16.66-8.83,25.4-11.99.15-1.08-1.13-.87-1.81-.78Z"/>
  <path class="cls-1" d="M245.37,89.55c-5.41.17-12.43.83-17.37,2.87l34.47-1.3c.34-1.15-.96-.96-1.56-1.04-3.81-.56-11.55-.65-15.55-.52Z"/>
  <path class="cls-1" d="M151.54,140.66l15.29-15.91c-.14-.36-.96-.35-1.3-.26-1.92.5-13.39,13.22-14,16.17Z"/>
  <path class="cls-1" d="M129.76,194.9c-1.49,5.77-.76,12.33-1.04,18.25,1.77-5.82,1.44-12.26,1.04-18.25Z"/>
  <path class="cls-1" d="M139.1,155.26c2.24-4.52,5.85-7.66,7-13.04-1.1,1.38-7.39,10.59-7.52,11.47-.08.58.23,1.09.52,1.56Z"/>
  <path class="cls-1" d="M288.14,101.81l-13.22-3.91c-.08.9,4.06,2.41,4.67,2.61,1.83.61,6.51,1.24,8.55,1.3Z"/>
  <path class="cls-1" d="M138.06,155.78l-2.85,4.43-1.3,6.52c.74-.98,5.98-10.99,4.15-10.95Z"/>
  <path class="cls-1" d="M288.66,102.33c1.21.92,2.79,1.19,4.15,1.83,3.29,1.54,7.33,2.67,10.37,4.17-3.88-2.89-9.85-5.6-14.52-6Z"/>
  <path class="cls-1" d="M185.24,110.41l9.59-6.52c-.53-.99-9.24,4.69-10.37,5.48.52-.3.57,1.16.78,1.04Z"/>
  <path class="cls-1" d="M218.41,90.59l-9.07,3.91c.71.72,12.31-3.26,9.07-3.91Z"/>
  <path class="cls-1" d="M132.1,172.99c.18-.69-.14-1.82,0-2.61-2.03,3.01-3.02,5.26-4.15,8.87,1.22,1.28,4.05-5.88,4.15-6.26Z"/>
  <path class="cls-1" d="M139.1,168.82l4.15-10.43c-1.83,2.75-4.59,7.11-4.15,10.43Z"/>
  <path class="cls-1" d="M218.67,94.51c-.42-.41-1.25-.31-1.81-.26-1.96.18-6.78,2.86-9.07,3.39,1.22,1.13,11.19-2.64,10.89-3.13Z"/>
  <path class="cls-1" d="M149.72,138.05c1.03-1.34,3.97-4.82,5.18-6.26-3.34,3.29-2.63,1.77-5.18,6.26Z"/>
  <path class="cls-1" d="M127.95,216.54c-1.77.78-1.14,7.09-1.04,9.13.02.39.44.62.52,1.56l.52-10.69Z"/>
  <path class="cls-1" d="M260.41,95.81c2.98,1.34,7.47,2.23,10.63,1.83l-10.63-1.83Z"/>
  <path class="cls-1" d="M307.84,110.93c3,1.65,5.56,4.04,8.81,5.22-2.1-1.57-5.22-5.68-8.81-5.22Z"/>
  <path class="cls-1" d="M125.36,205.85c1.84-.74,2.18-5.69,2.59-7.82-2.18.09-2.39,6.2-2.59,7.82Z"/>
  <path class="cls-1" d="M139.36,263.22c-1.69-.62-1.62,3.21-1.56,3.39.44,1.23,1.97.74,2.07.78,1.17-1.52-.2-2.81-.52-4.17Z"/>
  <path class="cls-1" d="M135.47,255.91l-1.3-.78,1.81,4.95c.32.12,1.9-4.4-.26-3.39l.78-2.87-1.04,2.09Z"/>
  <path class="cls-1" d="M134.95,173.51l-2.59,9.91c1.21-2.81,3.24-6.97,2.59-9.91Z"/>
  <path class="cls-1" d="M310.43,101.81l-6.48-2.87c1.19,1.95,4.26,3.92,6.48,2.87Z"/>
  <path class="cls-1" d="M146.87,143.27c1.82-1.08,2.64-4.84,2.85-5.22-.71.93-2.52,2.78-3.63,4.17l.78,1.04Z"/>
  <path class="cls-1" d="M299.55,96.59l-7-2.35c.35,3.24,1.9.97,2.07,1.04,2.05.87,3.34,3.33,4.92,1.3Z"/>
  <path class="cls-1" d="M301.62,101.02c-2.23-1.23-4.48-3.09-7.26-2.87,1.64,2.48,5.56,2.24,7.26,2.87Z"/>
  <path class="cls-1" d="M145.84,150.05l3.63-7.3c-.66.73-5.12,6.59-3.63,7.3Z"/>
  <path class="cls-1" d="M343.35,132.84c.78-2.76-2.58-4.22-4.41-5.74.24.3,3.89,5.71,4.41,5.74Z"/>
  <path class="cls-1" d="M204.94,98.42l-5.96,2.87c1.49.34,7.76-1.02,5.96-2.87Z"/>
  <path class="cls-1" d="M221.27,93.98c1.58.09,5.64-.41,5.96-1.83-.69.02-1.39-.04-2.07,0-.5.03-3.85.74-3.89,1.83Z"/>
  <path class="cls-1" d="M129.25,222.02c-.16,1.53-1.03,5.26.52,6.26.15-1.53,1.03-5.23-.52-6.26Z"/>
  <path class="cls-1" d="M129.76,221.49c0-2.14.26-6.07-1.04-7.82.45,2.3-.48,6.02,1.04,7.82Z"/>
  <path class="cls-1" d="M131.84,250.18c1.55.48,2.08-4.02,0-3.65-1.34.24-.59,3.47,0,3.65Z"/>
  <path class="cls-1" d="M273.63,92.42c-.74-1.4-3.65-1.27-4.92-1.3-.52,1.6,4.37,1.47,4.92,1.3Z"/>
  <path class="cls-1" d="M274.14,92.42c.57,1.96,4.24.74,4.67.78-1.55-.53-2.79-1.79-4.67-.78Z"/>
  <path class="cls-1" d="M131.84,196.46c.64-1.58,2.14-4.42.52-5.74l-.52,5.74Z"/>
  <path class="cls-1" d="M182.9,107.54c-2.84-.77-2.99,1.3-3.63,2.35,1.8-.78,2.13-.65,3.63-2.35Z"/>
  <path class="cls-1" d="M264.04,90.59c-.83,1.31,3.78,1.48,3.89,1.3,1.09-1.84-3.3-1.26-3.89-1.3Z"/>
  <path class="cls-1" d="M133.39,167.26c-2.08-1.31-1.25,2.86-1.3,3.13.11-.16,2.76-2.21,1.3-3.13Z"/>
  <path class="cls-1" d="M335.84,124.23c.09,1.73,2.41,2.29,3.11,2.87-.52-.67-1.27-3.53-3.11-2.87Z"/>
  <path class="cls-1" d="M282.96,93.98c-1.35-.49-2.73-.63-4.15-.78.23.08,2.4,2.66,4.15.78Z"/>
  <path class="cls-1" d="M130.02,241.83c.29,1.13.51,2.47.52,3.65,1.39-1.4,1.36-3.25-.52-3.65Z"/>
  <path class="cls-1" d="M181.35,111.98c.19-.1,2.72-.97,2.85-1.04.53-.3.14-1.5.26-1.56-1.56,1.08-1.84,1.48-3.11,2.61Z"/>
  <path class="cls-1" d="M141.69,155.26l-1.56,4.17c.97-.41,2.86-3.37,1.56-4.17Z"/>
  <path class="cls-1" d="M301.62,101.02c1.26.7,2.01,1,3.11,1.56-1.26-.68-1.51-.97-3.11-1.56Z"/>
  <path class="cls-1" d="M307.84,103.89c-.66-.9-2.69-1.07-3.11-1.3.54.28,1.73,3.48,3.11,1.3Z"/>
  <path class="cls-1" d="M346.2,140.14c.8-1.32-.5-3.41-2.07-2.09.45.62,1.76,1.62,2.07,2.09Z"/>
  <path class="cls-1" d="M354.76,146.4l1.56,2.61c.45-.05-.19-3.39-1.56-2.61Z"/>
  <path class="cls-1" d="M145.84,155.26c.75-.63,1.64-2.44.52-3.13-.05.8-1.62,2.48-.52,3.13Z"/>
  <path class="cls-1" d="M177.72,111.19c-.96-1.78-1.97,1.19-2.07,1.3.35-.16,2.56-.4,2.07-1.3Z"/>
  <path class="cls-1" d="M131.32,201.68c-.19,1.06-1.19,2.15-.52,3.13,1.12.61.94-3.05.52-3.13Z"/>
  <path class="cls-1" d="M131.32,223.06c.41-.07.62-3.72-.52-3.13-.75.39.38,2.49.52,3.13Z"/>
  <path class="cls-1" d="M180.05,113.54c1.15-.25,1.22-1.5,1.3-1.56-.91.5-3.01.24-1.3,1.56Z"/>
  <path class="cls-1" d="M353.2,144.31c-.4.71,1.51,2.13,1.81,1.3.04-.12-1.1-1.95-1.81-1.3Z"/>
  <path class="cls-1" d="M138.84,261.65l-2.07,1.3,2.07-.78c-.05-.16.05-.36,0-.52Z"/>
  <path class="cls-1" d="M325.99,105.2s.05.18.52.52l.78-1.56-1.3,1.04Z"/>
  <path class="cls-1" d="M127.95,231.4c.07-.67,1.45-1.61-.52-1.56.01.6-.28,1.52.52,1.56Z"/>
  <path class="cls-1" d="M144.28,157.87c.09-.02,1.28-1.7,0-1.56-.99.1-.53,1.67,0,1.56Z"/>
  <path class="cls-1" d="M137.02,261.65c.62-.27.27-1.33-.52-1.04-.62.23-.24,1.38.52,1.04Z"/>
  <path class="cls-1" d="M178.24,110.67c1.24.96.98-.76,1.04-.78-.03.06-1.29-.3-1.04.78Z"/>
  <path class="cls-1" d="M133.39,245.48c-.62.23-.24,1.38.52,1.04.62-.27.27-1.33-.52-1.04Z"/>
  <path class="cls-1" d="M132.36,238.7c.62-.27.27-1.33-.52-1.04-.62.23-.24,1.38.52,1.04Z"/>
  <path class="cls-1" d="M132.88,232.97c-.45.31-.39,1.31,0,1.56.68.43.64-2.01,0-1.56Z"/>
  <path class="cls-1" d="M354.76,151.09c-.09.01-1.04.78-.52,1.04,1.08-.01,1.81-1.22.52-1.04Z"/>
  <path class="cls-1" d="M360.98,162.04c-1.07-.3-.71,1.06-.78,1.04h.52c0-.05,1.1-.14.26-1.04Z"/>
  <polygon class="cls-1" points="302.4 98.42 302.14 99.2 302.4 99.46 303.18 98.68 302.4 98.42"/>
  <polygon class="cls-1" points="316.14 106.5 316.4 106.76 317.17 105.98 316.4 105.72 316.14 106.5"/>
  <polygon class="cls-1" points="132.62 228.01 131.84 227.75 131.58 228.53 131.84 228.8 132.62 228.01"/>
  <polygon class="cls-1" points="357.87 151.09 357.61 151.87 357.87 152.13 358.65 151.35 357.87 151.09"/>
  <path class="cls-1" d="M349.32,297.64c3.64.34-1.57,3.83,2.07,4.17,5.9-7.13,11.54-16.16,15.55-23.99-2.46-.94-2.27-1.39-1.56-3.65h-1.56c-1.04,2.11-1.96,4.2-3.11,6.26-3.38,6.05-7.05,11.83-11.41,17.21Z"/>
  <path class="cls-1" d="M382.49,226.19c-.31.62-.75,2.17-1.56,1.83.68-4.33-.68-9.1-.52-13.3-2.06.24-1.42-.4-1.56-1.83-3.48-38.05-10.52-61.79-38.36-88.92.3.76-.57,1.25-.52,1.3,2.86,2.85,8.08,7.51,10.37,10.43,8.57,10.94,18.39,29.59,22.29,43.02,5.6,19.26,6.51,40.78,3.11,60.5-2.26,13.14-6.1,23.09-11.92,34.94h1.56c.57-1.79,3.94-7.26,6.22-4.43.16.44-4.12,7.02-4.67,8.08-4.01,7.83-9.65,16.86-15.55,23.99-14.42,17.42-36.97,31-58.32,38.07-27.77,9.19-55.63,7.68-82.43,1.04l-20.22-8.34-1.3,1.83c2.38-.84,1.27,1.04,1.56,1.3,1.14,1.04,17.62,7.64,19.96,8.34,5.93,1.79,25.17,6.17,30.85,6.26.17,0,.35,0,.52,0,.45,0,.55-.58,1.56-.52,2.08.13,4.65-1.56,4.92-1.56.23,0,2.37.97,4.41,1.04,1.48.06,4.91,1.56,5.18,1.56.34,0,.69,0,1.04,0,21.27-.54,57.91-16.09,75.43-29.2.77-.58,3.36-4.58,3.63-4.69.11-.05.86,1.04,1.04,1.04,4.45.14,1.32.6,4.15,2.61,2.07,1.47,4.66,3.39,6.74,4.69.79.49,2.25-.67,2.59-.52,6.81,2.99,20.06,29.81,31.11,31.29,5.26.7,10.14-5.63,8.55-10.95l-1.04.52c.95,3.58-.93,6.26-3.89,7.82-2.1-1.05,0-3.84-.52-4.17-2.72,2.11-4.87-2.98-5.18-3.13-.5-.23-1.19.91-2.07.52-.48-.21.14-3.07-2.07-.52.85-3.71-1.23-3.09-1.81-3.91-.55-.78-.15-2.28-.26-2.35-.4-.24-2.29.23-2.59,0-.51-.39.76-1.09.26-1.3-2.21-.94-2.94.39-3.37.26-.91-.28-.04-3.77-2.59-2.09l1.3-2.35c-4.09.58-.44-1.03-.52-1.56-.02-.15-2.45-1.32-2.59-1.56-.28-.49.09-2.26-1.3-3.91-.66-.79-1.5.05-1.56,0-.27-.24-.38-1.53-1.56-2.61-.06-.06-.98,1.04-1.56.52-.51-.46.7-.89.26-1.3-.52-.48-2.48-.44-2.59-2.09-.05-.81,1.74-2.04,1.04-3.65,1.5-2.47,4.99,3.2,6.48,4.43,2.61,2.17,6.79,4.4,9.07,6.26l.52-.52c-2.34-2.07-12.6-10.18-13.48-11.47-.02-.03-.19.16-.52-.52-1.24-2.56,1.85-4.08-3.63-8.34,1.77,3.37-6.81,11.64-7,5.22l-1.56,1.04c1.66-4.01-2.07-1.46-1.81-3.39,1.49-1.24,4.4-6.55,6.48-6,.19.05,1.64,1.81,2.85,2.61.01-1.19-2.74-4.13-2.59-4.95.1-.55,6.46-7.14,7.26-8.34,12.91-19.41,18.89-35.34,23.33-58.15-3.69-.63.6-6.95-1.04-9.91Z"/>
  <path class="cls-1" d="M366.94,277.82c.54-1.06,4.83-7.64,4.67-8.08-2.28-2.83-5.65,2.64-6.22,4.43-.72,2.26-.9,2.71,1.56,3.65Z"/>
  <path class="cls-1" d="M139.61,277.3c-1.01,1.58.18,3.8-2.85,4.17,1.05,1.86,3.44,4.3,2.59,6l16.07,18.77-2.59,1.3c5.37,5.49-1.63,3.09,1.04,8.61l-1.56.52c.18.47.97.17,1.04.26,2.21,2.94-1.19,1.47,1.3,3.65,2.5-5.89,2.34-2.06,6.48-4.95l.26-1.3c-3.39-.31-7.88-4.64-2.33-5.22-.29-1.25-.73-4.1,1.04-3.65-.1-.11-.96-1.94-1.56-2.61-7.41-8.24-13.66-15.59-18.92-25.55Z"/>
  <path class="cls-1" d="M147.65,130.23c24.72-29,59.4-46.56,97.46-48.5.35-.72-1.9-2.03-2.07-2.09-.88-.28-.98-.52-1.04-.52-.54-.04-3.9,1.51-4.41,1.56-18.37,1.98-39.43,7.54-57.54,18.77-2.37,1.4-16.53,13.41-17.63,13.56-1.32.17-4.06-3-5.18-3.65-.36-.21-1.7.21-2.07,0-1.44-.81-1.92-3.03-2.07-3.13-.25-.16-4.55-.68-5.7-1.56-3.13-2.38-7.57-10.89-11.66-13.04.42.77.62,2.94,1.04,3.65,1.89,3.18,12.27,10.33,9.59,13.56-2.16,2.61-2.92-.95-3.63-1.56-.05-.04-.52,1-1.3.26-.19-.18.19-1.9,0-2.09-.77-.74-1.25.31-1.3.26-.47-.43-3.19-4.42-3.63-4.69l-4.67-.52c1.43-4.52-2.88-2.03-4.93-3.91-.52-.48-.96-2.85-1.56-3.65-.13-.17-1.01.42-2.07-1.04-.09-.13.99-1.94-.52-3.13-.52-.41-3.05.56-3.63-.52-.44-.82.56-1.49.52-1.56-.39-.72-2.58-4.86-2.85-4.95-.7-.26-1.43,1.1-1.56,1.04-.54-.27,0-1.41-.52-1.56-.72-.22-3.63.83-3.89-.26,1.73-3.32,4.5-5.73,8.29-5.48-1.11-3.08-7.4,1.12-8.29,2.35-7.44,10.21,15.08,22.54,21,27.9,1.73,1.56,6.08,5.86,7.52,7.56,2,2.37.47,3.25,3.63,5.48.36.25,2.04-.16,0,1.04-.98,3.42,4.35,4.14,4.15,8.87-.02.48.79.73.52,1.56ZM154.65,110.41c2.14-.08,4.64,2.54,6.48,3.91-1.42,3.25-6.7,3.89-7.52,7.56-.88.08-1.44-7.5-3.37-6-.24-2.71,1.46-5.36,4.41-5.48ZM150.5,106.76c5.17,2.71.15,4.06-2.59,5.74-1.84-2.17.98-4.23,2.59-5.74Z"/>
  <path class="cls-1" d="M159.06,309.11c-5.55.57-1.06,4.9,2.33,5.22l-.26,1.3c-4.14,2.89-3.98-.94-6.48,4.95-2.49-2.18.92-.71-1.3-3.65-.58,2.64-7.72-5.96-7.78-6.52-.12-1.09,3.85-3.7,3.89-5.48,1.92-.47,2.17,1.38,3.37,2.61l2.59-1.3-16.07-18.77c.85-1.7-1.55-4.13-2.59-6-.3-.53-.65-1.36-1.04-2.09l-1.56,1.56c2.48,4.46,4.93,9.09,7.78,13.3.93,1.38,7.17,8.03,7.26,8.87.24,2.24-7.26,5.9-7.26,11.21,1.33.52.25.72,0,1.04-2.34,3-8.14,8.39-11.15,10.95-4.25,3.62-17.29,12.06-19.96,17.47-4.46,9.04,4.99,15.59,14.26,9.13,6.93-4.83,19.19-26.17,24.37-28.68.16-.08,2.63.63,3.63,0,2.86-1.82,6.17-5.19,8.29-7.82,2.26-.41,2.73,2.07,3.63,2.61.05.03.5-.71.78-.52.41-4.66-5.58-4.4-6.74-9.39ZM144.8,326.84c-.23.17-1.85-1.25-2.33.26-.05.16,2.03,1.94-.26,2.35-.2.04-1.31-3.71-1.3-3.91.1-1.22.79-.42,1.04-1.3-3.09-1.59-1.08,3.94-1.3,4.17-.18.2-3.78-.3-4.92,1.3.81.52,1.4,1.19,2.07,1.83.16.15,2.31.2,2.07,1.3-.05.82-5.76,4.66-6.22,5.22-.13.15-.63,2.49-1.56,3.65-.43.53-.86-.84-1.56,0-.05.06,1.02.97.52,1.56-2.96,3.5-9.25,11.53-14.26,11.21-1.54-.1-4.64-3.85-4.92-4.69-.19-.56-.62-2.87-.52-3.39,1.37-7.08,26.17-22.51,30.85-29.47,1.17-.28,4.3,3.03,4.92,3.91.03.04-.68.47-.52.78.06.11,1.38-.25,1.56.26-1.62,1.21-1.81,3.75-3.37,4.95ZM150.5,322.67c-.67-.27-9.78-10.53-6.74-11.47l8.81,10.95c-.73-.02-1.24.85-2.07.52Z"/>
  <path class="cls-1" d="M121.47,344.05l-9.59,5.74c.28.84,3.39,4.6,4.92,4.69,5.01.32,11.3-7.71,14.26-11.21.51-.6-.57-1.5-.52-1.56.7-.84,1.13.53,1.56,0,.93-1.16,1.43-3.5,1.56-3.65.46-.55,6.17-4.4,6.22-5.22.24-1.1-1.92-1.16-2.07-1.3-.76.69-4.22.41-4.41.52-1.76,1.05-9.5,10.13-11.92,11.99Z"/>
  <path class="cls-1" d="M146.61,321.62c-3.27-1.51-1.15,2.54-3.89,0-1.07.82-.41,1.28-.78,2.61-.25.88-.94.08-1.04,1.3-.02.21,1.09,3.95,1.3,3.91,2.28-.4.21-2.19.26-2.35.48-1.51,2.11-.09,2.33-.26,1.56-1.21,1.75-3.74,3.37-4.95-.17-.51-1.5-.15-1.56-.26Z"/>
  <path class="cls-1" d="M350.87,272.34c-2.76-.4-2.09-1.86-2.59-2.35-.18-.18-1.65-.49-2.07,0-.02.17.04.36,0,.52-.01.06,1.1.46,1.04.78-1.41,7.67-20.83,27.46-27.48,32.59l2.07,2.61c4.94-3.78,10.69-8.11,15.03-12.52,4.78-4.84,8.89-10.39,12.44-16.17-4.95,1.44,1.53-4.87,1.56-5.48Z"/>
  <path class="cls-1" d="M250.3,328.4c-1.08,0-3.49-.93-5.18-1.04-5.68-.39-10.5-.94-16.07-2.09-.72,1.29.41,2.93-1.04,2.61,8.74,1.67,12.65,2.45,22.29,2.61v-2.09Z"/>
  <path class="cls-1" d="M168.91,288.25c.09-.24-.94-1.15-.52-1.83,1.24-1.97,5.36-5.29,7.26-7.56-3.41.94-5.46,4.39-8.55,6.78-.9.04-2.72-2.35-3.37-3.13-1.2.19-1.43.71-1.93.29,1.08,1.29,2.18,2.33,3.49,3.88,1.67-1.69,3.47.94,1.04,1.56.35.4.49.95,1.04,1.56-.12-.58,1.52-1.46,1.56-1.56Z"/>
  <path class="cls-1" d="M145.84,264.26c.37,2.35.68,2.24-.78,4.43l2.07-1.04c-1.31,3.05.54.73,1.04,1.56.81,1.35,1.98,5.45,3.11,7.3,1.22,2,10.69,16.18,11.66,16.43,1.46.38,1.1-.64,1.81-1.3-.49-.59-1.71.07-2.07-.52-.28-.46,1.93.64,1.04-1.56-.16-.4-4.58-4.88-5.18-5.74-1.63-2.3-2.79-4.36-4.15-6.52-3.24-5.15-6.32-10.3-9.07-15.65-.4-.07-.21,1.01-.26,1.04-.1.55-.33,1.66-.52,2.09.23-.18,1.02-.68,1.3-.52Z"/>
  <path class="cls-1" d="M142.47,272.08c-.14.12-.78.46-1.04.52v.52c.53-.22.47-.14,1.04-.52v-.52Z"/>
  <path class="cls-1" d="M358.65,280.43c1.23-2.03,12.84-24.52,11.15-25.03-5.46,12.18-11.29,24.42-19.44,35.2-7.48,9.89-22.73,24.99-33.44,31.03-.46.26-2.76,1.13-1.04-.52,3.78-2.46,7.75-4.74,10.63-8.34-1.47.99-3.45,2.72-5.18,2.87l6.48-5.48c1.42.02-1.12,2.38-1.3,2.61,4.1-2.76,7.03-5.79,10.37-9.39l-1.04-.26c-.05-.54,6.88-6.57,7.78-7.56,15.49-20.02,26.27-44.11,29.81-69.36,1.58,4.22-1.57,9.05-1.3,13.3-3.34,14.94-12.89,36.33-22.62,49.49,9.91-12.85,16.79-25.83,21.58-41.93,3.22-10.8,4.53-21.79,4.67-33.12.03-2.26.66-5.92-1.04-7.3l-.52,2.61-2.59-10.17c1.2,5.68,2,11.19,1.56,16.95l1.56-5.22c-3.41,43.69-23.76,85.75-61.43,109.26-42.87,26.75-106.98,20-143.6-12.52-1.13-1-3.14-3.19-4.41-4.43-.05-.05,1.01-.55.26-1.3-.18-.18-1.38.18-1.56,0-4.31-4.42-7.46-10.27-11.15-14.34-.47-.52-.77.54-1.04.26,7.69,15.31,29.37,31.46,44.84,38.59,35.63,16.41,85.9,15.73,118.72-6.78-2.46,3.12-6.75,6.39-10.11,8.34,1.32-.55,2.85-.98,4.15-1.56,18.35-8.31,38.79-28.7,49.25-45.89Z"/>
  <path class="cls-1" d="M250.3,330.49c-9.65-.16-13.56-.94-22.29-2.61-5.7-1.09-11.69-1.72-17.37-3.65-2.89-.98-7.95-5.29-10.37-3.65.28-2.87-.92-.98-1.04-1.04-8.42-4.22-13.87-10.24-20.74-16.17-.17-.15-1.95.16-2.59-2.61l-1.56,1.56.52-2.09c-1.89,2.6-11.7-10.89-10.63-5.48.18.9,11.7,11.56,13.22,12.78,11.38,9.1,23.34,14.49,36.81,18.77.52.17,0,1.41.52,1.56.76.23,1.39-1.09,1.56-1.04,28.87,8.1,56.19,7.92,83.98-4.69,13.9-6.31,26.87-16.24,36.55-28.16-4.35,4.41-10.09,8.74-15.03,12.52-22.18,16.97-43.91,24.43-71.54,23.99Z"/>
  <path class="cls-1" d="M224.12,336.75c-4.69-.87-10.18-4.09-14.77-3.39,28.01,9.46,69.81,9.68,95.91-5.48-24.92,10.31-53.71,13.95-81.13,8.87Z"/>
  <path class="cls-1" d="M216.08,329.71c-11.13-4.35-22.46-8.62-32.4-15.38-10.54-7.18-19.16-17.23-27.74-26.6,12.7,20.63,37.03,36.39,60.14,41.98Z"/>
  <path class="cls-1" d="M338.17,296.07c-19.08,20.31-44.07,33.68-71.8,37.29,27.39-1.78,54.38-15.98,71.8-37.29Z"/>
  <path class="cls-1" d="M371.35,226.71c1.59-7.26.9-15.72-.52-22.95.6,7.62-.13,15.32.52,22.95Z"/>
  <path class="cls-1" d="M163.72,282.51c-1.17-1.39-2.04-3.19-3.11-4.69l-1.56,1.56c.72,1.01,1.39,1.7,2.07,2.61.22.29.44.55.66.81.5.42.73-.1,1.93-.29Z"/>
  <path class="cls-1" d="M161.79,282.8c-.22-.26-.44-.52-.66-.81.29.42.49.67.66.81Z"/>
  <path class="cls-1" d="M221.78,331.27c-1.12-1.11-2.93-1.38-4.41-1.3.63,1.16,3.26,1.88,4.41,1.3Z"/>
  <path class="cls-1" d="M165.28,286.68c.35.42.68,1.16,1.04,1.56,2.43-.62.63-3.25-1.04-1.56Z"/>
  <path class="cls-1" d="M150.24,285.12c.24.9-.56,1.25-.52,1.3.32.44,1.99,1.22,2.07,1.3-.67-1.34.47-.93-1.56-2.61Z"/>
  <path class="cls-1" d="M155.94,287.73c-.91-1.47.11-.89-2.07-2.61.95,1.98,1.03,1.46,2.07,2.61Z"/>
  <path class="cls-1" d="M148.95,281.99c-.24.59-1.22.44-1.3.78-.42,1.95,2.64-.32,1.3-.78Z"/>
  <path class="cls-1" d="M143.76,266.34c1.26.22.62-1.44.78-1.56-.04.08-1.73.67-.78,1.56Z"/>
  <path class="cls-1" d="M152.06,283.03c.96.38,1.05-1.4.52-1.56-.18-.06-1.31,1.26-.52,1.56Z"/>
  <path class="cls-1" d="M144.02,271.3c-.94-.91-1.25.52-1.56.78v.52c.59-.39,1.12-.73,1.56-1.3Z"/>
  <path class="cls-1" d="M149.46,284.08c-.96,1.25.76.98.78,1.04-.08-.07.32-1.28-.78-1.04Z"/>
  <path class="cls-1" d="M153.87,285.12c-.08-.06.31-1.28-.78-1.04-.59.59.75.98.78,1.04Z"/>
  <polygon class="cls-1" points="150.5 280.95 151.28 280.69 151.02 279.9 150.24 280.69 150.5 280.95"/>
  <polygon class="cls-1" points="150.5 278.86 149.98 278.34 149.98 279.38 150.5 279.38 150.5 278.86"/>
  <path class="cls-1" d="M304.73,118.76s.61-.07.52.52c5.45,1.49,11.48,7.94,16.59,10.69.62,1.79-8.51,9.46-8.81,10.43-.85,2.72,2.41,4.92-1.04,7.04.64.33.47.47.52.52,2.28-1.87,8.24,5.73,5.7,7.3.26.17,1.45.55,1.56.52.41-.5-.53-.3,1.04-1.04,1.36-.64,3.98-.21,5.44-1.04.23-.13,2.66-3.53,3.37-4.17-2.25-1.82-2.4,2.14-3.89,1.56-2.41-.92,1.25-3.17,1.3-3.39.14-.63-5.83-.88-6.22-1.04l1.56,2.87c.43.55,1.31,1.01,1.56,1.83-.3,5.06-10.98-5.27-9.85-9.91.43-1.78,8.57-7.86,9.33-9.13.09-.14.29-2.79,0-3.39-.4-.85-4.55-3.18-5.44-3.91-5.01-4.06-4.87-3.81-10.89-6.78-.15-.07.58-1.29-1.56-2.09-2.54-.95-2.94.56-3.11.52-.23-.06.44-2.14-2.07-3.65-3.77-2.26-23.5-8.62-27.99-9.39-1.45-.25-10.48-1.51-9.59,1.04,6.88,1.03,14.93,3.28,21,5.22,4.76,1.52,17.79,5.55,21,8.87Z"/>
  <path class="cls-1" d="M358.65,186.81c.17-2.04-.43-6.59-1.04-8.34-1.12-3.24-4.59-11.86-6.22-15.12-1.57-3.13-2.99-2.91-3.11-3.13-1.1-1.94-6.75-14.47-9.07-14.34-.29.02-1.17,1.56-1.81,1.56,9.91,11.2,16.75,27.23,20.22,41.72,2.75.47,3.92-4.25,1.04-2.35Z"/>
  <path class="cls-1" d="M346.2,269.99c.42-.49,1.89-.18,2.07,0,3.51-4.19,6.62-10.62,8.29-15.91.97-3.07,4.04-11.15,1.04-12.78-1.09,4.66-3.43,11.94-5.18,16.43-1.33,3.39-5.87,9.2-6.22,12.26Z"/>
  <path class="cls-1" d="M142.47,184.73c.84-2.35.74-2.69,3.11-2.87-3.06-1.13.6-5.7,1.04-7.04,14.57-44.76,60.46-73.58,107.05-72.23.95.03,2.56-.52,2.33,1.04,1.81-.53,1.51.05,2.07,0,.08,0-.38-1.48,1.3-1.04.97.64.71,1.16.78,2.09.84.08,1.77-.12,2.59,0-.89-2.55,8.14-1.29,9.59-1.04,4.5.77,24.22,7.13,27.99,9.39,2.52,1.51,1.84,3.59,2.07,3.65.18.04.57-1.47,3.11-.52,2.14.8,1.4,2.01,1.56,2.09,6.01,2.97,5.88,2.72,10.89,6.78.9.73,5.04,3.06,5.44,3.91.29.6.09,3.24,0,3.39,2.9,2.48,3.48,12.41-1.04,9.13.61,4.31.23,3.12-2.59,5.22.15,1.49,1.87,1.94,2.59,2.87l-1.56-2.87c.39.17,6.36.42,6.22,1.04-.05.22-3.71,2.47-1.3,3.39,1.49.57,1.63-3.38,3.89-1.56,1.34-1.22,1.86-2.4,3.63-3.65.57-.41.78-1.97,2.33-1.56.8.42.77,1.54,1.3,2.09.08.09.42.94.52,1.04.65,0,1.52-1.55,1.81-1.56,2.33-.13,7.97,12.41,9.07,14.34.12.22,1.54,0,3.11,3.13,1.63,3.26,5.1,11.88,6.22,15.12.61,1.76,1.2,6.31,1.04,8.34,2.89-1.9,1.72,2.82-1.04,2.35,1.28,5.36,2.78,11.28,2.07,16.69.17.04,3.04,1.66,3.11,1.83.34.76.13,14.68,0,16.69-.02.25-1.53,1.3-1.56,1.56-.35,3.75,1.82,11.82-2.59,13.3-.02.11-.62.3-1.04,2.09,3,1.63-.06,9.71-1.04,12.78-1.68,5.28-4.78,11.71-8.29,15.91.5.49-.17,1.95,2.59,2.35-.02.6-6.51,6.92-1.56,5.48,7.75-12.59,14.51-29.16,16.59-43.81l.52-32.86c-4.9-43.1-34.68-79.64-74.65-94.92-87.61-33.48-178.16,47.45-153.97,137.42,1.09,4.05,5.16,10.72,3.63,14.08,7.32,2.37-4.48-10.67,2.59-10.17-1.81-6.35-5.16-16.89-5.7-22.69-.88-9.29,1.1-31.62,4.15-40.16ZM327.8,133.88c.94-.24,6.47,5.63,7,6.52.47.79,1.39,1.69.26,2.35-2.62.18-9.69-8.25-7.26-8.87ZM326.25,145.87c-.32-.03-1.24-1.24-.52-1.56,1.11-.49,1.51,1.65.52,1.56Z"/>
  <path class="cls-1" d="M365.9,234.01c1.34-9.46,1.86-21.21,1.04-30.77,0-.11-.41-1.14-.52-2.09l-.52,32.86Z"/>
  <path class="cls-1" d="M335.06,142.75c1.13-.66.21-1.55-.26-2.35-.52-.88-6.06-6.76-7-6.52-2.43.62,4.63,9.04,7.26,8.87Z"/>
  <path class="cls-1" d="M326.25,145.87c.99.09.59-2.06-.52-1.56-.72.32.2,1.54.52,1.56Z"/>
  <path class="cls-1" d="M343.61,295.55c-2.16,2.79-4.35,5.25-6.74,7.82,3.02,0,8.74-9.46,10.37-11.47-1.09,1.32-2.51,2.42-3.63,3.65Z"/>
  <path class="cls-1" d="M229.56,182.38c-.06-3.49-2.7-2.88-4.67-3.91-.28-.15-.04-3.61-4.67-1.3-.23,1.08-.35.15-.52,0-3.65-3.23-1.13-4.26-2.07-7.04-.71-2.08-10.07-9.62-12.44-11.21-.26-.17-.76-.35-1.04-.52l12.44,12.78c-.5,9.25-2.73,2.52-5.96.78-.22-.12-3.18.35-4.67-.52-.13-.08-.87-2.2-1.56-2.61-.44-.26-2.71.26-3.11,0-.8-.52-.36-1.97-.52-2.09-1.17-.85-1.51-1.11-2.59-2.09-.06-.06-.84,1-1.56.52-1.09-.73,1.51-2.71-1.3-1.83,2.72-4.21-3.47-1.98-4.67-6-.54.65-2.47,1.74-2.59,2.87-.4,3.54,11.74,18.12,15.03,20.6,1.38-1.4,3.32.41,2.59,2.09,1.37.54,3.22-2.37,3.63,2.09.18-.03.39.05.52,0,.1-.04,1.26-1.28,1.56-1.56.22-.22,1.98-3.56,3.11-4.69.56-.57,1.92-3.13,3.11-2.35.12.08,1.07,2.47,1.04,2.61-.11.53-2.19,1.26-2.59,1.83-.67.94-1.15,2.21-2.07,3.13l1.04,1.04c1.66-2.76,5.71-5.94,8.55-7.3.94.92-.18,2.23-.26,2.61-.1.48.06,1.06,0,1.56,3.47-2.4,2.99-1.14,6.22.52Z"/>
  <path class="cls-1" d="M306.29,283.03c-1.51-3.45,3.52-4.82,5.18-7.56.53-.88,1.42-4.25,1.56-5.48-3,4.29-3.53.57-3.89.52-.24-.04-1.26,1.81-2.07,1.56-.61-.19-3.11-6.62-4.41-7.56-.85-.62-1.72.74-2.33.26-1.48-1.16-2.02-3.23-3.11-4.69-.32-.43-.77,1.09-1.81-.26-1.11-1.45.13-2.83,0-3.13-.41-.93-2.67-1.68-3.11-2.09-.32-.3,2.29-2.76-2.33-1.3l-3.37-1.56c-2.01,2.33-4.57,3.83-2.59,8.08,1.07,2.29,15.27,13.74,18.4,15.38l-1.3,1.56c2.38,2.26,1.73,5.11,5.18,6.26Z"/>
  <path class="cls-1" d="M172.53,148.74c4.01,2.63,3.95,6.72,9.85,1.83l-2.07-1.3c-.3-1.11,3.69-2.9,0-2.61l1.56-1.04c-5.25-3.07-1.63-2.43-1.56-3.13.17-1.52-3.3-3.08-.52-4.17l-3.37.78c.97-3.96-1.25-.8-1.3-3.65-3.34,2.78-6.06,6.03-8.81,9.39,1.56,1.33,3.19,2.74,4.67,4.17.15-2.07.79-.76,1.56-.26Z"/>
  <path class="cls-1" d="M223.34,249.66c.16-.22-.28-1.33.26-1.56,2.52.58,1.44,1.86,4.67,1.56.54-.05,5.33-4.39,5.44-4.95.28-1.42-8.04-9.31-9.85-11.21-1.46,1.74,1.66,3.21,1.56,4.43-.04.52-2.03,1.95-2.07,2.09-.39,1.14,1.38,6.06-3.11,3.39-.73-.43-2.03-1.74-2.07-2.61h-.52c-.71,3.07-2.56-2.09-4.41-1.56,1.82,1.6-.31,1.68-.26,1.83.28.73,8.08,8.49,9.33,9.65-.12-.6.99-.98,1.04-1.04Z"/>
  <path class="cls-1" d="M222.82,240.01c.18,1.22-1.1,3.5-2.59,3.39,4.49,2.67,2.72-2.25,3.11-3.39.05-.14,2.03-1.56,2.07-2.09.1-1.22-3.02-2.69-1.56-4.43-.57-.6-.44-1.97-.78-2.09-2.68,2.14-8.75,5.2-5.44,9.39h.52c-.22-4,2.78-1.68,4.67-.78Z"/>
  <path class="cls-1" d="M175.39,277.3c-.48.35.67,1.07.26,1.56,3.2-.88,8.25.31,9.33,3.65l.52-1.04c-1.08-.98-4.95-4.16-2.59-5.22-.4-.1-1.06.26-1.04-.52-2.15,2.63-5,.49-6.48,1.56Z"/>
  <path class="cls-1" d="M290.73,245.48c.07.8-.99.44-1.04.52-.84,1.3-.58,1.64-2.59,3.13v1.04c2.29-1.82,5.29-2.78,8.29-2.61-.12-1.71-2.72-.65-4.67-2.09Z"/>
  <path class="cls-1" d="M187.57,139.62v-.52c-1.57-1.45-3.35-3.03-4.67-4.69l-1.04,1.04c1.75,1.63,3.28,3.78,4.67,5.74.04-.32.64-1.56,1.04-1.56Z"/>
  <path class="cls-1" d="M373.42,226.19c-3.54,25.25-14.32,49.34-29.81,69.36,1.12-1.23,2.54-2.33,3.63-3.65.75-.91,1.51-1.9,2.26-2.92,9.73-13.16,19.27-34.55,22.62-49.49-.28-4.25,2.87-9.08,1.3-13.3Z"/>
  <path class="cls-1" d="M335.84,303.11l1.04.26c2.39-2.58,4.58-5.03,6.74-7.82-.9.99-7.83,7.02-7.78,7.56Z"/>
  <path class="cls-1" d="M327.02,277.82c-2.58,2.32,6.83,7.36,6.74,9.65-.34.68-1.8,1.45-2.07,1.83-.76,1.04-6.99,8.1-7.52,8.34-2.76,1.28-2.29-.49-2.59-.52-1.18-.11-.72,1.06-.78,1.04,1.56,1.39.04,1.25-.52,1.83-5.14,5.25-13.11,9.46-19.7,12.78l1.04,2.09c5.86-2.89,12.99-6.97,18.14-10.95,6.64-5.13,26.06-24.93,27.48-32.59.06-.33-1.05-.72-1.04-.78l-11.15,15.12c-1.48.23-6.53-6.69-8.04-7.82Z"/>
  <path class="cls-1" d="M298.77,248.61c-.99-.67-1.63-.9-2.85-1.04,5.36,6.08,10.83,12.02,16.59,17.73.13-.93-.26-1.87-.78-2.61-.81-1.17-12.17-13.54-12.96-14.08Z"/>
  <path class="cls-1" d="M324.95,276.77c-2.4.06.12,2.95,1.04.52-.36-.24.01-.31-1.04-.52Z"/>
  <path class="cls-1" d="M189.64,265.3c-2.2-1.02-1.53.33-1.56,1.04.86.15,1.27-.28,1.56-1.04Z"/>
  <path class="cls-1" d="M313.03,287.47c-.22,3.63,2.42,1.18,2.59,1.56.09.2-.36,2.74.52,4.43.54,1.05,3.95,4.45,4.67,4.69.06.02-.4-1.15.78-1.04.31.03-.17,1.8,2.59.52.52-.24,6.76-7.3,7.52-8.34-4.05.29-3.32-1.57-4.41-2.09-2.9-1.38-4.09-.51-6.48-3.91-.44-.63.7-1.49.26-1.83-.47-.36-1.91,2.24-2.85-.52-1.54,1.53-5.04,4.19-5.18,6.52Z"/>
  <path class="cls-1" d="M313.54,163.87c1.99-2.19,5.54-2.24,5.7-4.95-1.39-.56-.02-.99,0-1.04.14-.33.43-1.99.52-2.09-.11.02-1.29-.35-1.56-.52-2.37-1.56-4.36-5.99-5.7-7.3-.05-.05.12-.19-.52-.52-.5-.26-5.62-.13-5.96,0-2.64,1.01-1.09,4.29-1.3,4.95-.31,1-2.43.16-2.59.26-.36.6-.5.49-.52.52-.06.08.08.61-.52.52-2.13,1.65-17.19,14.8-17.63,15.91-.24.61.22,2.15,0,2.87l1.56.52c.6-2.04-.06-2.11,1.56-4.43,1-1.45,13.22-12.47,14.77-13.3,2.53-1.36,5.74-2.63,7.52.52,6.32,2.99,3.36,9.48-.52,13.3-2.59,2.55-1.82.53-3.89-1.3-1.4,1.08,2.23,5.14-2.59,1.56v2.61c-2.85-2.71-2.64,2.32-5.44,0-1.66,2.76-.42,3.6-2.85,2.09-.63,3.64-3.32.89-6.48,4.43-.47,1.13,2.58,3.59,3.11,4.69.28.59-.61.86-.52,1.3.02.07,1.19.45,1.04,1.04,1.93-1.65,5.43-1.04,6.48-1.56,5.37-2.71,12.32-15.65,16.33-20.08ZM305.77,150.31c-.2-.76,1.44-1.74,1.81-1.83,4.31-1.02,10.96,10.71,8.81,10.95-2.82-4.03-6.81-6.19-10.63-9.13Z"/>
  <path class="cls-1" d="M306.29,283.03c.57.19,2.21-1,3.63.26,2.58,2.3.96,8.81,6.22,10.17-.87-1.7-.43-4.23-.52-4.43-.17-.39-2.82,2.07-2.59-1.56.14-2.33,3.65-4.99,5.18-6.52.56-.56,4.39-4.03,4.67-4.17-5.91-.47-3.31-3.62-4.15-6.52-.17-.57-4.53-3.32-5.7-4.43-.1,1.37.15,2.82,0,4.17-.13,1.23-1.02,4.6-1.56,5.48-1.67,2.74-6.69,4.11-5.18,7.56ZM314.84,269.99c4.45-1.32,2.62,5.38.52,5.74-3.69.63-2.63-4.31-.52-5.74ZM314.58,278.86c1.11-1.16,5.22-4.81,4.67-.78-.13.98-2.49,1.71-2.59,1.83-.63.7-3.58,4.48-4.41,4.17.4-3.14.38-3.19,2.33-5.22Z"/>
  <path class="cls-1" d="M316.65,279.9l-2.07-1.04c-1.95,2.03-1.93,2.07-2.33,5.22.82.31,3.78-3.47,4.41-4.17Z"/>
  <path class="cls-1" d="M205.71,182.9c-2.01-.79-1.59-1.33-2.59-2.09-3.29-2.48-15.43-17.05-15.03-20.6.13-1.13,2.05-2.22,2.59-2.87,5.32-6.39,7.6-2.59,13.48,1.04.27.17.78.35,1.04.52-.43-1.77-5.88-5.92-7.26-6.26-2.35,1.55-1.02-.4-1.04-.52-.03-.19.09-.3,0-1.04v-.52c-.13-.9-.24-1.75-.52-2.61l-8.04-1.04c-1.51-1,1.41-4.21-.26-7.3h-.52c-.4,0-1,1.25-1.04,1.56-.59,4.69.7,5.37-4.15,9.39-5.9,4.89-5.84.8-9.85-1.83-.77-.5-1.41-1.81-1.56.26,4.38,4.24,3.77,5.42,10.37,5.74.91-1.75,5.33-8.66,7-6.78,1.95,2.2-5.73,6.86-5.96,7.3-3.76,7.19,3.39,5.86,5.18,8.08.1.13.21,2.11,1.04,3.13,4.34,5.38,13.41,19.79,20.74,18.51-.41-4.45-2.25-1.54-3.63-2.09ZM183.94,158.13c-.11-.53,4.36-5.68,5.18-6.52,1.83-1.85,1.19-4.34,5.7-2.87,2.13,3.7-2.87,3.43-4.15,4.43-1.26.99-6.26,7.16-6.74,4.95Z"/>
  <path class="cls-1" d="M205.71,182.9c.73-1.68-1.21-3.49-2.59-2.09,1,.75.58,1.29,2.59,2.09Z"/>
  <path class="cls-1" d="M190.68,153.18l-1.56-1.56c-.83.84-5.3,5.99-5.18,6.52.48,2.2,5.48-3.97,6.74-4.95Z"/>
  <path class="cls-1" d="M302.14,162.82c-.47.71.56,1.49.52,1.56-1.06,1.72-3.48,1.24-2.59,4.69-1.76-1.44-2.71,1.33-3.63,2.87,2.8,2.32,2.6-2.71,5.44,0v-2.61c4.82,3.57,1.19-.48,2.59-1.56,2.07,1.84,1.3,3.85,3.89,1.3,3.88-3.82,6.84-10.31.52-13.3,1.6,2.84-4.78,4.11-6.74,7.04ZM309.66,161c1-.53,1.59,1.62.52,1.56-1.15-.06-1.01-1.3-.52-1.56Z"/>
  <path class="cls-1" d="M310.17,162.56c1.07.06.49-2.09-.52-1.56-.49.26-.63,1.5.52,1.56Z"/>
  <path class="cls-1" d="M179.79,298.94c0-.65,8.7-7.04,9.33-8.87.54-1.58-.45-3.54,0-4.69,1-2.55,6.09-2,7.52-2.87.92-.56,1.53-3.63,2.07-4.17,2.74-2.71,19.32-14.91,19.96-16.95,1.23-3.95-2.47-6.63,5.18-8.08-.13-.08-1.22-2.3-1.56-2.61-1.25-1.15-9.05-8.92-9.33-9.65-.06-.14,2.08-.22.26-1.83,1.84-.52,3.7,4.64,4.41,1.56-3.3-4.19,2.76-7.25,5.44-9.39.34.12.21,1.49.78,2.09,1.81,1.91,10.13,9.79,9.85,11.21-.11.57-4.9,4.9-5.44,4.95-3.23.3-2.14-.99-4.67-1.56-.54.24-.1,1.34-.26,1.56,1.79.96,2.39,2.15,2.07,4.17,3.93-.63,9.53-11.56,13.22-8.87,2.12,1.55.97,13.22,1.81,16.17,1.16.92,3.02.39,3.63.52.69.15,1.08,1.01,1.3,1.04,1.41.18,9.94-.81,10.37-.52,2.64,1.8-4.69,2.58-5.44,2.61l1.56,1.04c.85-.07,3.46.06,3.63,0,.33-.13.76-.33,1.04-.52,5.57-3.86-.12-22.9,9.59-20.34.82.22,7.3,8.03,7.78,8.34,1.51.98,6.46.1,8.29,1.56l.26,6.52c5.74,4.99,13.27,10.26,18.66,15.38l1.3-1.56c-3.13-1.65-17.34-13.09-18.4-15.38-1.98-4.25.58-5.75,2.59-8.08.05-.06.05-1.19.52-1.56v-1.04c-1.28.94-6.15,4.42-6.22,2.87,2.66-.64,6-10.86,8.81-6,.05-.08,1.11.28,1.04-.52-2.5-1.85-1.12-5.3-1.56-6.52-.51-1.43-13.39-10.14-8.04-12.26,1.76-.43,4.15,1.29,5.7,1.04.37-.06,5.9-1.82,6.48-2.09.74-.34,1.25-.61,2.07-.78-1.95-1.58-.11-4.48,0-6.52.23-4.29-1.49-6.99,1.04-9.91.32-.37.61-1.03.52-1.56-1.87-.94-1.64-.07-2.07,0-.05,0,.2.85-.26,1.04-.27.11-.71-1.04-.78-1.04-2.31-.21-11.04-.42-11.92-1.83-.1-.16-1.04-3.46-1.04-3.65,0-2.13,7.65-6.89,8.81-10.43.54-1.63-1.93-2.95,1.04-5.48.15-.59-1.02-.97-1.04-1.04l-1.56,1.3-6.22-7.3c4.35-1.52,2.48-3.31,3.11-5.48l-1.56-.52c-.47,1.56,1.24,2.69-2.07,4.69-.86.52-.41-.01-.52,0-1.81.22-3.23-1.71-5.44,0-.57.44-.08,1.69-.26,1.83-1.28.94-2.24.7-2.33.78-2.83,2.34-4.64,7.02-8.81,6.26-7.81-1.44-1.04-12.19-5.44-14.6-2.4-1.31-16.51.04-16.59-1.3,3.66-2.94,13.65-3.81,16.59.26,1.03-3.39-.87-1.42-1.56-3.39-1.95-5.63,1.67-5.14,2.07-6.26.53-1.49.05-15.64,0-18.51h-1.56c.25,2.96,1.16,14.77.52,16.95-1.05,3.58-9.01,4.18-9.33,2.09-.23-1.48,4.56-.89,1.81-3.39-5.51,1.31.75-3.55.78-3.91.01-.18-1.03-.84-1.04-1.04-.06-1.29.21-3.03,0-4.17-.22-1.15-2.96-.26,0-2.09-3.7-.74.54-1.54,0-2.61-.3-.6-1.04.37-1.56-1.04-.23-.64,2.31-.4,2.07-1.04-.31-.85-1.64-.49-1.56-1.56.02-.22,1.02-.82,1.04-1.04.33-3.8-1.23-10.87,5.44-8.61,1.47.5.22,1.93.26,2.09h1.04c-.09-.6.48-.48.52-.52.23-1.21.51-.99.52-1.04.05-.26,2.6-1.3,1.56-4.43-.22-.66-2.91-2.5-3.11-3.13-.85-2.71,2.58-5.62,3.11-8.34.12-.6.56-10.16.52-10.69-.07-.92.19-1.45-.78-2.09-1.67-.43-1.21,1.04-1.3,1.04.43,6.71,2.35,17.69-7.52,16.17-.28-2.45,2.14-4.2-.26-7.04,3.02-.74,1.12-1.98,1.56-2.61.41-.6,1.61.08,2.07-.52.11-.15-2.17-2.93-2.07-3.13,4.39-2.16-2.58-.9,4.15-2.87.23-1.57-1.39-1.02-2.33-1.04-46.59-1.35-92.48,27.47-107.05,72.23-.44,1.34-4.1,5.91-1.04,7.04h.52c4.21-13.55,10.74-25.46,20.22-37.03,2.75-3.35,5.47-6.61,8.81-9.39,1.25-1.04,1.69-2.71,3.89-3.13.86,1.16,1.8,2.15,2.85,3.13l1.04-1.04c-.85-1.07-1.83-2-2.59-3.13v-.52c1.27-3.99,24.51-16.87,29.29-18.77,4.54-1.81,24.97-7.74,29.03-7.82.12,0,2.19.37,2.33.78.59,4.48-1.49,10,1.56,13.3.17.18.82.06.52,1.04.13.13.5.49.52.52,1.61,2.71.57,2.33-.52,4.69-.06.13-1.94,1.32-2.07,1.83-1.04,4.03,1.8,4.29,2.07,6.78.46,4.15-2.99,16.16-2.59,22.43.38,6.03,2.78,6.18,3.63,10.95-6.96,2.06-2.66,14.24-3.63,17.21-.1.29-5.14,2.9-5.44,2.87-.25-.02-2.4-2.34-3.89-3.13,2.04,5.16-1.09,8.09-6.22,4.95-.17-.1.78-1.56-2.33-2.35-.2-.05-.93,2.01-2.33-.26-.07-.6,2.55-3.52,3.11-3.91.06-.5-.1-1.08,0-1.56-1.69,1.93-13.83,13.88-8.29,4.69l-1.04-1.04c-1.38,1.36-2.01,2.33-2.59-.52-.29.29-1.45,1.52-1.56,1.56,3.74,2.9,1.28,6.09,3.63,9.65,2.3,3.49,10.3,4.63,7.26,10.95-.55,1.14-1.72.65-2.59.78-.25,1.19.69.75,1.04,1.56.64,1.49.36,3.19,0,4.69-.35,1.46-.99,2.42-.78,4.17-3.78.19-7.41-.21-11.15-.52-.34-.03-1.23.59-2.07,0,0,.17,0,.35,0,.52-.18,3.09,1.53,7.77-2.07,7.82,6.77,3.47,12.25,1.13,18.66,4.95-.6,2.29-10.19,8.71-10.37,9.39-.14.55,1.28,2.64,1.04,3.65-.08.34-1.33,1.1-1.56,1.56-.2.42.2,1.73,0,2.09-.75,1.32-4.37-.37-4.92-.26-1.78.35-15.22,16.27-16.33,18.77,3.57-1.67,14.6-16.74,16.85-17.21.59-.12,5.36.89,6.22,1.56,2.6,2.03-.53,1.64,1.3,3.91-3.3-1-3.17,2.4-4.15,3.65-.12.16-2.49,1.82-3.11,2.61-.53.67,1.12.93,1.04,1.04-.81,1.04-4.2,2.85-4.92,4.95l-4.67.52c-2.36,5.22-9.33,10.81-10.11,1.04-.67,1.12-5.06,2.5-5.18,2.87-.71,2.09,1.07,3.42-1.04,6-.02.78.63.42,1.04.52,4.66,1.15,11.36,13.23,2.59,5.22l-.52,1.04c.22.69-.83,1.44-.26,2.61-3.14-1.65.12,2.62-3.11,0l-7.78,7.82-4.92-4.69c-.04.1-1.67.99-1.56,1.56,8.35,9.28,14.83,14.51,25.4,20.86l1.04-1.56c-4.99-3.03-9.67-6.23-14-10.17ZM282.96,214.19c.39-4.84-2.36-4.31,2.07-5.74,4.71-1.52,6.97-.89,8.29,3.65.2.67.42,1.39.52,2.09.36,2.53-.31,2.31-.52,4.17-.53,4.75.7,8.12-7,6.26-6.37-1.54-3.37-3.34-3.37-8.34,0-.68-.06-1.41,0-2.09ZM250.82,163.61c5.09-.18,8.41,2.19,2.07,3.13-2.22.33-9.94.72-7-3.13,1.64-.04,3.29.06,4.92,0ZM258.07,127.36c.72,4.81-10.23-1-13.22.78-1.36-2.81,4.52-3.09,6.22-3.13,1.75-.04,6.65.02,7,2.35ZM251.85,121.36c2.24.16,4.17-2.35,3.63,2.35-2.01,1.39-3.42-.8-3.63-.78-.46.03-8.39,2.34-6.74-1.3.49-1.08,5.61-.34,6.74-.26ZM242.26,114.58c-.2-1.74-.92-10.28.52-10.95,6.24-2.9-2.96,5.9,3.37,4.95-3.45,1.61-.45,5.44-3.89,6ZM250.04,259.56l-.52,1.04c-8.37,1.2-8.45-2.83-8.29-9.91l9.07.26c.14,3.22-1.92,3.86-2.07,4.17-.13.27,1.46,4.58,1.81,4.43ZM258.59,259.83c-3.19,3.74-4.53-3.68-6.22-4.69,1.8.47,3.61-4.3,3.89-4.43,2.6-1.21,2.67,8.73,2.33,9.13ZM287.88,239.75c.65,2.39-1.87,4.47-3.37,6.26-1.21,1.44-6.42,6.71-8.04,6.26l-.52-1.04c2.41-1.87,4.88-4.08,7-6.26.93-.95,3.56-6.07,4.92-5.22ZM285.55,237.4c.25,1.11-2.73,6.08-3.89,6.52-2.19-2.38-6.29-5.45-3.37-8.08-3.5.49-.02-2.29,1.3-2.35,1.28-.06,5.82,3.31,5.96,3.91ZM277.51,177.69c.5-.35,5.81,4.14,6.48,4.95,1.51,1.82,1.48,3.62,2.07,4.69.22.39,3.55.36,1.3,2.35-1.05-1.81-10.45-9.45-10.63-10.17-.2-.79.14-1.39.78-1.83ZM273.89,180.82c4.31-1.08,13.87,12.28,9.85,10.95-.63-2.51-4.24-2.75-5.7-1.04-2.05-3.33-7.39-1.37-8.55-5.48.94-.6,3.8-4.28,4.41-4.43ZM249.78,176.38c.15-.51,2.6-2.42,2.59-2.61-.02-.39-2.49.16-1.3-1.83,3.16.02,6.42-.5,7.52,3.13-.04-1.41-4.85-.61-4.15.78,2.22.54,2.97,2.02,2.59,4.17l1.56-1.3c0,.15,1.06,1.77.52,2.87-3.13,3.6-10.61-.97-9.33-5.22ZM221.78,207.67c.25-1.16,1.45-.16,1.56-.52,2.94-10,10.66-19.98,22.03-21.64,27.45-4.02,46.9,26.25,28.77,49.28-7.12,9.04-22.19,13.43-32.92,9.65-.53-.19-4.5-3.71-5.18-4.17-.05-.03-.57.85-1.04.52-10.17-7.31-15.89-20.61-13.22-33.12ZM213.75,257.48c.02-.1-1.33-1.63,0-2.09.15-.05,2.81,1.15,2.85,1.3.09.28-4.39,4.54-4.15,1.56.05-.55,1.06.24,1.3-.78ZM207.53,263.74c2.2.56-1.01,3.47-2.07,3.65-2.11-1.05,1.41-3.82,2.07-3.65ZM201.57,267.65c2.46,1.53,1.12-.58,1.81-.78.86-.25,1.55,1.05,1.3,1.83-2.58,2.4-3.17,3.15-4.67-.52l1.81,1.3-.26-1.83ZM186.53,276.25c-1.15-1.54-2.69-2.39-2.59-4.95l1.81-1.3c1.27.72,1.63,2.26,2.33,3.13.61.75,1.04,2.28,1.56,2.87.69.78,5.71,4.16,5.7,4.69-.09,5.01-8.16-3.55-8.81-4.43ZM180.05,288.77c1.05-.37,1.93,2.05,2.07,2.09.8.19,2.52-2.4,3.89-1.3-1.25-.03-4.13,3.37-4.41,3.39-.69.05-4.02-3.31-1.56-4.17Z"/>
  <path class="cls-1" d="M286.33,224.62c7.69,1.86,6.47-1.51,7-6.26-4-.1-7.35.16-10.37-2.09,0,5.01-3,6.81,3.37,8.34Z"/>
  <path class="cls-1" d="M293.84,214.19h-10.89c-.06.68,0,1.4,0,2.09,3.02,2.24,6.37,1.99,10.37,2.09.21-1.87.88-1.64.52-4.17Z"/>
  <path class="cls-1" d="M246.15,108.59c-6.33.95,2.87-7.86-3.37-4.95-1.44.67-.72,9.22-.52,10.95,3.44-.56.44-4.39,3.89-6Z"/>
  <path class="cls-1" d="M252.89,166.74c.73-3.07-1.69-.76-2.07-3.13-1.63.06-3.29-.04-4.92,0-2.94,3.85,4.77,3.46,7,3.13Z"/>
  <path class="cls-1" d="M251.85,122.93v-1.56c-1.13-.08-6.25-.82-6.74.26-1.65,3.64,6.28,1.33,6.74,1.3Z"/>
  <path class="cls-1" d="M250.3,264.78c.75-.03,8.09-.81,5.44-2.61-.43-.29-8.96.71-10.37.52-.22-.03-.6-.89-1.3-1.04-2.23,2.97,4.4,3.2,6.22,3.13Z"/>
  <path class="cls-1" d="M250.3,250.96l-9.07-.26c-.15,7.08-.07,11.11,8.29,9.91l.52-1.04c-.35.15-1.95-4.16-1.81-4.43.16-.31,2.22-.95,2.07-4.17ZM245.11,258.78c-.02-.05.72-.77.78-.78,1.95-.28-.17,2.16-.78.78Z"/>
  <path class="cls-1" d="M245.11,258.78c.61,1.38,2.72-1.06.78-.78-.05,0-.8.73-.78.78Z"/>
  <path class="cls-1" d="M195.34,280.69c0-.53-5.01-3.91-5.7-4.69-.52-.59-.94-2.11-1.56-2.87.22,1.48-.13,2.51-1.56,3.13.66.88,8.73,9.44,8.81,4.43Z"/>
  <path class="cls-1" d="M275.96,251.22l.52,1.04c1.62.45,6.83-4.81,8.04-6.26l-1.56-1.04c-2.12,2.18-4.58,4.39-7,6.26Z"/>
  <path class="cls-1" d="M181.61,292.94c.28-.02,3.16-3.42,4.41-3.39-1.37-1.09-3.09,1.49-3.89,1.3-.14-.03-1.02-2.46-2.07-2.09-2.46.86.86,4.22,1.56,4.17Z"/>
  <path class="cls-1" d="M204.68,268.69c.26-.78-.44-2.08-1.3-1.83-.69.2.64,2.31-1.81.78l.26,1.83-1.81-1.3c1.5,3.67,2.08,2.93,4.67.52Z"/>
  <path class="cls-1" d="M225.41,253.83c.32-2.02-.29-3.21-2.07-4.17-.04.06-1.15.44-1.04,1.04.33.31,1.43,2.53,1.56,2.61.34.2.56.89,1.56.52Z"/>
  <path class="cls-1" d="M205.45,267.39c1.07-.18,4.27-3.09,2.07-3.65-.66-.17-4.19,2.6-2.07,3.65Z"/>
  <path class="cls-1" d="M216.6,256.7c-.05-.15-2.7-1.36-2.85-1.3-1.33.46.02,1.98,0,2.09-.24,1.02-1.25.23-1.3.78-.25,2.98,4.23-1.28,4.15-1.56Z"/>
  <path class="cls-1" d="M245.89,234.53c4.42.35,14.15-.7,17.63-3.65,1.33-1.13-.17-1.43.26-1.83,7.55-6.85,6.49-6.42,6.22-16.43l-2.07-.26c1.82,5.81-2.06,15.24-8.55,18.51-1.75.88-3.46-.12-4.15,0-.11.02-.75,1.51-1.56,1.56-1.38.09-10.11-1.36-11.41-2.09-1.69-.94-4.96-6.82-7-5.22,2.01,3.49,4.91,4.5,4.15,8.87.03.02.13.22.52.52.8-3.57,3.8-.17,5.96,0Z"/>
  <path class="cls-1" d="M257.95,242.24c3.81-.89,7.91-3.89,11.15-6,.35-1.45-.63-1.03-1.04-1.83-.05-.09-1.37-.82-1.56-1.3,1.38-1.45,3.31-2.05,3.11.78.1-.01.81.95,2.07-.26,1.17-1.11,4.22-7.47,4.15-9.13-2.14,1.13-2.9-1.53-4.92-1.04.89,2.5,5.29,2.76,1.3,5.48l-1.81-2.87c-1.71,3.44-2.39,3.72-4.92,6-.2.18.31,1.41-.26,1.83-.38.28-7.61,2.69-8.81,3.13-.21.08-1.62-2.03-2.85,1.3-.17.45,1.5,2.36-.26,3.39-4.19.95-1.37-3.22-2.07-3.65-2.62-1.62-.42,2.86-2.07,3.65-3.95,1.9-.92-4.94,0-6.26-1.7,1.68-6.5-.68-7.52,1.3-.09.18,1.85,3-1.3,2.87-2.15-2.09.24-2.8,1.3-4.43-.1-.29-1.43-.27-2.07-.78-.38-.3-.49-.5-.52-.52-1.83-1.4-2.94-1.44-3.11-1.56-.01,4.58-6.16,1.86-2.07-1.04-.17-.21-1.48-3.75-2.07-4.95-.29-.59.8-.96.52-1.56-.2-.44-.48,1.37-2.07-2.35-.44-1.02-1.87-6.23-2.33-6.26-.21-.01-2.27,3.3-3.37.78-2.86-6.57,4.15-4.57,4.67-5.74.43-.95-.79-3.18,1.04-4.17l-4.15-1.04,1.81-2.35c1.93-.02.78,3.63,2.85,1.3-3.99-3.89-2.85-5.94,1.81-2.35,1.63-2.5-2.54-1.94-2.33-3.91.36-3.47,3.34,1.58,4.67,1.04.52-2.15-3.61-3.19-1.3-4.95,3.08-2.35,1.46,3.2,3.63,2.61,1.79-1.27-2.69-4.25,0-5.22,2.03-.73,1.32,3.36,2.07,4.17,3.67-2.41-1.13-3.01.52-5.22,2.4-3.2,3.86,7.72,4.93,2.35.12-.61-3.27-2.73-.26-4.43,3.45.3.24,4.53,1.56,4.69,3.7.46.85-3.43,1.3-4.43l2.33-.78c-.23,6.99.54,2.83,3.11,3.65.65.21,3.6,2.63,5.7,2.09.27-7.23,3.66-4.26,2.59,1.56,1.93.02.23-5.24,3.63-3.65,3.36,1.57-2.31,3.75-1.04,5.74,1.88,1.22.96-6.34,7-.26.42.42-.97.9-.26,1.83.26.34,6.39.48.26,4.43.94,1.37,3.67-1.79,4.67.52,1.2,2.79-4.44.38-2.59,5.74,1.51,4.36,3.82.16,4.67,2.09v2.61c-1.03,1.81-3.51-.06-4.15.52-.23.21-1.22,6-1.04,6.26,1.21,1.69,3.41-2.45,3.63,2.87.2-.11.81.22,1.04-.26-.07-1.16.82-2.65,1.04-3.65,2.8-12.7-3.99-24.3-14.77-29.47-.79-.38-.77-1.74-1.56-2.09-.29-.13-4.97.13-6.22-.52-.6-.31.08-1.68-.52-2.09-.76-.51-.78,1.03-1.04,1.04-1.63.06-6.19-.61-6.74-.52-.23.04-.41,1.43-1.04,1.56-6.51,1.4-11.42,2.69-16.33,8.6-16.65,20.06,2.25,51.18,28.25,45.11ZM270.39,228.68c.47.04,1.8,2.26.52,2.61-2.6.7-1.56-2.7-.52-2.61ZM265.2,234.41c1.72-.76,1.4,1.54.52,1.56-.26,0-1.26-1.23-.52-1.56ZM262.61,235.46c1.38-1.08,3.62,1.84,1.56,2.61-1.6.59-2.45-1.91-1.56-2.61ZM260.02,236.5c.92.05,2.15,3.07.52,3.65-1.58.56-2.81-3.77-.52-3.65ZM255.87,238.07c1.83-.79,2.93,2.89,1.04,3.13-2.28.29-2.35-2.57-1.04-3.13ZM243.95,237.54c2.21-.94,2.86,3.33,1.04,3.65-1.06.19-3.02-2.81-1.04-3.65ZM236.69,234.41c2.82-1.33,2.65,3.3,1.04,3.65-1.35.29-2.8-2.82-1.04-3.65ZM276.09,220.86c-3.28,1.58-3.32-3.38-1.56-4.17,2.24-1.01,3.24,3.36,1.56,4.17ZM275.57,210.95c-2.83.57-2.08-3.21-1.04-3.65,1.88-.8,2.92,3.27,1.04,3.65ZM255.35,189.56c1.84-.87,3.39,1.81,1.56,2.61-2.39,1.04-3.26-1.8-1.56-2.61ZM251.72,188.52c2.48-1.17,3.04,2.72,1.04,3.13-2.1.43-2.45-2.46-1.04-3.13ZM226.32,207.82c2.14-.44,2.41,2.54,1.04,3.13-1.84.78-3.2-2.69-1.04-3.13ZM226.32,218.25c3-.6,1.43,3.88-.52,3.13-1.55-.6-.79-2.87.52-3.13ZM226.84,221.9c1.63-.73,3.19,1.32,2.07,2.61-1.27,1.47-4.46-1.54-2.07-2.61ZM228.4,225.55c1.63-.71,3.17,1.27,2.07,2.61-1.69,2.06-4.19-1.68-2.07-2.61ZM230.99,228.68c1.36-.44,2.88,3.08.52,3.13-1.73.04-1.67-2.76-.52-3.13Z"/>
  <polygon class="cls-1" points="228 215.5 228.26 215.76 228.52 214.98 227.75 214.71 228 215.5"/>
  <polygon class="cls-1" points="274.66 213.41 273.89 213.15 273.63 213.93 273.89 214.19 274.66 213.41"/>
  <path class="cls-1" d="M242.26,230.36c1.3.72,10.03,2.17,11.41,2.09.81-.05,1.45-1.55,1.56-1.56.69-.12,2.4.88,4.15,0,6.49-3.27,10.38-12.71,8.55-18.51l2.07.26c-.08-2.93-2.05-5.56,1.04-6.52-.92.44-2.11-3.41-2.07-3.65.02-.16,1.93-.58,1.56-1.56-.09-.23-3.6,1.31-.78-2.87l-3.89.26c-.62,1.2,4.67,2.7.26,4.43-13.78-15.77-39.38-2.07-33.44,18.25.59,2.02,1.9,2.97,2.59,4.17,2.04-1.61,5.31,4.28,7,5.22ZM239.41,224.88l2.07-2.35c-1.1-2.01-3.97-10.12-2.07-11.73,1.91-.77,1.02,2.19,1.04,2.35,0,.05,1.39.46,0,1.04.83,1.52,1.03,3.02,1.56,4.17l1.81,3.13c-1.33-.81-1.31-2.02-1.81-3.13l-1.04-.26c-.04,2.49,2.33,3.93,3.63,5.48.07.08,1.53.88,1.56,1.3,0,1.5-.63.13-1.04.26-.32.11-1.09,0-1.56,0-1.52-.02-2.66-.38-4.15-.26ZM242.78,210.54c.14.43.86,1.2.52,1.56-.95.19-1.06-.87-.52-1.56ZM256.52,214.71c-.4-.59-2.49-1.96-1.81-3.13l1.81,3.13c.82,1.21,2.6,2.68,2.59,4.43-1.03-.83-1.63-1.91-2.59-2.87.21.64.35,1.42.52,2.09.77,1.04,2.01,2.05,2.59,3.39l-1.04.26c-.09.71-.62.79-1.04.26l1.04-.26c.09-.69-1.21-2.31-1.56-3.65-.82-1.11-2.53-2.31-3.11-3.91.38-1.83,2.12,1.36,2.59,1.83-.12-.38.07-1.08,0-1.56ZM254.19,217.32c-.82-.31-.7-1.47-.78-1.56-.82-1.04-2.26-1.99-1.81-3.65,1.13.94,1.3,2.42,1.81,3.65.03.08,1.73.67.78,1.56ZM253.67,213.15l-3.63-5.22,2.59,2.61v-2.09c2.3,1.6.97,2.49,1.04,4.69ZM252.11,207.93c-.79.02-2.87-3.38-2.07-3.65.2-.07,2.68,2.85,2.07,3.65ZM257.3,224.1c-2.73-3.81-6.15-7.51-7.78-11.99,2.69,3.83,6.13,7.53,7.78,11.99ZM249.52,220.45c.81.3.72,1.49.78,1.56.63.75,2.38,1.19,1.3,2.61-1.43-.68-1.01-1.98-1.3-2.61-.04-.08-1.74-.68-.78-1.56ZM249.26,218.63c1.25-.95.94.68,1.04.78.03.06,1.37.46.78,1.04-1.11.23-.67-.93-.78-1.04-.03-.06-.88-.35-1.04-.78ZM251.85,222.28l-.26-.78.78.26-.26.78-.26-.26ZM250.3,216.8c-.37-.49-2.07-1.44-1.3-2.61,1,.56.95,1.91,1.3,2.61,1.34,1.79,4.22,3.8,4.41,6.26-2.33-1.7-3.17-3.8-4.41-6.26ZM249.52,207.41c-.53-.66-1.51-1.75-1.56-2.61,1.01-.08,2.04,1.72,1.56,2.61ZM249,217.84c-.85.35-1.77-2.4-1.04-2.61.15,1.03,1.77,1.63,1.04,2.61ZM248.48,219.93c-.34.04-1.24-1.47-.52-1.56.34-.04,1.24,1.47.52,1.56ZM247.45,206.89c-.09.03-1.48-1.2-1.04-1.56.81-.27,1.81,1.34,1.04,1.56ZM247.7,223.58c.24.38,2.13,1.47,1.3,2.61-.99-.58-.94-1.87-1.3-2.61-.51-.8-2.45-2.13-1.81-3.65,1.15.87,1.29,2.55,1.81,3.65ZM258.33,201.16c.36.18,5.17,5.51,5.44,6,.81,1.46,1.79,9.39,1.56,10.95-.76,5.11-6.12,9.88-11.15,10.69-1.68.27-8.67-.04-9.59-1.3-1.45-1.99,8.71.41,9.59-.78l-1.04-3.65c.85.33,2.26,3.09,2.59,3.13.6.07,5.18-3.33,5.96-4.69-1.1-.08-.88-1.31-1.04-1.56-.1-.17-1.73-.66-.78-1.56.83.28.69,1.54.78,1.56,2.99.79-.39-2.44-.52-2.61-3.16-4.17-5.42-7.24-7.78-11.99-.04-.08-1.74-.68-.78-1.56.8.3.72,1.5.78,1.56,3.26,3.59,4.83,7.28,7.78,10.95.07-.37.05-.58.52-.52-.94-1.23-7.2-10.05-7.26-10.69-.24-2.69,2.68,1.24,2.85,1.3.1.04.41-1.76,1.81-1.04-3.74-2.8-8.44-3.2-12.7-1.04-1.57.8-4.2,4.47-4.67,4.69-1.75.84-1.39-2.13-3.37-1.3-.55-2.36,6.82-1.92,2.59-3.13,2.58-3.79,15.1-5.01,18.4-3.39ZM237.6,204.28c.79-.29,1.14.77.52,1.04-.76.34-1.14-.82-.52-1.04ZM233.97,212.11c-1.03,1.63,2.03,10.67,1.56,10.95-2.22,1.33-3.29-9.73-1.56-10.95Z"/>
  <path class="cls-1" d="M245.11,225.14l-.52-1.56c-1.29-1.55-3.67-2.99-3.63-5.48l1.04.26c-.52-1.15-.72-2.65-1.56-4.17-.04-.07-1.42-.52,0-1.04-.02-.16.87-3.12-1.04-2.35-1.9,1.61.97,9.72,2.07,11.73.5.91,1.64,1.64,2.07,2.61.47,0,1.23.11,1.56,0Z"/>
  <path class="cls-1" d="M233.97,212.11c-1.73,1.22-.66,12.28,1.56,10.95.48-.29-2.58-9.33-1.56-10.95Z"/>
  <path class="cls-1" d="M239.41,224.88c1.49-.12,2.63.24,4.15.26-.43-.97-1.58-1.7-2.07-2.61l-2.07,2.35Z"/>
  <path class="cls-1" d="M251.59,224.62c1.09-1.42-.66-1.86-1.3-2.61.29.63-.13,1.93,1.3,2.61Z"/>
  <path class="cls-1" d="M243.82,221.49l-1.81-3.13c.5,1.1.48,2.32,1.81,3.13Z"/>
  <path class="cls-1" d="M247.96,218.37c-.72.09.18,1.61.52,1.56.72-.09-.18-1.61-.52-1.56Z"/>
  <path class="cls-1" d="M259.89,218.37c-.96.91.68,1.4.78,1.56-.08-.02.05-1.28-.78-1.56Z"/>
  <path class="cls-1" d="M242.78,210.54c-.54.7-.44,1.76.52,1.56.35-.37-.38-1.13-.52-1.56Z"/>
  <path class="cls-1" d="M250.3,222.02c-.06-.07.03-1.27-.78-1.56-.96.89.74,1.49.78,1.56Z"/>
  <path class="cls-1" d="M238.11,205.33c.62-.27.27-1.33-.52-1.04-.62.23-.24,1.38.52,1.04Z"/>
  <path class="cls-1" d="M258.59,222.02l-1.04.26c.42.53.94.45,1.04-.26Z"/>
  <path class="cls-1" d="M258.07,205.33c.08.04-.67.76,0,1.83,1.2,1.92,2.56,3.73,3.63,5.74l-3.11-2.09c-.04,1.27,4.34,5.82,2.85,6.52-.82-.32-.69-1.45-.78-1.56-.47-.06-.45.15-.52.52-.06.33.03.7,0,1.04.12.16,3.5,3.4.52,2.61.15.25-.07,1.48,1.04,1.56,3.16-5.54,1.44-12.37-3.63-16.17Z"/>
  <path class="cls-1" d="M261.44,217.32c1.49-.7-2.89-5.24-2.85-6.52l3.11,2.09c-1.07-2.01-2.43-3.82-3.63-5.74-.67-1.06.08-1.78,0-1.83-1.41-.72-1.72,1.08-1.81,1.04-.17-.06-3.09-4-2.85-1.3.06.64,6.32,9.46,7.26,10.69.09.11-.05,1.25.78,1.56ZM257.81,209.5c-.4-.23-1.47-1.89-1.04-2.09.67-.3,1.61,1.61,1.04,2.09Z"/>
  <path class="cls-1" d="M256.78,207.41c-.43.2.64,1.86,1.04,2.09.57-.48-.37-2.39-1.04-2.09Z"/>
  <polyline class="cls-1" points="362.43 97.37 378.87 77.56 376.37 78.4 362.79 95.29"/>
</svg>