<svg width="1184" height="757" viewBox="0 0 1184 757" fill="none" xmlns="http://www.w3.org/2000/svg">
<mask id="mask0_3520_12990" style="mask-type:alpha" maskUnits="userSpaceOnUse" x="371" y="51" width="858" height="390">
<path fill-rule="evenodd" clip-rule="evenodd" d="M371.297 51.0264H477.307V319H371.297V51.0264ZM854.432 51.0264H1228.07V441H854.432V51.0264Z" fill="#D9D9D9"/>
</mask>
<g mask="url(#mask0_3520_12990)">
<path d="M468.155 72.0141C468.585 71.5846 468.585 70.8881 468.155 70.4585L461.155 63.4582C460.725 63.0286 460.029 63.0286 459.599 63.4582C459.17 63.8877 459.17 64.5842 459.599 65.0138L465.822 71.2363L459.599 77.4589C459.17 77.8884 459.17 78.5849 459.599 79.0145C460.029 79.4441 460.725 79.4441 461.155 79.0145L468.155 72.0141ZM515.77 262.5L515.583 263.584L515.77 262.5ZM1106.33 416.935C1105.72 416.929 1105.22 417.416 1105.22 418.023C1105.21 418.631 1105.7 419.129 1106.31 419.135L1106.33 416.935ZM467.377 70.1363C430.45 70.1363 407.282 92.3175 395.885 119.313C384.518 146.236 384.763 178.147 394.788 197.996L396.752 197.004C387.077 177.847 386.741 146.626 397.911 120.169C409.051 93.7841 431.536 72.3363 467.377 72.3363V70.1363ZM394.788 197.996C404.78 217.78 422.092 231.949 443.314 242.277C464.531 252.603 489.72 259.124 515.583 263.584L515.957 261.416C490.188 256.972 465.228 250.496 444.277 240.299C423.332 230.105 406.46 216.226 396.752 197.004L394.788 197.996ZM515.583 263.584C548.579 269.275 606.793 267.972 675.385 265.286C744.042 262.598 823.203 258.516 898.262 258.6C973.339 258.683 1044.2 262.935 1096.26 276.875C1122.29 283.845 1143.53 293.213 1158.24 305.614C1172.91 317.984 1181.09 333.367 1181.09 352.5H1183.29C1183.29 332.633 1174.75 316.662 1159.66 303.932C1144.59 291.235 1123.01 281.759 1096.83 274.75C1044.47 260.731 973.366 256.483 898.265 256.4C823.147 256.316 743.916 260.401 675.299 263.088C606.615 265.777 548.672 267.058 515.957 261.416L515.583 263.584ZM1181.09 352.5C1181.09 373.685 1175.1 389.865 1162.89 400.7C1150.67 411.556 1132.01 417.217 1106.33 416.935L1106.31 419.135C1132.28 419.42 1151.56 413.704 1164.36 402.345C1177.17 390.967 1183.29 374.097 1183.29 352.5H1181.09Z" fill="#959595"/>
</g>
<path d="M803.883 157.522C818.624 247.312 659.809 295.611 647.551 211.669C635.293 127.727 739.034 110.549 782.014 144.057C802.367 159.925 795.265 189.483 777.236 211.558" stroke="#E84AB5" stroke-width="7" stroke-linecap="round"/>
<path d="M468.737 212.433C468.737 212.433 458.286 214.059 460.513 209.098C461.417 207.075 462.607 204.432 463.583 202.46C466.196 197.173 463.756 197.143 465.291 197.173C468.097 197.224 469.957 208.722 473.424 221.328C478.731 240.604 486.142 264.179 493.716 264.332C508.437 264.637 501.381 188.511 497.243 188.511C492.201 188.511 501.452 251.593 526.39 249.713C536.882 248.92 538.356 227.814 536.414 208.61C533.974 184.496 521.765 157.087 511.761 163.035C504.146 167.569 512.442 184.963 518.42 189.945" stroke="#E84AB5" stroke-width="7.06289" stroke-miterlimit="10" stroke-linecap="round"/>
<path d="M548.929 185.442C548.929 185.442 559.634 196.574 566.568 177.004C566.568 177.004 561.851 196.35 573.44 194.286C585.03 192.233 581.268 177.37 581.268 177.37C581.268 177.37 581.767 183.551 584.847 186.865C587.338 189.539 592.98 190.382 596.63 185.106C604.692 173.435 589.605 160.687 581.329 156.681" stroke="#E84AB5" stroke-width="7.06289" stroke-linecap="round" stroke-linejoin="round"/>
<path d="M550.282 186.052C564.85 192.66 561.851 211.295 558.293 214.121C554.928 216.795 550.302 214.975 547.364 206.862C544.426 198.75 546.978 185.808 549.275 184.313C550.394 183.592 551.837 184.191 553.047 185.015C555.04 186.367 554.074 189.59 551.675 189.437C551.644 189.437 551.624 189.437 551.593 189.437" stroke="#E84AB5" stroke-width="7.06289" stroke-miterlimit="10" stroke-linecap="round"/>
<path d="M588.955 123.03C588.955 123.03 591.781 118.872 594.231 119.249C596.03 119.533 595.492 151.049 616.516 164.499" stroke="#E84AB5" stroke-width="7.06289" stroke-linecap="round" stroke-linejoin="round"/>
<path d="M624.699 181.416C624.699 181.416 633.34 173.09 634.367 181.263C634.764 184.425 634.316 185.818 633.412 187.444C632.1 189.803 630.27 190.911 628.827 190.942C627.81 190.962 627.088 187.231 627.871 182.737C628.267 180.45 628.471 178 630.433 175.682" stroke="#E84AB5" stroke-width="7.06289" stroke-linecap="round" stroke-linejoin="round"/>
<path d="M91.9299 423.257C92.359 422.828 92.359 422.133 91.9299 421.704L84.9382 414.712C84.5092 414.283 83.8136 414.283 83.3845 414.712C82.9555 415.141 82.9555 415.837 83.3845 416.266L89.5994 422.48L83.3845 428.695C82.9555 429.124 82.9555 429.82 83.3845 430.249C83.8136 430.678 84.5092 430.678 84.9382 430.249L91.9299 423.257ZM91.1531 421.382C64.268 421.382 45.4486 407.708 32.269 383.928C19.0496 360.075 11.5546 326.12 7.46714 285.817C-0.708165 205.207 4.79004 99.846 4.79004 0.499992H2.59277C2.59277 99.654 -2.90902 205.283 5.28108 286.039C9.37636 326.419 16.9054 360.739 30.3471 384.993C43.8286 409.318 63.3074 423.579 91.1531 423.579V421.382Z" fill="#A7F2A1"/>
<path d="M344.856 307.324L387.983 322.805C388.842 323.114 389.44 323.329 389.858 323.521C390.306 323.727 390.372 323.834 390.371 323.831C390.469 324.012 390.472 324.23 390.378 324.414C390.378 324.414 390.378 324.414 390.378 324.414C390.374 324.42 390.297 324.528 389.874 324.737C389.461 324.94 388.869 325.171 388.018 325.501L369.894 332.549C369.875 332.557 369.856 332.564 369.837 332.572C369.566 332.677 369.319 332.772 369.105 332.926C368.916 333.06 368.751 333.225 368.617 333.413C368.464 333.628 368.368 333.875 368.263 334.145C368.256 334.165 368.248 334.184 368.241 334.203L361.193 352.327C360.862 353.178 360.631 353.77 360.428 354.182C360.213 354.618 360.105 354.687 360.105 354.687L360.105 354.687C359.921 354.781 359.703 354.778 359.522 354.679C359.522 354.679 359.522 354.679 359.522 354.679C359.516 354.674 359.41 354.595 359.213 354.166C359.02 353.749 358.805 353.151 358.497 352.292L343.015 309.165C342.762 308.459 342.59 307.978 342.496 307.615C342.398 307.238 342.427 307.134 342.43 307.124C342.493 306.943 342.635 306.801 342.816 306.738C342.825 306.735 342.93 306.707 343.307 306.804C343.669 306.899 344.151 307.071 344.856 307.324Z" fill="#1690F6" stroke="#F5F5F5" stroke-width="1.46435" stroke-linecap="round" stroke-linejoin="round"/>
<path d="M207.856 484.324L250.98 499.804C251.839 500.113 252.437 500.328 252.855 500.52C253.284 500.717 253.363 500.823 253.368 500.829C253.368 500.83 253.368 500.83 253.368 500.83C253.466 501.011 253.469 501.229 253.376 501.413C253.376 501.412 253.376 501.412 253.375 501.413C253.371 501.419 253.294 501.527 252.871 501.735C252.458 501.938 251.866 502.169 251.016 502.5L232.893 509.548C232.873 509.555 232.854 509.563 232.835 509.57C232.564 509.675 232.318 509.771 232.103 509.924C231.915 510.058 231.75 510.223 231.615 510.412C231.462 510.626 231.367 510.873 231.262 511.144C231.254 511.163 231.247 511.182 231.239 511.201L224.191 529.324C223.861 530.175 223.63 530.767 223.427 531.18C223.219 531.603 223.11 531.679 223.104 531.684C223.104 531.684 223.104 531.684 223.104 531.684C222.92 531.778 222.702 531.775 222.521 531.676C222.521 531.677 222.521 531.676 222.521 531.676C222.515 531.672 222.409 531.592 222.212 531.164C222.019 530.746 221.804 530.148 221.496 529.289L206.015 486.164C205.762 485.459 205.59 484.977 205.496 484.615C205.398 484.238 205.427 484.134 205.43 484.124C205.493 483.943 205.635 483.801 205.816 483.738C205.825 483.735 205.93 483.706 206.306 483.804C206.669 483.899 207.151 484.071 207.856 484.324Z" fill="#FFCC4D" stroke="#F5F5F5" stroke-width="1.46426" stroke-linecap="round" stroke-linejoin="round"/>
<rect x="238.396" y="515.847" width="119.259" height="27.1529" rx="3.78878" fill="#FFCC4D"/>
<path d="M253.406 533.423L253.136 532.175H254.318C254.782 532.175 255.192 532.063 255.548 531.84C255.908 531.616 256.188 531.272 256.388 530.808C256.592 530.34 256.694 529.744 256.694 529.02C256.694 528.256 256.6 527.65 256.412 527.202C256.228 526.754 255.958 526.434 255.602 526.243C255.25 526.047 254.82 525.949 254.312 525.949H253.088L253.406 524.701H254.216C255.42 524.701 256.36 525.045 257.036 525.733C257.716 526.416 258.056 527.508 258.056 529.008C258.056 529.98 257.886 530.794 257.546 531.45C257.21 532.101 256.754 532.593 256.178 532.925C255.602 533.257 254.952 533.423 254.228 533.423H253.406ZM252.075 533.423V524.701H253.406V533.423H252.075ZM261.338 533.495C260.738 533.495 260.258 533.329 259.899 532.997C259.539 532.665 259.359 532.215 259.359 531.648C259.359 531.164 259.517 530.764 259.833 530.448C260.148 530.132 260.618 529.918 261.242 529.806C261.538 529.754 261.83 529.71 262.118 529.674C262.41 529.638 262.668 529.61 262.892 529.59C263.12 529.566 263.284 529.55 263.384 529.542V529.038C263.384 528.606 263.282 528.302 263.078 528.126C262.878 527.946 262.57 527.856 262.154 527.856C261.738 527.856 261.41 527.94 261.17 528.108C260.934 528.272 260.82 528.604 260.828 529.104H259.611C259.567 528.62 259.647 528.202 259.851 527.85C260.054 527.498 260.354 527.228 260.75 527.04C261.15 526.848 261.62 526.752 262.16 526.752C262.968 526.752 263.586 526.956 264.014 527.364C264.446 527.768 264.662 528.376 264.662 529.188V533.423H263.384V531.965C263.308 532.257 263.168 532.519 262.964 532.751C262.764 532.979 262.522 533.161 262.238 533.297C261.958 533.429 261.658 533.495 261.338 533.495ZM261.794 532.451C262.01 532.451 262.234 532.409 262.466 532.325C262.698 532.237 262.9 532.125 263.072 531.989C263.248 531.85 263.352 531.702 263.384 531.546V530.322C263.328 530.326 263.224 530.34 263.072 530.364C262.92 530.384 262.758 530.408 262.586 530.436C262.414 530.46 262.262 530.486 262.13 530.514C261.626 530.614 261.274 530.742 261.074 530.898C260.878 531.054 260.78 531.272 260.78 531.552C260.78 531.828 260.866 532.047 261.038 532.211C261.214 532.371 261.466 532.451 261.794 532.451ZM269.966 533.519C269.634 533.519 269.312 533.463 269 533.351C268.688 533.239 268.43 533.047 268.226 532.775C268.026 532.499 267.926 532.121 267.926 531.642V529.008C267.926 528.924 267.944 528.812 267.98 528.672C268.02 528.532 268.086 528.402 268.178 528.282C268.274 528.162 268.408 528.092 268.58 528.072L267.926 527.136L267.956 526.968L268.274 524.581H269.33V531.318C269.33 531.726 269.414 531.985 269.582 532.097C269.754 532.209 270.026 532.265 270.398 532.265C270.618 532.265 270.816 532.253 270.992 532.229C271.168 532.201 271.33 532.165 271.478 532.121C271.63 532.073 271.774 532.021 271.91 531.965V533.231C271.63 533.331 271.34 533.403 271.04 533.447C270.74 533.495 270.382 533.519 269.966 533.519ZM266.517 528.072V526.872H271.424V528.072H266.517ZM275.726 533.495C275.126 533.495 274.646 533.329 274.287 532.997C273.927 532.665 273.747 532.215 273.747 531.648C273.747 531.164 273.905 530.764 274.221 530.448C274.536 530.132 275.006 529.918 275.63 529.806C275.926 529.754 276.218 529.71 276.506 529.674C276.798 529.638 277.056 529.61 277.28 529.59C277.508 529.566 277.672 529.55 277.772 529.542V529.038C277.772 528.606 277.67 528.302 277.466 528.126C277.266 527.946 276.958 527.856 276.542 527.856C276.126 527.856 275.798 527.94 275.558 528.108C275.322 528.272 275.208 528.604 275.216 529.104H273.999C273.955 528.62 274.035 528.202 274.239 527.85C274.442 527.498 274.742 527.228 275.138 527.04C275.538 526.848 276.008 526.752 276.548 526.752C277.356 526.752 277.974 526.956 278.402 527.364C278.834 527.768 279.05 528.376 279.05 529.188V533.423H277.772V531.965C277.696 532.257 277.556 532.519 277.352 532.751C277.152 532.979 276.91 533.161 276.626 533.297C276.346 533.429 276.046 533.495 275.726 533.495ZM276.182 532.451C276.398 532.451 276.622 532.409 276.854 532.325C277.086 532.237 277.288 532.125 277.46 531.989C277.636 531.85 277.74 531.702 277.772 531.546V530.322C277.716 530.326 277.612 530.34 277.46 530.364C277.308 530.384 277.146 530.408 276.974 530.436C276.802 530.46 276.65 530.486 276.518 530.514C276.014 530.614 275.662 530.742 275.462 530.898C275.266 531.054 275.168 531.272 275.168 531.552C275.168 531.828 275.254 532.047 275.426 532.211C275.602 532.371 275.854 532.451 276.182 532.451ZM291.074 533.513C290.502 533.513 289.99 533.385 289.538 533.129C289.09 532.869 288.736 532.487 288.477 531.983C288.217 531.48 288.087 530.862 288.087 530.13C288.087 529.41 288.211 528.798 288.459 528.294C288.706 527.79 289.042 527.406 289.466 527.142C289.894 526.878 290.374 526.746 290.906 526.746C291.718 526.746 292.376 527.008 292.88 527.532C293.384 528.056 293.636 528.808 293.636 529.788C293.636 529.924 293.632 530.032 293.624 530.112C293.616 530.188 293.61 530.284 293.606 530.4H289.394C289.402 530.876 289.488 531.26 289.652 531.552C289.82 531.84 290.032 532.049 290.288 532.181C290.548 532.309 290.818 532.373 291.098 532.373C291.406 532.373 291.654 532.319 291.842 532.211C292.03 532.103 292.174 531.887 292.274 531.564H293.498C293.454 531.979 293.324 532.333 293.108 532.625C292.896 532.917 292.616 533.139 292.268 533.291C291.92 533.439 291.522 533.513 291.074 533.513ZM289.4 529.902C289.432 529.726 289.506 529.606 289.622 529.542C289.738 529.478 289.898 529.446 290.102 529.446H292.274C292.262 528.938 292.152 528.552 291.944 528.288C291.736 528.02 291.406 527.886 290.954 527.886C290.446 527.886 290.06 528.068 289.796 528.432C289.532 528.796 289.4 529.286 289.4 529.902ZM295.527 533.423V526.86H296.666L296.822 529.332L296.714 528.834C296.806 528.142 297.022 527.62 297.362 527.268C297.706 526.916 298.178 526.74 298.778 526.74C299.398 526.74 299.862 526.938 300.17 527.334C300.482 527.73 300.638 528.314 300.638 529.086V533.423H299.294V529.548C299.294 528.984 299.214 528.584 299.054 528.348C298.894 528.108 298.618 527.988 298.226 527.988C297.922 527.988 297.648 528.066 297.404 528.222C297.164 528.378 296.986 528.582 296.87 528.834V533.423H295.527ZM305.372 536.147C304.736 536.147 304.188 536.067 303.728 535.907C303.272 535.747 302.921 535.527 302.673 535.247C302.425 534.967 302.301 534.647 302.301 534.287C302.301 533.991 302.375 533.745 302.523 533.549C302.671 533.353 302.853 533.203 303.068 533.099C303.284 532.995 303.494 532.937 303.698 532.925L304.01 532.955C303.954 533.015 303.894 533.089 303.83 533.177C303.766 533.265 303.712 533.371 303.668 533.495C303.628 533.619 303.608 533.763 303.608 533.927C303.608 534.135 303.658 534.321 303.758 534.485C303.858 534.653 304.034 534.785 304.286 534.881C304.538 534.977 304.89 535.025 305.342 535.025C305.914 535.025 306.328 534.945 306.584 534.785C306.84 534.625 306.968 534.387 306.968 534.071C306.968 533.855 306.898 533.695 306.758 533.591C306.618 533.491 306.35 533.415 305.954 533.363L304.4 533.153C303.884 533.081 303.498 532.975 303.242 532.835C302.987 532.691 302.817 532.537 302.733 532.373C302.649 532.209 302.607 532.061 302.607 531.929C302.607 531.706 302.669 531.522 302.793 531.378C302.921 531.234 303.074 531.122 303.254 531.042C303.434 530.962 303.612 530.908 303.788 530.88C303.968 530.852 304.108 530.844 304.208 530.856C304.096 530.912 304.004 530.984 303.932 531.072C303.86 531.16 303.824 531.288 303.824 531.456C303.824 531.64 303.882 531.778 303.998 531.87C304.118 531.957 304.328 532.021 304.628 532.061L306.176 532.265C306.76 532.341 307.204 532.473 307.508 532.661C307.816 532.845 308.026 533.061 308.138 533.309C308.25 533.553 308.306 533.807 308.306 534.071C308.306 534.395 308.242 534.685 308.114 534.941C307.99 535.201 307.804 535.419 307.556 535.595C307.308 535.775 307.002 535.911 306.638 536.003C306.274 536.099 305.852 536.147 305.372 536.147ZM305.36 531.12C304.596 531.12 303.984 530.924 303.524 530.532C303.064 530.136 302.835 529.606 302.835 528.942C302.835 528.266 303.066 527.732 303.53 527.34C303.998 526.944 304.612 526.752 305.372 526.764C305.856 526.772 306.286 526.864 306.662 527.04C307.042 527.212 307.34 527.46 307.556 527.784C307.776 528.108 307.886 528.5 307.886 528.96C307.886 529.624 307.656 530.15 307.196 530.538C306.736 530.926 306.124 531.12 305.36 531.12ZM305.366 530.076C305.794 530.076 306.112 529.98 306.32 529.788C306.528 529.592 306.632 529.314 306.632 528.954C306.632 528.586 306.526 528.304 306.314 528.108C306.106 527.908 305.786 527.808 305.354 527.808C304.93 527.808 304.614 527.906 304.406 528.102C304.198 528.294 304.094 528.568 304.094 528.924C304.094 529.292 304.198 529.576 304.406 529.776C304.618 529.976 304.938 530.076 305.366 530.076ZM306.092 526.998L306.014 526.938C306.05 526.586 306.148 526.307 306.308 526.099C306.468 525.887 306.664 525.735 306.896 525.643C307.132 525.547 307.374 525.499 307.622 525.499C307.702 525.499 307.776 525.503 307.844 525.511C307.916 525.519 307.976 525.533 308.024 525.553V526.812C307.9 526.792 307.79 526.776 307.694 526.764C307.602 526.748 307.466 526.74 307.286 526.74C307.174 526.74 307.046 526.74 306.902 526.74C306.758 526.74 306.614 526.758 306.47 526.794C306.33 526.826 306.204 526.894 306.092 526.998ZM312.314 533.243V528.84C312.314 528.664 312.352 528.5 312.428 528.348C312.504 528.196 312.67 528.112 312.926 528.096L312.314 527.826L312.248 527.304L313.64 526.878L313.616 533.243H312.314ZM310.262 533.423V532.367H315.476V533.423H310.262ZM309.963 528.096V526.878H313.64L313.19 528.096H309.963ZM312.896 525.781C312.624 525.781 312.392 525.689 312.2 525.505C312.008 525.321 311.912 525.079 311.912 524.779C311.912 524.471 312.008 524.223 312.2 524.035C312.392 523.847 312.624 523.753 312.896 523.753C313.168 523.753 313.4 523.847 313.592 524.035C313.784 524.223 313.88 524.471 313.88 524.779C313.88 525.079 313.784 525.321 313.592 525.505C313.4 525.689 313.168 525.781 312.896 525.781ZM317.109 533.423V526.86H318.248L318.404 529.332L318.296 528.834C318.388 528.142 318.604 527.62 318.944 527.268C319.288 526.916 319.76 526.74 320.36 526.74C320.98 526.74 321.444 526.938 321.752 527.334C322.064 527.73 322.22 528.314 322.22 529.086V533.423H320.876V529.548C320.876 528.984 320.796 528.584 320.636 528.348C320.476 528.108 320.2 527.988 319.808 527.988C319.504 527.988 319.23 528.066 318.986 528.222C318.746 528.378 318.568 528.582 318.452 528.834V533.423H317.109ZM327.044 533.513C326.472 533.513 325.96 533.385 325.508 533.129C325.06 532.869 324.706 532.487 324.447 531.983C324.187 531.48 324.057 530.862 324.057 530.13C324.057 529.41 324.181 528.798 324.429 528.294C324.676 527.79 325.012 527.406 325.436 527.142C325.864 526.878 326.344 526.746 326.876 526.746C327.688 526.746 328.346 527.008 328.85 527.532C329.354 528.056 329.606 528.808 329.606 529.788C329.606 529.924 329.602 530.032 329.594 530.112C329.586 530.188 329.58 530.284 329.576 530.4H325.364C325.372 530.876 325.458 531.26 325.622 531.552C325.79 531.84 326.002 532.049 326.258 532.181C326.518 532.309 326.788 532.373 327.068 532.373C327.376 532.373 327.624 532.319 327.812 532.211C328 532.103 328.144 531.887 328.244 531.564H329.468C329.424 531.979 329.294 532.333 329.078 532.625C328.866 532.917 328.586 533.139 328.238 533.291C327.89 533.439 327.492 533.513 327.044 533.513ZM325.37 529.902C325.402 529.726 325.476 529.606 325.592 529.542C325.708 529.478 325.868 529.446 326.072 529.446H328.244C328.232 528.938 328.122 528.552 327.914 528.288C327.706 528.02 327.376 527.886 326.924 527.886C326.416 527.886 326.03 528.068 325.766 528.432C325.502 528.796 325.37 529.286 325.37 529.902ZM334.238 533.513C333.666 533.513 333.154 533.385 332.702 533.129C332.254 532.869 331.9 532.487 331.641 531.983C331.381 531.48 331.251 530.862 331.251 530.13C331.251 529.41 331.375 528.798 331.623 528.294C331.87 527.79 332.206 527.406 332.63 527.142C333.058 526.878 333.538 526.746 334.07 526.746C334.882 526.746 335.54 527.008 336.044 527.532C336.548 528.056 336.8 528.808 336.8 529.788C336.8 529.924 336.796 530.032 336.788 530.112C336.78 530.188 336.774 530.284 336.77 530.4H332.558C332.566 530.876 332.652 531.26 332.816 531.552C332.984 531.84 333.196 532.049 333.452 532.181C333.712 532.309 333.982 532.373 334.262 532.373C334.57 532.373 334.818 532.319 335.006 532.211C335.194 532.103 335.338 531.887 335.438 531.564H336.662C336.618 531.979 336.488 532.333 336.272 532.625C336.06 532.917 335.78 533.139 335.432 533.291C335.084 533.439 334.686 533.513 334.238 533.513ZM332.564 529.902C332.596 529.726 332.67 529.606 332.786 529.542C332.902 529.478 333.062 529.446 333.266 529.446H335.438C335.426 528.938 335.316 528.552 335.108 528.288C334.9 528.02 334.57 527.886 334.118 527.886C333.61 527.886 333.224 528.068 332.96 528.432C332.696 528.796 332.564 529.286 332.564 529.902ZM338.319 533.423V532.367H342.992V533.423H338.319ZM338.289 528.096V526.86H340.256V528.096H338.289ZM339.53 533.303V528.672C339.53 528.472 339.57 528.332 339.65 528.252C339.73 528.172 339.866 528.12 340.058 528.096L339.53 527.592V526.86H340.67L340.778 528.624C340.87 528.24 341.022 527.908 341.234 527.628C341.45 527.344 341.704 527.126 341.996 526.974C342.292 526.818 342.598 526.74 342.914 526.74C343.446 526.74 343.854 526.942 344.138 527.346C344.421 527.746 344.549 528.364 344.521 529.2H343.214C343.206 528.764 343.138 528.454 343.01 528.27C342.882 528.082 342.642 527.988 342.29 527.988C342.018 527.988 341.742 528.086 341.462 528.282C341.186 528.478 340.99 528.702 340.874 528.954V531.87C340.874 532.013 340.842 532.125 340.778 532.205C340.718 532.281 340.628 532.335 340.508 532.367L340.874 532.625V533.303H339.53Z" fill="#1C1C1C"/>
<path d="M1085.19 398.425H1064.12V440.575H1085.19C1096.83 440.575 1106.27 431.139 1106.27 419.5C1106.27 407.861 1096.83 398.425 1085.19 398.425Z" fill="#DDDDDD" stroke="#C5C5C5" stroke-width="0.85"/>
<path d="M1093.64 419.5C1093.64 413.563 1088.83 408.75 1082.89 408.75V408.75C1076.95 408.75 1072.14 413.563 1072.14 419.5V419.5C1072.14 425.437 1076.95 430.25 1082.89 430.25V430.25C1088.83 430.25 1093.64 425.437 1093.64 419.5V419.5Z" fill="#1C1C1C"/>
<path d="M1082.89 413.229V425.771M1089.16 419.5H1076.62" stroke="#F5F5F5" stroke-width="1.3777" stroke-linecap="round" stroke-linejoin="round"/>
<path d="M769.856 202.324L812.98 217.805C813.839 218.113 814.437 218.328 814.855 218.52C815.284 218.717 815.363 218.823 815.368 218.83C815.368 218.83 815.368 218.83 815.368 218.83C815.466 219.011 815.469 219.229 815.376 219.413C815.376 219.413 815.376 219.413 815.375 219.413C815.371 219.419 815.294 219.527 814.871 219.736C814.458 219.938 813.866 220.169 813.016 220.5L794.893 227.548C794.873 227.556 794.854 227.563 794.835 227.57C794.564 227.675 794.318 227.771 794.103 227.924C793.915 228.059 793.75 228.223 793.615 228.412C793.462 228.627 793.367 228.873 793.262 229.144C793.254 229.163 793.247 229.182 793.239 229.202L786.191 247.324C785.861 248.175 785.63 248.767 785.427 249.18C785.219 249.603 785.11 249.68 785.104 249.684C785.104 249.684 785.104 249.684 785.104 249.684C784.92 249.778 784.702 249.775 784.521 249.677C784.521 249.677 784.521 249.677 784.521 249.676C784.515 249.672 784.409 249.592 784.212 249.164C784.019 248.746 783.804 248.148 783.496 247.289L768.015 204.165C767.762 203.459 767.59 202.978 767.496 202.615C767.398 202.238 767.427 202.134 767.43 202.124C767.493 201.943 767.635 201.801 767.816 201.738C767.825 201.735 767.93 201.706 768.306 201.804C768.669 201.899 769.151 202.071 769.856 202.324Z" fill="#9642F6" stroke="#F5F5F5" stroke-width="1.46426" stroke-linecap="round" stroke-linejoin="round"/>
<rect x="800.396" y="233.847" width="133.259" height="27.1529" rx="3.78878" fill="#9642F6"/>
<path d="M815.716 248.436C815.612 248.436 815.518 248.396 815.434 248.316C815.354 248.232 815.314 248.116 815.314 247.968L814.894 247.548L815.314 247.212H817.048C817.404 247.212 817.7 247.152 817.936 247.032C818.172 246.912 818.35 246.728 818.47 246.48C818.59 246.228 818.65 245.91 818.65 245.526C818.65 245.122 818.58 244.807 818.44 244.579C818.304 244.351 818.108 244.191 817.852 244.099C817.596 244.003 817.292 243.955 816.94 243.955H815.278L814.762 242.701C814.902 242.701 815.07 242.701 815.266 242.701C815.466 242.701 815.672 242.701 815.884 242.701C816.1 242.701 816.3 242.701 816.484 242.701C816.672 242.701 816.824 242.701 816.94 242.701C817.948 242.701 818.712 242.921 819.232 243.361C819.756 243.797 820.018 244.511 820.018 245.502C820.018 245.87 819.966 246.228 819.862 246.576C819.762 246.924 819.596 247.238 819.364 247.518C819.136 247.798 818.83 248.022 818.446 248.19C818.066 248.354 817.596 248.436 817.036 248.436H815.716ZM813.971 251.423V242.701H815.314V251.423H813.971ZM820.991 251.423V250.368H825.664V251.423H820.991ZM820.961 246.096V244.861H822.928V246.096H820.961ZM822.202 251.303V246.672C822.202 246.472 822.242 246.332 822.322 246.252C822.402 246.172 822.538 246.12 822.73 246.096L822.202 245.592V244.861H823.342L823.45 246.624C823.542 246.24 823.694 245.908 823.906 245.628C824.122 245.344 824.376 245.126 824.668 244.975C824.964 244.819 825.27 244.741 825.586 244.741C826.118 244.741 826.526 244.943 826.81 245.346C827.094 245.746 827.222 246.364 827.194 247.2H825.886C825.878 246.764 825.81 246.454 825.682 246.27C825.554 246.082 825.314 245.988 824.962 245.988C824.69 245.988 824.414 246.086 824.134 246.282C823.858 246.478 823.662 246.702 823.546 246.954V249.87C823.546 250.014 823.514 250.126 823.45 250.206C823.39 250.282 823.3 250.336 823.18 250.368L823.546 250.625V251.303H822.202ZM831.058 251.513C830.478 251.513 829.972 251.385 829.54 251.129C829.108 250.869 828.773 250.488 828.533 249.984C828.293 249.476 828.173 248.852 828.173 248.112C828.173 247.412 828.299 246.812 828.551 246.312C828.803 245.808 829.146 245.422 829.582 245.154C830.018 244.883 830.51 244.747 831.058 244.747C831.654 244.747 832.168 244.883 832.6 245.154C833.032 245.422 833.364 245.808 833.596 246.312C833.828 246.812 833.944 247.412 833.944 248.112C833.944 248.852 833.814 249.476 833.554 249.984C833.298 250.488 832.952 250.869 832.516 251.129C832.08 251.385 831.594 251.513 831.058 251.513ZM831.058 250.356C831.506 250.356 831.87 250.18 832.15 249.828C832.434 249.472 832.576 248.9 832.576 248.112C832.576 247.384 832.44 246.834 832.168 246.462C831.9 246.09 831.53 245.904 831.058 245.904C830.606 245.904 830.24 246.088 829.96 246.456C829.68 246.82 829.54 247.372 829.54 248.112C829.54 248.86 829.68 249.422 829.96 249.798C830.244 250.17 830.61 250.356 831.058 250.356ZM837.784 251.495C837.304 251.495 836.88 251.363 836.512 251.099C836.148 250.835 835.863 250.452 835.655 249.948C835.451 249.44 835.349 248.824 835.349 248.1C835.349 247.42 835.467 246.83 835.703 246.33C835.943 245.83 836.264 245.442 836.668 245.166C837.076 244.891 837.53 244.753 838.03 244.753C838.314 244.753 838.564 244.811 838.78 244.927C838.996 245.039 839.176 245.192 839.32 245.388C839.464 245.584 839.568 245.81 839.632 246.066L840.064 246.258L839.602 246.9C839.558 246.66 839.47 246.466 839.338 246.318C839.21 246.17 839.064 246.062 838.9 245.994C838.74 245.926 838.59 245.892 838.45 245.892C837.938 245.892 837.522 246.09 837.202 246.486C836.882 246.878 836.722 247.422 836.722 248.118C836.722 248.586 836.782 248.99 836.902 249.33C837.022 249.67 837.196 249.934 837.424 250.122C837.652 250.306 837.93 250.398 838.258 250.398C838.422 250.398 838.594 250.364 838.774 250.296C838.954 250.224 839.116 250.11 839.26 249.954C839.408 249.794 839.508 249.584 839.56 249.324L839.62 249.768L839.566 249.96C839.53 250.232 839.424 250.486 839.248 250.721C839.076 250.953 838.86 251.141 838.6 251.285C838.344 251.425 838.072 251.495 837.784 251.495ZM839.578 251.423L839.56 249.324V242.089H840.904V251.423H839.578ZM844.81 251.555C844.266 251.555 843.818 251.357 843.466 250.961C843.115 250.561 842.939 249.998 842.939 249.27V244.873H844.276V249.048C844.276 249.508 844.358 249.834 844.522 250.026C844.69 250.214 844.964 250.308 845.344 250.308C845.652 250.308 845.93 250.22 846.178 250.044C846.43 249.868 846.606 249.67 846.706 249.45V244.873H848.056V251.423H846.91L846.754 248.952L846.862 249.45C846.814 249.81 846.72 250.15 846.58 250.47C846.44 250.789 846.228 251.051 845.944 251.255C845.664 251.455 845.286 251.555 844.81 251.555ZM852.922 251.537C852.298 251.537 851.762 251.395 851.314 251.111C850.866 250.823 850.52 250.424 850.277 249.912C850.037 249.4 849.917 248.806 849.917 248.13C849.917 247.418 850.039 246.81 850.283 246.306C850.53 245.802 850.87 245.418 851.302 245.154C851.734 244.887 852.23 244.753 852.79 244.753C853.362 244.753 853.844 244.871 854.236 245.106C854.628 245.342 854.922 245.654 855.118 246.042C855.318 246.426 855.412 246.848 855.4 247.308H854.092C854.092 247.1 854.064 246.91 854.008 246.738C853.956 246.566 853.876 246.416 853.768 246.288C853.66 246.16 853.524 246.062 853.36 245.994C853.2 245.922 853.012 245.886 852.796 245.886C852.248 245.882 851.856 246.084 851.62 246.492C851.384 246.9 851.266 247.436 851.266 248.1C851.266 248.864 851.406 249.438 851.686 249.822C851.966 250.206 852.39 250.398 852.958 250.398C853.17 250.398 853.362 250.364 853.534 250.296C853.706 250.224 853.844 250.124 853.948 249.996C854.056 249.868 854.116 249.718 854.128 249.546H855.394C855.406 249.962 855.294 250.32 855.058 250.619C854.822 250.915 854.514 251.143 854.134 251.303C853.754 251.459 853.35 251.537 852.922 251.537ZM860.548 251.519C860.216 251.519 859.894 251.463 859.582 251.351C859.27 251.239 859.012 251.047 858.808 250.775C858.608 250.5 858.508 250.122 858.508 249.642V247.008C858.508 246.924 858.526 246.812 858.562 246.672C858.602 246.532 858.668 246.402 858.76 246.282C858.856 246.162 858.99 246.092 859.162 246.072L858.508 245.136L858.538 244.969L858.856 242.581H859.912V249.318C859.912 249.726 859.996 249.986 860.164 250.098C860.336 250.21 860.608 250.266 860.98 250.266C861.2 250.266 861.398 250.254 861.574 250.23C861.75 250.202 861.912 250.166 862.06 250.122C862.212 250.074 862.356 250.022 862.492 249.966V251.231C862.212 251.331 861.922 251.403 861.622 251.447C861.322 251.495 860.964 251.519 860.548 251.519ZM857.099 246.072V244.873H862.006V246.072H857.099ZM871.043 251.423V244.873H872.086L872.2 246.72L872.116 246.906C872.172 246.23 872.33 245.7 872.59 245.316C872.85 244.933 873.222 244.741 873.706 244.741C873.966 244.741 874.184 244.803 874.36 244.927C874.536 245.051 874.666 245.256 874.75 245.544C874.838 245.828 874.872 246.212 874.852 246.696V251.423H873.7V246.738C873.7 246.442 873.658 246.244 873.574 246.144C873.49 246.04 873.366 245.988 873.202 245.988C873.058 245.988 872.892 246.038 872.704 246.138C872.52 246.238 872.35 246.464 872.194 246.816V251.423H871.043ZM876.34 251.423V246.738C876.34 246.478 876.294 246.288 876.202 246.168C876.11 246.048 875.964 245.988 875.764 245.988C875.544 245.988 875.358 246.058 875.206 246.198C875.054 246.334 874.936 246.538 874.852 246.81L874.66 247.296L874.792 246.846C874.836 246.19 874.996 245.676 875.272 245.304C875.548 244.929 875.916 244.741 876.376 244.741C876.74 244.741 877.016 244.877 877.204 245.148C877.396 245.42 877.492 245.914 877.492 246.63V251.423H876.34ZM880.696 251.495C880.096 251.495 879.616 251.329 879.256 250.997C878.897 250.665 878.717 250.216 878.717 249.648C878.717 249.164 878.875 248.764 879.191 248.448C879.506 248.132 879.976 247.918 880.6 247.806C880.896 247.754 881.188 247.71 881.476 247.674C881.768 247.638 882.026 247.61 882.25 247.59C882.478 247.566 882.642 247.55 882.742 247.542V247.038C882.742 246.606 882.64 246.302 882.436 246.126C882.236 245.946 881.928 245.856 881.512 245.856C881.096 245.856 880.768 245.94 880.528 246.108C880.292 246.272 880.178 246.604 880.186 247.104H878.969C878.925 246.62 879.005 246.202 879.209 245.85C879.412 245.498 879.712 245.228 880.108 245.041C880.508 244.849 880.978 244.753 881.518 244.753C882.326 244.753 882.944 244.957 883.372 245.364C883.804 245.768 884.02 246.376 884.02 247.188V251.423H882.742V249.966C882.666 250.258 882.526 250.52 882.322 250.751C882.122 250.979 881.88 251.161 881.596 251.297C881.316 251.429 881.016 251.495 880.696 251.495ZM881.152 250.452C881.368 250.452 881.592 250.41 881.824 250.326C882.056 250.238 882.258 250.126 882.43 249.99C882.606 249.85 882.71 249.702 882.742 249.546V248.322C882.686 248.326 882.582 248.34 882.43 248.364C882.278 248.384 882.116 248.408 881.944 248.436C881.772 248.46 881.62 248.486 881.488 248.514C880.984 248.614 880.632 248.742 880.432 248.898C880.236 249.054 880.138 249.272 880.138 249.552C880.138 249.828 880.224 250.048 880.396 250.212C880.572 250.372 880.824 250.452 881.152 250.452ZM886.109 251.423V244.861H887.248L887.404 247.332L887.296 246.834C887.388 246.142 887.604 245.62 887.944 245.268C888.288 244.917 888.76 244.741 889.36 244.741C889.98 244.741 890.444 244.939 890.752 245.334C891.064 245.73 891.22 246.314 891.22 247.086V251.423H889.876V247.548C889.876 246.984 889.796 246.584 889.636 246.348C889.476 246.108 889.2 245.988 888.808 245.988C888.504 245.988 888.23 246.066 887.986 246.222C887.746 246.378 887.568 246.582 887.452 246.834V251.423H886.109ZM895.084 251.495C894.484 251.495 894.004 251.329 893.644 250.997C893.285 250.665 893.105 250.216 893.105 249.648C893.105 249.164 893.263 248.764 893.579 248.448C893.894 248.132 894.364 247.918 894.988 247.806C895.284 247.754 895.576 247.71 895.864 247.674C896.156 247.638 896.414 247.61 896.638 247.59C896.866 247.566 897.03 247.55 897.13 247.542V247.038C897.13 246.606 897.028 246.302 896.824 246.126C896.624 245.946 896.316 245.856 895.9 245.856C895.484 245.856 895.156 245.94 894.916 246.108C894.68 246.272 894.566 246.604 894.574 247.104H893.357C893.313 246.62 893.393 246.202 893.597 245.85C893.8 245.498 894.1 245.228 894.496 245.041C894.896 244.849 895.366 244.753 895.906 244.753C896.714 244.753 897.332 244.957 897.76 245.364C898.192 245.768 898.408 246.376 898.408 247.188V251.423H897.13V249.966C897.054 250.258 896.914 250.52 896.71 250.751C896.51 250.979 896.268 251.161 895.984 251.297C895.704 251.429 895.404 251.495 895.084 251.495ZM895.54 250.452C895.756 250.452 895.98 250.41 896.212 250.326C896.444 250.238 896.646 250.126 896.818 249.99C896.994 249.85 897.098 249.702 897.13 249.546V248.322C897.074 248.326 896.97 248.34 896.818 248.364C896.666 248.384 896.504 248.408 896.332 248.436C896.16 248.46 896.008 248.486 895.876 248.514C895.372 248.614 895.02 248.742 894.82 248.898C894.624 249.054 894.526 249.272 894.526 249.552C894.526 249.828 894.612 250.048 894.784 250.212C894.96 250.372 895.212 250.452 895.54 250.452ZM903.148 254.147C902.512 254.147 901.964 254.067 901.504 253.907C901.048 253.747 900.697 253.527 900.449 253.247C900.201 252.967 900.077 252.647 900.077 252.287C900.077 251.991 900.151 251.745 900.299 251.549C900.447 251.353 900.629 251.203 900.844 251.099C901.06 250.995 901.27 250.937 901.474 250.925L901.786 250.955C901.73 251.015 901.67 251.089 901.606 251.177C901.542 251.265 901.488 251.371 901.444 251.495C901.404 251.619 901.384 251.763 901.384 251.927C901.384 252.135 901.434 252.321 901.534 252.485C901.634 252.653 901.81 252.785 902.062 252.881C902.314 252.977 902.666 253.025 903.118 253.025C903.69 253.025 904.104 252.945 904.36 252.785C904.616 252.625 904.744 252.387 904.744 252.071C904.744 251.855 904.674 251.695 904.534 251.591C904.394 251.491 904.126 251.415 903.73 251.363L902.176 251.153C901.66 251.081 901.274 250.975 901.018 250.835C900.762 250.691 900.593 250.538 900.509 250.374C900.425 250.21 900.383 250.062 900.383 249.93C900.383 249.706 900.445 249.522 900.569 249.378C900.697 249.234 900.85 249.122 901.03 249.042C901.21 248.962 901.388 248.908 901.564 248.88C901.744 248.852 901.884 248.844 901.984 248.856C901.872 248.912 901.78 248.984 901.708 249.072C901.636 249.16 901.6 249.288 901.6 249.456C901.6 249.64 901.658 249.778 901.774 249.87C901.894 249.958 902.104 250.022 902.404 250.062L903.952 250.266C904.536 250.342 904.98 250.474 905.284 250.661C905.592 250.845 905.802 251.061 905.914 251.309C906.026 251.553 906.082 251.807 906.082 252.071C906.082 252.395 906.018 252.685 905.89 252.941C905.766 253.201 905.58 253.419 905.332 253.595C905.084 253.775 904.778 253.911 904.414 254.003C904.05 254.099 903.628 254.147 903.148 254.147ZM903.136 249.12C902.372 249.12 901.76 248.924 901.3 248.532C900.84 248.136 900.611 247.606 900.611 246.942C900.611 246.266 900.842 245.732 901.306 245.34C901.774 244.945 902.388 244.753 903.148 244.765C903.632 244.773 904.062 244.865 904.438 245.041C904.818 245.212 905.116 245.46 905.332 245.784C905.552 246.108 905.662 246.5 905.662 246.96C905.662 247.624 905.432 248.15 904.972 248.538C904.512 248.926 903.9 249.12 903.136 249.12ZM903.142 248.076C903.57 248.076 903.888 247.98 904.096 247.788C904.304 247.592 904.408 247.314 904.408 246.954C904.408 246.586 904.302 246.304 904.09 246.108C903.882 245.908 903.562 245.808 903.13 245.808C902.706 245.808 902.39 245.906 902.182 246.102C901.974 246.294 901.87 246.568 901.87 246.924C901.87 247.292 901.974 247.576 902.182 247.776C902.394 247.976 902.714 248.076 903.142 248.076ZM903.868 244.999L903.79 244.939C903.826 244.587 903.924 244.307 904.084 244.099C904.244 243.887 904.44 243.735 904.672 243.643C904.908 243.547 905.15 243.499 905.398 243.499C905.478 243.499 905.552 243.503 905.62 243.511C905.692 243.519 905.752 243.533 905.8 243.553V244.813C905.676 244.793 905.566 244.777 905.47 244.765C905.378 244.749 905.242 244.741 905.062 244.741C904.95 244.741 904.822 244.741 904.678 244.741C904.534 244.741 904.39 244.759 904.246 244.795C904.106 244.827 903.98 244.895 903.868 244.999ZM910.432 251.513C909.86 251.513 909.348 251.385 908.896 251.129C908.448 250.869 908.094 250.488 907.835 249.984C907.575 249.48 907.445 248.862 907.445 248.13C907.445 247.41 907.569 246.798 907.817 246.294C908.064 245.79 908.4 245.406 908.824 245.142C909.252 244.879 909.732 244.747 910.264 244.747C911.076 244.747 911.734 245.009 912.238 245.532C912.742 246.056 912.994 246.808 912.994 247.788C912.994 247.924 912.99 248.032 912.982 248.112C912.974 248.188 912.968 248.284 912.964 248.4H908.752C908.76 248.876 908.846 249.26 909.01 249.552C909.178 249.84 909.39 250.05 909.646 250.182C909.906 250.31 910.176 250.374 910.456 250.374C910.764 250.374 911.012 250.32 911.2 250.212C911.388 250.104 911.532 249.888 911.632 249.564H912.856C912.812 249.98 912.682 250.334 912.466 250.625C912.254 250.917 911.974 251.139 911.626 251.291C911.278 251.439 910.88 251.513 910.432 251.513ZM908.758 247.902C908.79 247.726 908.864 247.606 908.98 247.542C909.096 247.478 909.256 247.446 909.46 247.446H911.632C911.62 246.938 911.51 246.552 911.302 246.288C911.094 246.02 910.764 245.886 910.312 245.886C909.804 245.886 909.418 246.068 909.154 246.432C908.89 246.796 908.758 247.286 908.758 247.902ZM914.513 251.423V250.368H919.186V251.423H914.513ZM914.483 246.096V244.861H916.45V246.096H914.483ZM915.724 251.303V246.672C915.724 246.472 915.764 246.332 915.844 246.252C915.924 246.172 916.06 246.12 916.252 246.096L915.724 245.592V244.861H916.864L916.972 246.624C917.064 246.24 917.216 245.908 917.428 245.628C917.644 245.344 917.898 245.126 918.19 244.975C918.486 244.819 918.792 244.741 919.108 244.741C919.64 244.741 920.048 244.943 920.332 245.346C920.615 245.746 920.743 246.364 920.715 247.2H919.408C919.4 246.764 919.332 246.454 919.204 246.27C919.076 246.082 918.836 245.988 918.484 245.988C918.212 245.988 917.936 246.086 917.656 246.282C917.38 246.478 917.184 246.702 917.068 246.954V249.87C917.068 250.014 917.036 250.126 916.972 250.206C916.912 250.282 916.822 250.336 916.702 250.368L917.068 250.625V251.303H915.724Z" fill="#F5F5F5"/>
</svg>
